<svg id="outline" xmlns="http://www.w3.org/2000/svg" viewBox="0 0 100 100"><defs><style>.cls-1{fill:#2892fc;}.cls-2{fill:#1a2530;}</style></defs><title></title><path id="_Compound_Path_" data-name="&lt;Compound Path&gt;" class="cls-1" d="M68.83,26.38,57.12,17a1.66,1.66,0,0,0-1.52-.24L41.8,22.13a1.53,1.53,0,0,0-1.23,1.28L38.4,38a1.8,1.8,0,0,0,.49,1.7L50.6,49.07c.45.36.8.59,1.24.41L66,44c.76-.3,1.08-.62,1.19-1.32l2.2-14.84A1.72,1.72,0,0,0,68.83,26.38Z"/><rect id="_Path_" data-name="&lt;Path&gt;" class="cls-1" x="18.45" y="64.62" width="12.04" height="26.08" transform="translate(-47.75 40.05) rotate(-45)"/><path id="_Compound_Path_2" data-name="&lt;Compound Path&gt;" class="cls-2" d="M11.31,27.3a1.1,1.1,0,0,1,1.1-1.1h3.16V23a1.1,1.1,0,0,1,2.2,0V26.2h3.16a1.1,1.1,0,1,1,0,2.2H17.77v3.16a1.1,1.1,0,1,1-2.2,0V28.41H12.41A1.1,1.1,0,0,1,11.31,27.3ZM28,14.22h3.16v3.16a1.1,1.1,0,0,0,2.2,0V14.22h3.16a1.1,1.1,0,0,0,0-2.2H33.37V8.86a1.1,1.1,0,1,0-2.2,0V12H28a1.1,1.1,0,1,0,0,2.2ZM83.89,49.33a1.1,1.1,0,0,1,.24,1.19l-4,10a1.11,1.11,0,0,1-.24.37L65.76,75a11.09,11.09,0,0,1-8,3h-17c-1.21,0-2.68,1-3.9,2l1.84,1.84a1.1,1.1,0,0,1,0,1.56l-8.51,8.51a1.1,1.1,0,0,1-1.56,0L10.21,73.47a1.1,1.1,0,0,1,0-1.56l8.51-8.51a1.13,1.13,0,0,1,1.56,0l1.9,1.9,6-6c1.8-1.67,5.09-4.74,9-4.74H45.5A9.93,9.93,0,0,1,50,56.23a8.07,8.07,0,0,0,2.77,1.18h8.51a4.42,4.42,0,0,1,3.39,1.49l7.53-3.57c1.38-3.62,4.17-6.37,7.21-7.07A4.62,4.62,0,0,1,83.89,49.33ZM35.24,81.48l-.5.49a1.1,1.1,0,0,1-.78.32h0a1.1,1.1,0,0,1-.78-.32l-13-13.05a1.1,1.1,0,0,1,0-1.55l.49-.49L19.5,65.74l-7,7L29.43,89.58l7-7Zm46.53-31a2.94,2.94,0,0,0-1.86-.1c-2,.46-4.57,2.53-5.79,6.09a1.1,1.1,0,0,1-.57.64l-7.83,3.71a6.8,6.8,0,0,1,.27,2c0,3.2-1.9,5.33-4.72,5.33H46.45a1.1,1.1,0,0,1,0-2.2H61.28c2.34,0,2.52-2.37,2.52-3.1,0-1.57-.66-3.21-2.52-3.21H52.77a8.69,8.69,0,0,1-3.84-1.46,8.81,8.81,0,0,0-3.43-1.38H37.16c-3,0-5.92,2.68-7.47,4.12l-6,6L35.32,78.44c1.7-1.42,3.6-2.59,5.46-2.59h17a8.92,8.92,0,0,0,6.4-2.37l14-14ZM19.64,71.14a1.1,1.1,0,0,0-1.56,1.56l2.84,2.84A1.1,1.1,0,1,0,22.48,74ZM37.31,37.83l2.16-14.58a2.64,2.64,0,0,1,2-2.17l13.75-5.35h0a2.77,2.77,0,0,1,2.59.41l11.71,9.39a2.81,2.81,0,0,1,1,2.45l-2.2,14.85A2.61,2.61,0,0,1,66.4,45l-14.16,5.5a1.92,1.92,0,0,1-.7.14,2.63,2.63,0,0,1-1.63-.72L38.2,40.54A2.85,2.85,0,0,1,37.31,37.83Zm2.26,1,11.71,9.39.27.2,14-5.46c.46-.18.46-.22.5-.46l2.2-14.84a.7.7,0,0,0-.16-.42l.69-.86-.69.86L56.43,17.85a.56.56,0,0,0-.31-.08l-.15,0L42.19,23.16l-.19.05a.44.44,0,0,0-.36.36L39.49,38.15A.9.9,0,0,0,39.58,38.82Zm3.69-1.17a1.1,1.1,0,0,0,.38-.07l9.5-3.47,9.22,7.3a1.1,1.1,0,0,0,1.37-1.72l-9.19-7.28L56.39,21.3a1.1,1.1,0,0,0-2.17-.36L52.37,32.07l-9.48,3.46a1.1,1.1,0,0,0,.38,2.13ZM89,37.55H85.85V34.4a1.1,1.1,0,0,0-2.2,0v3.16H80.5a1.1,1.1,0,0,0,0,2.2h3.16v3.16a1.1,1.1,0,1,0,2.2,0V39.75H89a1.1,1.1,0,1,0,0-2.2Z"/></svg>