<svg id="outline" xmlns="http://www.w3.org/2000/svg" viewBox="0 0 100 100"><defs><style>.cls-1{fill:#2892fc;}.cls-2{fill:#1a2530;}</style></defs><title></title><circle id="_Path_" data-name="&lt;Path&gt;" class="cls-1" cx="32.27" cy="32.27" r="5.32"/><circle id="_Path_2" data-name="&lt;Path&gt;" class="cls-1" cx="28.01" cy="49.3" r="5.32"/><path id="_Compound_Path_" data-name="&lt;Compound Path&gt;" class="cls-2" d="M87.18,58.24a4,4,0,0,1-2,2.53c-.83.49-1.47.81-1.94,1.05l-.5.26a18,18,0,0,0,.87,1.8,2.41,2.41,0,0,1-2,3.54l-8,1.4a1.1,1.1,0,1,1-.38-2.17l8-1.42c.14,0,.29,0,.36-.11a.2.2,0,0,0,0-.21c-1.21-2.26-1.34-2.93-1.18-3.5.22-.79.87-1.11,1.75-1.56.47-.24,1-.53,1.81-1a2,2,0,0,0,1-1.14,2.06,2.06,0,0,0-.4-1.49c-.16-.25-.51-.74-1-1.37-3.45-4.8-5.6-8.11-5.72-9.83A8.17,8.17,0,0,1,78.23,43a19,19,0,0,0,.16-8.4c-.82-3.84-6.13-23-30.49-22.48-12.75.27-33,7.91-33,27.27,0,8.17,2.55,13.4,4.79,18a44.88,44.88,0,0,1,2.21,5c3.23,9.5,2.76,18.36-1.44,27.07a1.1,1.1,0,0,1-2-1c3.93-8.17,4.37-16.48,1.34-25.41a43.31,43.31,0,0,0-2.11-4.78c-2.23-4.59-5-10.3-5-19,0-6.72,3.1-13.87,8.28-19.13C25.5,15.68,33.8,10.2,47.85,9.9,74,9.36,79.66,30,80.54,34.12a21.21,21.21,0,0,1-.16,9.31,8.12,8.12,0,0,0-.23,1.47c.1,1.44,4,6.9,5.31,8.69.48.67.86,1.19,1,1.46A4.1,4.1,0,0,1,87.18,58.24ZM79,69.48a1.1,1.1,0,0,0-1,1.22c.12,1.1-.22,1.37-.91,1.9a3.56,3.56,0,0,0-1.68,2.78c0,.15,0,.36,0,.6.06,1.57-.05,3-2.12,3.82-2.6,1-9.91-.68-14.19-2-1-.33-3-2-3-5.77a1.1,1.1,0,0,0-2.2,0c0,5.07,2.86,7.33,4.55,7.87.27.08,1,.32,2.07.61a21.37,21.37,0,0,0-3.76,8.28,1.1,1.1,0,1,0,2.14.52c1-4.2,2.82-7.31,4.12-8.15A37.48,37.48,0,0,0,71,82.29a8.75,8.75,0,0,0,3-.43c3.72-1.41,3.59-4.72,3.54-6,0-.16,0-.29,0-.39,0-.52.26-.72.83-1.16a3.82,3.82,0,0,0,1.75-3.89A1.11,1.11,0,0,0,79,69.48Zm-30-39V80.5a1.1,1.1,0,1,1-2.2,0V30.44a6.77,6.77,0,1,1,2.2,0Zm3.47-6.68a4.57,4.57,0,1,0-4.57,4.57A4.58,4.58,0,0,0,52.45,23.76ZM39,32.27a6.73,6.73,0,0,1-1.28,3.94L41.56,40a1.1,1.1,0,0,1,.32.78V55a1.1,1.1,0,0,1-2.2,0V41.24l-3.47-3.47A6.77,6.77,0,1,1,39,32.27Zm-6.77,4.57a4.57,4.57,0,1,0-4.57-4.57A4.58,4.58,0,0,0,32.27,36.85ZM54.22,60.36,62.09,53a6.83,6.83,0,1,1,1.5,1.61l-7.53,7v4.67a1.1,1.1,0,0,1-2.2,0V61.17A1.1,1.1,0,0,1,54.22,60.36ZM63.16,49.3a4.57,4.57,0,1,0,4.57-4.57A4.58,4.58,0,0,0,63.16,49.3Zm-9-9.27,3.8-3.8a6.79,6.79,0,1,1,1.56,1.55l-3.48,3.48V53.55a1.1,1.1,0,0,1-2.2,0V40.81A1.1,1.1,0,0,1,54.19,40Zm4.71-7.75a4.57,4.57,0,1,0,4.57-4.57A4.58,4.58,0,0,0,58.9,32.27ZM41.56,61.51a1.1,1.1,0,0,1,.32.77V89a1.1,1.1,0,0,1-2.2,0V62.73l-7.77-7.9a6.81,6.81,0,1,1,1.57-1.54ZM28,53.87a4.57,4.57,0,1,0-4.57-4.57A4.58,4.58,0,0,0,28,53.87Z"/></svg>