<svg id="outline" xmlns="http://www.w3.org/2000/svg" viewBox="0 0 100 100"><defs><style>.cls-1{fill:#2892fc;}.cls-2{fill:#1a2530;}</style></defs><title></title><rect id="_Path_" data-name="&lt;Path&gt;" class="cls-1" x="47.87" y="51.42" width="22.7" height="8.51"/><path id="_Compound_Path_" data-name="&lt;Compound Path&gt;" class="cls-2" d="M76.24,39H74.5V28.72a6.78,6.78,0,0,0-6.77-6.77H37.94a6.78,6.78,0,0,0-6.77,6.77V67A4.57,4.57,0,0,1,22,67v-55l4.08,2a1.1,1.1,0,0,0,1.1-.07l3.64-2.43L34.5,14a1.1,1.1,0,0,0,1.22,0l3.64-2.43L43,14a1.1,1.1,0,0,0,1.1.07l4.08-2v6.73a1.1,1.1,0,1,0,2.2,0V10.28a1.1,1.1,0,0,0-1.59-1l-5.1,2.55L40,9.37a1.1,1.1,0,0,0-1.22,0L35.11,11.8,31.46,9.37a1.1,1.1,0,0,0-1.22,0l-3.72,2.48L21.41,9.3a1.1,1.1,0,0,0-1.59,1V67A6.78,6.78,0,0,0,26.6,73.8h9.93a1.1,1.1,0,0,0,0-2.2H31.58A6.74,6.74,0,0,0,33.37,67V28.72a4.58,4.58,0,0,1,4.57-4.57h1.42a4.58,4.58,0,0,1,4.57,4.57V39H42.2a3.94,3.94,0,0,0-3.94,3.94v44a3.94,3.94,0,0,0,3.94,3.94h34a3.94,3.94,0,0,0,3.94-3.94v-44A3.94,3.94,0,0,0,76.24,39ZM67.73,24.15a4.58,4.58,0,0,1,4.57,4.57v14.5H46.14V28.72a6.75,6.75,0,0,0-1.78-4.57ZM78,86.88a1.74,1.74,0,0,1-1.74,1.74h-34a1.74,1.74,0,0,1-1.74-1.74v-44a1.74,1.74,0,0,1,1.74-1.74h1.74v3.16a1.1,1.1,0,0,0,1.1,1.1H73.4a1.1,1.1,0,0,0,1.1-1.1V41.17h1.74A1.74,1.74,0,0,1,78,42.91ZM47.87,61h22.7a1.1,1.1,0,0,0,1.1-1.1V51.42a1.1,1.1,0,0,0-1.1-1.1H47.87a1.1,1.1,0,0,0-1.1,1.1v8.51A1.1,1.1,0,0,0,47.87,61ZM49,52.52h20.5v6.31H49ZM53.23,65.6a1.1,1.1,0,0,1-1.1,1.1H46.45a1.1,1.1,0,0,1,0-2.2h5.67A1.1,1.1,0,0,1,53.23,65.6Zm9.93,0a1.1,1.1,0,0,1-1.1,1.1H56.38a1.1,1.1,0,0,1,0-2.2h5.67A1.1,1.1,0,0,1,63.16,65.6Zm9.93,0A1.1,1.1,0,0,1,72,66.7H66.31a1.1,1.1,0,0,1,0-2.2H72A1.1,1.1,0,0,1,73.09,65.6ZM53.23,71.28a1.1,1.1,0,0,1-1.1,1.1H46.45a1.1,1.1,0,0,1,0-2.2h5.67A1.1,1.1,0,0,1,53.23,71.28Zm9.93,0a1.1,1.1,0,0,1-1.1,1.1H56.38a1.1,1.1,0,0,1,0-2.2h5.67A1.1,1.1,0,0,1,63.16,71.28Zm9.93,0a1.1,1.1,0,0,1-1.1,1.1H66.31a1.1,1.1,0,0,1,0-2.2H72A1.1,1.1,0,0,1,73.09,71.28Zm0,5.67a1.1,1.1,0,0,1-1.1,1.1H66.31a1.1,1.1,0,0,1,0-2.2H72A1.1,1.1,0,0,1,73.09,77Zm-9.93,0a1.1,1.1,0,0,1-1.1,1.1H56.38a1.1,1.1,0,0,1,0-2.2h5.67A1.1,1.1,0,0,1,63.16,77Zm-9.93,0a1.1,1.1,0,0,1-1.1,1.1H46.45a1.1,1.1,0,0,1,0-2.2h5.67A1.1,1.1,0,0,1,53.23,77Z"/></svg>