<svg id="outline" xmlns="http://www.w3.org/2000/svg" viewBox="0 0 100 100"><defs><style>.cls-1{fill:#2892fc;}.cls-2{fill:#1a2530;}</style></defs><title></title><polygon id="_Path_" data-name="&lt;Path&gt;" class="cls-1" points="84.04 16.67 71.28 16.67 71.28 10.99 52.84 10.99 52.84 22.34 71.28 22.34 71.28 28.01 84.04 28.01 79.79 22.34 84.04 16.67"/><path id="_Compound_Path_" data-name="&lt;Compound Path&gt;" class="cls-2" d="M46.09,78.69l.11,0a1.09,1.09,0,0,0,.32-.21L53,72l9.37,5.89A1.1,1.1,0,1,0,63.54,76l-9.6-6V39.36s0-.06,0-.09a8,8,0,0,0,2.85-5.59,1.1,1.1,0,0,0-1.1-1.1H53.94V23.44H70.18V28a1.1,1.1,0,0,0,1.1,1.1H84a1.1,1.1,0,0,0,.88-1.76l-3.76-5,3.76-5A1.1,1.1,0,0,0,84,15.57H72.38V11a1.1,1.1,0,0,0-1.1-1.1H53.94V5.32a1.1,1.1,0,1,0-2.2,0V32.59H25.89c-8.26,0-12.45,3.23-12.45,9.61V55a6.86,6.86,0,0,0,6.77,6.77h.32V85.07H18.79a1.1,1.1,0,0,0-.66.22L6.79,93.8a1.1,1.1,0,1,0,1.32,1.76l11.05-8.29h11a1.11,1.11,0,0,0,.78-.32l6.84-6.84,8.16-1.36ZM72.38,17.77h9.46l-2.94,3.91a1.1,1.1,0,0,0,0,1.32l2.94,3.91H72.38Zm-2.2-5.67v9.15H53.94V12.09Zm-18.44,58L46.84,75V65.46a6.8,6.8,0,0,0-1.49-4.23l-4.92-6.14a3.16,3.16,0,0,1-.69-2v-10l9-1.29a10.51,10.51,0,0,0,2.95-1.05Zm-29-27.91a1.1,1.1,0,0,0-2.2,0V59.54h-.32A4.69,4.69,0,0,1,15.64,55V42.2c0-3.18,1.06-7.41,10.25-7.41H54.4a7.91,7.91,0,0,1-6,4.9L38.5,41.11a1.1,1.1,0,0,0-.94,1.09V53.11a5.37,5.37,0,0,0,1.17,3.35l4.92,6.14a4.59,4.59,0,0,1,1,2.86V76.73l-6.31,1.05V69.72a7,7,0,0,0-1.42-4.15,53.58,53.58,0,0,0-4.57-5.71,1.1,1.1,0,0,0-.78-.32H30.14a1.1,1.1,0,0,0-1.1,1.1V85.07H22.73Zm13.4,36.42-4.89,4.89V61.9a57.65,57.65,0,0,1,3.83,4.88,4.82,4.82,0,0,1,1.06,2.94ZM93.4,89.71a1.1,1.1,0,0,1-1.55.14L83.64,83H78.37a1.1,1.1,0,0,1-.69-.24l-6.26-5L63.6,86.89a1.1,1.1,0,0,1-.83.38H54.65l-8.21,6.84A1.1,1.1,0,0,1,45,92.42l8.51-7.09a1.1,1.1,0,0,1,.7-.25h8l8.18-9.54A1.1,1.1,0,0,1,72,75.38l6.79,5.43H84a1.1,1.1,0,0,1,.7.25l8.51,7.09A1.1,1.1,0,0,1,93.4,89.71Zm-64-59.18a7.56,7.56,0,0,0,7.48-7.79V20.52a7.49,7.49,0,1,0-15,0v2.23A7.56,7.56,0,0,0,29.43,30.53Zm-5.28-10a5.29,5.29,0,1,1,10.57,0v2.23a5.29,5.29,0,1,1-10.57,0ZM78.37,53.23a1.1,1.1,0,0,1-.78-1.88l2.84-2.84A1.1,1.1,0,0,1,82,50.07l-2.84,2.84A1.1,1.1,0,0,1,78.37,53.23Zm6.31-9,2.84-2.84A1.1,1.1,0,0,1,89.08,43l-2.84,2.84a1.1,1.1,0,0,1-1.56-1.56Zm4.39,7.09a1.1,1.1,0,1,1-1.56,1.56l-2.84-2.84a1.1,1.1,0,0,1,1.56-1.56ZM82,45.81a1.1,1.1,0,0,1-1.56,0L77.59,43a1.1,1.1,0,0,1,1.56-1.56L82,44.26A1.1,1.1,0,0,1,82,45.81ZM71.59,66.31V63.16H68.44a1.1,1.1,0,0,1,0-2.2h3.16V57.8a1.1,1.1,0,1,1,2.2,0V61H77a1.1,1.1,0,0,1,0,2.2H73.8v3.16a1.1,1.1,0,1,1-2.2,0Z"/></svg>