<svg id="outline" xmlns="http://www.w3.org/2000/svg" viewBox="0 0 100 100"><defs><style>.cls-1{fill:#2892fc;}.cls-2{fill:#1a2530;}</style></defs><title></title><g id="_Group_" data-name="&lt;Group&gt;"><path id="_Path_" data-name="&lt;Path&gt;" class="cls-1" d="M12.41,18.79h5.67V13.12H9.57A2.84,2.84,0,0,0,6.74,16V78.37a2.84,2.84,0,0,0,2.84,2.84H42.2l4.26-5.67h-34Z"/><path id="_Path_2" data-name="&lt;Path&gt;" class="cls-1" d="M57.8,13.12H49.13l.16,5.67H55V30.14h5.67V16A2.84,2.84,0,0,0,57.8,13.12Z"/></g><path id="_Compound_Path_" data-name="&lt;Compound Path&gt;" class="cls-2" d="M48.19,13.12a1.1,1.1,0,0,1,1.1-1.1H57.8A3.94,3.94,0,0,1,61.74,16V30.14a1.1,1.1,0,1,1-2.2,0V16a1.74,1.74,0,0,0-1.74-1.74H49.29A1.1,1.1,0,0,1,48.19,13.12ZM33.69,9.18a1.1,1.1,0,0,0-1.1,1.1v2.84a1.1,1.1,0,1,0,2.2,0V10.28A1.1,1.1,0,0,0,33.69,9.18Zm15.6,10.71h4.57V30.14a1.1,1.1,0,1,0,2.2,0V18.79a1.1,1.1,0,0,0-1.1-1.1H49.29a1.1,1.1,0,0,0,0,2.2Zm18.44-2.84a1.09,1.09,0,0,0,.78-.32l2.84-2.84a1.1,1.1,0,1,0-1.55-1.56L67,15.18a1.1,1.1,0,0,0,.78,1.88ZM74.82,10a1.09,1.09,0,0,0,.78-.32l2.84-2.84a1.1,1.1,0,0,0-1.55-1.56L74,8.09A1.1,1.1,0,0,0,74.82,10Zm2.06,6.77a1.1,1.1,0,1,0,1.55-1.56L75.6,12.34A1.1,1.1,0,1,0,74,13.9ZM69.79,9.64a1.1,1.1,0,0,0,1.55-1.56L68.51,5.25A1.1,1.1,0,0,0,67,6.81ZM31.43,56.39,25.1,64l-2-2a1.1,1.1,0,1,0-1.55,1.56l2.84,2.84a1.1,1.1,0,0,0,.78.32h0a1.1,1.1,0,0,0,.79-.39l7.09-8.51a1.1,1.1,0,1,0-1.69-1.41Zm51.27-4.33a1.1,1.1,0,0,1,.32.78V57a1.1,1.1,0,0,1-.32.77l-4.26,4.31a1.1,1.1,0,0,1-1.56,0l-3.93-3.93h-2.7v5.54l8.19,8.19a1.1,1.1,0,0,1,0,1.56L74.5,77.41v2.7h.32A3.94,3.94,0,0,1,78.76,84v1.74h.32A3.94,3.94,0,0,1,83,89.72V94a1.1,1.1,0,0,1-1.1,1.1H43.62a1.1,1.1,0,0,1-1.1-1.1V89.72a3.94,3.94,0,0,1,3.94-3.94h.32V84a3.94,3.94,0,0,1,3.94-3.94H51V70.31l-3.93-3.93a1.1,1.1,0,0,1-.32-.78V51.42c0-8.73,5.67-18.12,18.12-18.12a19,19,0,0,1,13.54,6,1.1,1.1,0,0,1,0,1.56L75,44.33Zm-1.88,1.23L72.63,45.1h0l-2-2a1.1,1.1,0,1,1,1.55-1.56l1.19,1.19,2.68-2.68A16.33,16.33,0,0,0,64.89,35.5c-7.67,0-15.92,5-15.92,15.92V65.15l3.93,3.93a1.1,1.1,0,0,1,.32.78V80.11h7.41a1.1,1.1,0,0,1,0,2.2H50.71A1.74,1.74,0,0,0,49,84v1.74h14.5a1.1,1.1,0,0,1,0,2.2h-17a1.74,1.74,0,0,0-1.74,1.74v3.16h36.1V89.72A1.74,1.74,0,0,0,79.08,88H72a1.1,1.1,0,0,1,0-2.2h4.57V84a1.74,1.74,0,0,0-1.74-1.74H69.15a1.1,1.1,0,0,1,0-2.2H72.3V77a1.1,1.1,0,0,1,.32-.78l3.48-3.48L68.37,65a1.1,1.1,0,0,1-.32-.78v-6H66.31c-3.33,0-6.77-2-6.77-5.36V51.42a1.1,1.1,0,1,1,2.2,0v1.42c0,1.95,2.38,3.16,4.57,3.16H73.4a1.1,1.1,0,0,1,.78.32l3.47,3.47,3.16-3.2ZM93.26,21.95H90.11V18.79a1.1,1.1,0,1,0-2.2,0v3.16H84.75a1.1,1.1,0,0,0,0,2.2h3.16V27.3a1.1,1.1,0,1,0,2.2,0V24.15h3.16a1.1,1.1,0,0,0,0-2.2ZM19.82,20.21V16a5.36,5.36,0,0,1,5.35-5.36H27a6.77,6.77,0,0,1,13.37,0H42.2A5.36,5.36,0,0,1,47.55,16v4.26a1.1,1.1,0,0,1-1.1,1.1H20.92A1.1,1.1,0,0,1,19.82,20.21Zm2.2-1.1H45.35V16A3.16,3.16,0,0,0,42.2,12.8H39.36a1.1,1.1,0,0,1-1.1-1.1,4.57,4.57,0,0,0-9.15,0A1.1,1.1,0,0,1,28,12.8H25.18A3.16,3.16,0,0,0,22,16ZM43.3,81.21a1.1,1.1,0,0,0-1.1-1.1H9.57a1.74,1.74,0,0,1-1.74-1.74V16a1.74,1.74,0,0,1,1.74-1.74h8.51a1.1,1.1,0,0,0,0-2.2H9.57A3.94,3.94,0,0,0,5.64,16V78.37a3.94,3.94,0,0,0,3.94,3.94H42.2A1.1,1.1,0,0,0,43.3,81.21ZM18.09,19.89a1.1,1.1,0,0,0,0-2.2H12.41a1.1,1.1,0,0,0-1.1,1.1V75.53a1.1,1.1,0,0,0,1.1,1.1h34a1.1,1.1,0,0,0,0-2.2H13.51V19.89Zm14.89,8a1.1,1.1,0,0,0-1.55.14L25.1,35.6l-2-2a1.1,1.1,0,1,0-1.55,1.56L24.4,38a1.1,1.1,0,0,0,.78.32h0a1.1,1.1,0,0,0,.79-.39l7.09-8.51A1.1,1.1,0,0,0,33,27.88Zm0,14.18a1.1,1.1,0,0,0-1.55.14L25.1,49.79l-2-2a1.1,1.1,0,0,0-1.55,1.56L24.4,52.2a1.1,1.1,0,0,0,.78.32h0a1.1,1.1,0,0,0,.79-.39l7.09-8.51A1.1,1.1,0,0,0,33,42.06Z"/></svg>