<svg id="outline" xmlns="http://www.w3.org/2000/svg" viewBox="0 0 100 100"><defs><style>.cls-1{fill:#2892fc;}.cls-2{fill:#1a2530;}</style></defs><title></title><polygon id="_Path_" data-name="&lt;Path&gt;" class="cls-1" points="50.45 25.65 33.92 32.54 33.92 50.45 50.45 57.33 66.98 50.45 66.98 32.54 50.45 25.65"/><path id="_Compound_Path_" data-name="&lt;Compound Path&gt;" class="cls-2" d="M94,12.73H77a1.1,1.1,0,1,0,0,2.2H92.87V63.79H7.13V14.93H24.79V17H21.63a1.1,1.1,0,1,0,0,2.2h8.51a1.1,1.1,0,1,0,0-2.2H27V12.41a1.74,1.74,0,0,1,1.74-1.74h1.42a1.1,1.1,0,1,0,0-2.2H28.72a3.94,3.94,0,0,0-3.94,3.94v.32H6a1.1,1.1,0,0,0-1.1,1.1V64.89A1.1,1.1,0,0,0,6,66H44.64V84.3l-2.51,2.51a1.1,1.1,0,0,0-.32.78v2.84a1.1,1.1,0,0,0,1.1,1.1H57.09a1.1,1.1,0,0,0,1.1-1.1V87.59a1.1,1.1,0,0,0-.32-.78L55.36,84.3V66H94a1.1,1.1,0,0,0,1.1-1.1V13.83A1.1,1.1,0,0,0,94,12.73ZM56,89.33H44V88l2.19-2.19h7.6L56,88Zm-2.84-5.67H46.84V66h6.31ZM73,12.73v-.32A3.94,3.94,0,0,1,77,8.47h1.42a1.1,1.1,0,0,1,0,2.2H77a1.74,1.74,0,0,0-1.74,1.74V17h3.16a1.1,1.1,0,0,1,0,2.2H69.86a1.1,1.1,0,1,1,0-2.2H73V14.93H52.84a1.1,1.1,0,0,1,0-2.2Zm-24.11,0v-.32a3.94,3.94,0,0,1,3.94-3.94h1.42a1.1,1.1,0,0,1,0,2.2H52.84a1.74,1.74,0,0,0-1.74,1.74V17h3.16a1.1,1.1,0,0,1,0,2.2H45.74a1.1,1.1,0,1,1,0-2.2H48.9V14.93H28.72a1.1,1.1,0,0,1,0-2.2Zm-15.6,38a1.1,1.1,0,0,0,.65,1l15.6,7.09h0a1.07,1.07,0,0,0,.88,0h0l15.6-7.09a1.1,1.1,0,0,0,.65-1V32.25s0,0,0-.06a1.08,1.08,0,0,0-.07-.32s0,0,0-.05l0,0a1.09,1.09,0,0,0-.2-.27l0,0a1.1,1.1,0,0,0-.28-.18l-15.6-7.09a1.1,1.1,0,0,0-.91,0l-15.6,7.09a1.1,1.1,0,0,0-.28.19l0,0a1.09,1.09,0,0,0-.2.27l0,0s0,0,0,.05a1.08,1.08,0,0,0-.07.32s0,0,0,.06V50.71ZM35.5,34l13.4,6.09v16L35.5,50ZM51.1,56.09v-16L64.5,34V50ZM50,26.39l12.94,5.88L50,38.15,37.06,32.27Z"/></svg>