<svg id="outline" xmlns="http://www.w3.org/2000/svg" viewBox="0 0 100 100"><defs><style>.cls-1{fill:#2892fc;}.cls-2{fill:#1a2530;}</style></defs><title></title><path id="_Path_" data-name="&lt;Path&gt;" class="cls-1" d="M76.09,68.79a8.51,8.51,0,1,0-11.45,8H63.32V92.2l4.26-2.84,4.26,2.84V76.77H70.51A8.5,8.5,0,0,0,76.09,68.79Z"/><path id="_Compound_Path_" data-name="&lt;Compound Path&gt;" class="cls-2" d="M84.1,22V81.56a1.1,1.1,0,0,1-1.1,1.1H74.49a1.1,1.1,0,1,1,0-2.2H81.9V22a3.16,3.16,0,0,0-3.16-3.16H39.08A5.31,5.31,0,0,1,40.13,22V80.46H60.31a1.1,1.1,0,1,1,0,2.2H39a1.1,1.1,0,0,1-1.1-1.1V22a3.16,3.16,0,0,0-6.31,0V67.38a5.31,5.31,0,0,1-1.05,3.16H36.2a1.1,1.1,0,1,1,0,2.2H26.27a5.36,5.36,0,0,1-5.36-5.35V12.06a3.16,3.16,0,1,0-6.31,0v3.16h4.57a1.1,1.1,0,0,1,0,2.2H13.5a1.1,1.1,0,0,1-1.1-1.1V12.06A5.36,5.36,0,0,1,17.76,6.7h44a5.36,5.36,0,0,1,5.36,5.36v2.84a1.1,1.1,0,1,1-2.2,0V12.06A3.16,3.16,0,0,0,61.73,8.9H22.06a5.31,5.31,0,0,1,1.05,3.16V67.38a3.16,3.16,0,1,0,6.31,0V22a5.36,5.36,0,0,1,5.36-5.36h44A5.36,5.36,0,0,1,84.1,22ZM72.76,76.78V92.2a1.1,1.1,0,0,1-1.71.92L67.4,90.68l-3.65,2.43A1.1,1.1,0,0,1,62,92.2V76.77h0a9.59,9.59,0,1,1,10.71,0ZM67.4,76.2h0A7.41,7.41,0,1,0,60,68.79,7.36,7.36,0,0,0,67.4,76.2Zm3.15,1.66a9.61,9.61,0,0,1-3.15.54h0a9.55,9.55,0,0,1-3.16-.54V90.14l2.54-1.7a1.1,1.1,0,0,1,1.22,0l2.54,1.7ZM50.38,42.94H71.66a1.1,1.1,0,1,0,0-2.2H50.38a1.1,1.1,0,1,0,0,2.2Zm0,5.67H63.15a1.1,1.1,0,1,0,0-2.2H50.38a1.1,1.1,0,1,0,0,2.2Zm0-11.35H71.66a1.1,1.1,0,1,0,0-2.2H50.38a1.1,1.1,0,1,0,0,2.2ZM13.5,62H10.34V58.87a1.1,1.1,0,0,0-2.2,0V62H5a1.1,1.1,0,1,0,0,2.2H8.14v3.16a1.1,1.1,0,0,0,2.2,0V64.22H13.5a1.1,1.1,0,1,0,0-2.2ZM26.27,83.3H23.11V80.14a1.1,1.1,0,0,0-2.2,0V83.3H17.76a1.1,1.1,0,1,0,0,2.2h3.16v3.16a1.1,1.1,0,0,0,2.2,0V85.5h3.16a1.1,1.1,0,1,0,0-2.2Z"/></svg>