<svg id="outline" xmlns="http://www.w3.org/2000/svg" viewBox="0 0 100 100"><defs><style>.cls-1{fill:#2892fc;}.cls-2{fill:#1a2530;}</style></defs><title></title><g id="_Group_" data-name="&lt;Group&gt;"><g id="_Group_2" data-name="&lt;Group&gt;"><rect id="_Path_" data-name="&lt;Path&gt;" class="cls-1" x="6.79" y="33.37" width="28.08" height="10.03" transform="translate(-21.04 25.97) rotate(-45)"/><line id="_Line_" data-name="&lt;Line&gt;" class="cls-1" x1="27.22" y1="32" x2="24.38" y2="34.84"/></g></g><rect id="_Path_2" data-name="&lt;Path&gt;" class="cls-1" x="74.15" y="23.1" width="10.03" height="28.08" transform="translate(-3.08 66.86) rotate(-45)"/><path id="_Compound_Path_" data-name="&lt;Compound Path&gt;" class="cls-2" d="M23.6,35.62a1.1,1.1,0,0,1,0-1.55l2.84-2.84A1.1,1.1,0,0,1,28,32.78l-2.84,2.84a1.1,1.1,0,0,1-1.56,0Zm17-8.51a1.1,1.1,0,0,0,1.56-1.56l-2.84-2.84a1.1,1.1,0,1,0-1.56,1.56ZM46,23.84a1.1,1.1,0,1,0,2.09-.7L46.7,18.89a1.1,1.1,0,1,0-2.09.7Zm6.37.7a1.1,1.1,0,0,0,1.39-.7l1.42-4.26a1.1,1.1,0,1,0-2.09-.7L51.7,23.14A1.1,1.1,0,0,0,52.4,24.53Zm6,2.89a1.1,1.1,0,0,0,.78-.32L62,24.27a1.1,1.1,0,0,0-1.56-1.56l-2.84,2.84a1.1,1.1,0,0,0,.78,1.88Zm35.32,16.1a1.1,1.1,0,0,1-.32.78L86.33,51.4a1.1,1.1,0,0,1-1.56,0l-.51-.51a1.08,1.08,0,0,1-.23.44c-.26.29-.75,1-1.32,1.81C80.41,56.45,78,59.71,75.58,61a6.29,6.29,0,0,1,0,5.5,7.66,7.66,0,0,1-5.52,4.11,6.77,6.77,0,0,1-2.7,3.9,6.15,6.15,0,0,1-5.56,1,7.88,7.88,0,0,1-3.94,2.83,7.14,7.14,0,0,1-4.53,0,7.59,7.59,0,0,1-5,3.52,5.26,5.26,0,0,1-.66,0,6.23,6.23,0,0,1-4.4-2.09l-3.39-3.4-1.5,1.5a3.93,3.93,0,0,1-5.57,0l-16-16a3.94,3.94,0,0,1,0-5.57l1.86-1.86a10,10,0,0,1-.94-2l-1.12-1.18-1.38,1.38a1.1,1.1,0,0,1-1.56,0L6.58,45.54a1.1,1.1,0,0,1,0-1.55L26.44,24.13a1.13,1.13,0,0,1,1.56,0l7.09,7.09a1.1,1.1,0,0,1,0,1.56l-1.46,1.46,2.64,2.47a56.6,56.6,0,0,1,7.26-2.87c1.38-.46,8.35-2.75,9.87-2.38a33.9,33.9,0,0,1,3.33,1.26c2,.83,6.31,2.59,7.2,2.45a10,10,0,0,0,2.8-1.81l-1.82-1.82a1.1,1.1,0,0,1,0-1.56L72,22.89a1.13,1.13,0,0,1,1.56,0L93.42,42.75A1.1,1.1,0,0,1,93.74,43.53ZM15.82,48.94l0-.06,0,0L32.75,32l-5.54-5.54L8.91,44.77l5.54,5.54ZM39.16,74l.73-.73a1.44,1.44,0,0,0,.4-1.23s0,0,0,0a2.3,2.3,0,0,0-.07-.32s0-.08,0-.12h0a3.24,3.24,0,0,0-.8-1.25,3,3,0,0,0-1.69-.9,1.46,1.46,0,0,0-1.27.4,1.1,1.1,0,1,1-1.56-1.55c.8-.8.34-2.12-.5-3s-2.16-1.3-3-.5a1.1,1.1,0,0,1-1.56-1.56,1.45,1.45,0,0,0,.4-1.27,3,3,0,0,0-.9-1.69c-.84-.84-2.16-1.3-3-.5a1.1,1.1,0,1,1-1.55-1.56,1.45,1.45,0,0,0,.4-1.27,3.29,3.29,0,0,0-2.59-2.59h-.28a1.49,1.49,0,0,0-.48.09l-.09,0a1.39,1.39,0,0,0-.42.28l-3,3a1.74,1.74,0,0,0,0,2.46l16,16h0a1.78,1.78,0,0,0,2.46,0Zm34.28-12.4a3.19,3.19,0,0,1-1.14-.22l-.19-.09a3.2,3.2,0,0,1-.33-.17,3.57,3.57,0,0,1-.49-.37c-3.17-2.8-8.83-8.6-13-12.83-1.44-1.47-2.66-2.72-3.47-3.54s-4.06-.25-6.76.32l-.9.19-.72.15c-1.06.23-2.12.44-3.11.58l-.45.07H42.8a8,8,0,0,1-3.09-.28,10,10,0,0,1-5-3.3l0,0L34.59,42l-.23-.32a5.43,5.43,0,0,1-.34-.6v0a4.19,4.19,0,0,1-.21-.53c0-.11-.05-.21-.07-.31s0-.13,0-.19A2.45,2.45,0,0,1,34,38.35a1.94,1.94,0,0,1,.27-.32l.09-.1-2.28-2.13L18.16,49.7l1.34,1.4a1.1,1.1,0,0,1,.26.45,6.76,6.76,0,0,0,.55,1.29l.1-.06.23-.13a3.51,3.51,0,0,1,.47-.22l.25-.08a3.65,3.65,0,0,1,.54-.11l.22,0a4,4,0,0,1,.81,0,5.47,5.47,0,0,1,4.5,4.5,4.24,4.24,0,0,1,0,.48,5,5,0,0,1,3.45,1.56,5.18,5.18,0,0,1,1.53,3,4.24,4.24,0,0,1,0,.48,5.37,5.37,0,0,1,5,5l.48,0a5.47,5.47,0,0,1,4.5,4.5c0,.08,0,.16,0,.24a4,4,0,0,1,0,.62c0,.12,0,.23-.07.35a3.67,3.67,0,0,1-.1.47,35.57,35.57,0,0,1-.34.74,1581.75,1581.75,0,0,0-.49.63l3.39,3.4a3.92,3.92,0,0,0,3.22,1.42,5.51,5.51,0,0,0,3.45-2.56l-6-6a1.1,1.1,0,1,1,1.56-1.55L53.58,76a4.87,4.87,0,0,0,3.65.23A5.72,5.72,0,0,0,60,74.29l-9-9a1.1,1.1,0,0,1,1.56-1.56L62,73.2a3.93,3.93,0,0,0,4.1-.45A4.42,4.42,0,0,0,68,70.12l-11-11a1.1,1.1,0,1,1,1.56-1.55L69.45,68.51a5.44,5.44,0,0,0,4.18-2.92A4.15,4.15,0,0,0,73.44,61.63Zm9.49-12.08L68.3,34.92c-1,.88-2.83,2.24-4,2.42S60,36.4,55.9,34.75c-1.33-.54-2.58-1-3-1.16-2.24-.15-13.39,3.82-16.34,5.47a4.16,4.16,0,0,0-.63.42l0,0h0a1.33,1.33,0,0,0,.23.74c0,.07.07.14.12.22a7.44,7.44,0,0,0,6.42,3.06c1.23-.16,2.62-.46,4.1-.77l.6-.13c3.83-.82,7.38-1.48,9.08.22.82.82,2,2.07,3.49,3.55,4.11,4.21,9.73,10,12.84,12.72a1.33,1.33,0,0,0,.22.16l.07,0,.17.07h.06l.21,0h0l.25,0C76,59,79.29,54.21,80.9,51.89a24.21,24.21,0,0,1,1.5-2A1.07,1.07,0,0,1,82.93,49.55Zm8.16-6-18.3-18.3-5.54,5.54,18.3,18.3ZM71.83,31.22a1.1,1.1,0,0,0,0,1.55l2.84,2.84a1.1,1.1,0,1,0,1.56-1.55l-2.84-2.84A1.1,1.1,0,0,0,71.83,31.22Z"/></svg>