<svg id="outline" xmlns="http://www.w3.org/2000/svg" viewBox="0 0 100 100"><defs><style>.cls-1{fill:#2892fc;}.cls-2{fill:#1a2530;}</style></defs><title></title><path id="_Path_" data-name="&lt;Path&gt;" class="cls-1" d="M43.43,9.73c-7.72,0-14.18,7.09-14.18,14.18-7.09,0-12.77,5.67-12.22,14.35-7.64,2.67-7.64,16.85-.91,22.26-2.48,7.36,2.49,19.75,14.54,18.7,0,14.18,22.69,14.22,22.7,2.84v-61C53.36,17.41,53.12,9.73,43.43,9.73Z"/><path id="_Compound_Path_" data-name="&lt;Compound Path&gt;" class="cls-2" d="M54.46,73.56v8.51c0,4.48-3.6,9.3-11.49,9.3h0c-6.33,0-12.73-3.77-13.35-11A14,14,0,0,1,18,75,16.92,16.92,0,0,1,14.86,60.9c-3.65-3.36-5.5-9.43-4.53-15.07.68-4,2.69-6.94,5.57-8.28a14.87,14.87,0,0,1,3.77-10.67,12.88,12.88,0,0,1,8.52-4c.61-7.57,7.6-14.22,15.24-14.22h0c4.62,0,7.84,1.64,9.57,4.88a16.24,16.24,0,0,1,1.46,7.57,1.1,1.1,0,0,1-2.2,0,14.09,14.09,0,0,0-1.2-6.53c-1.34-2.5-3.83-3.72-7.63-3.72h0A13.6,13.6,0,0,0,30.35,23.92c0,8.68,5.46,9.37,12.59,9.37a1.1,1.1,0,0,1,0,2.2c-5.69,0-14.18,0-14.76-10.42a10.69,10.69,0,0,0-6.91,3.31,12.92,12.92,0,0,0-3.14,9.82,1.1,1.1,0,0,1-.73,1.11c-2.51.88-4.29,3.39-4.9,6.89-.88,5.1.94,10.76,4.31,13.48a1.1,1.1,0,0,1,.35,1.21c-1.32,3.92-.28,9.16,2.54,12.75a11.73,11.73,0,0,0,9.89,4.56,25.4,25.4,0,0,1,2.62-10c-2.91-1.09-5.29-3.88-5.29-6.51a1.1,1.1,0,1,1,2.2,0c0,1.63,1.89,3.87,4.23,4.56a13.28,13.28,0,0,1,11.42-6.35,1.1,1.1,0,0,1,0,2.2c-9.48,0-13,10.54-13,17.18,0,6.83,5.81,9.93,11.2,9.94,4.48,0,9.29-2.22,9.29-7.1V73.56a1.1,1.1,0,1,1,2.2,0Zm22-35.14a6.77,6.77,0,1,1,0,2.2H49.1c-1.63,0-4.48,3-6.18,4.79l-.27.28a11,11,0,0,1-7.83,3.19,9.45,9.45,0,0,1-3.17-.54,7.27,7.27,0,0,1-4.48,5.58,1.1,1.1,0,0,1-.73-2.07,5.17,5.17,0,0,0,3.14-4.78,4.46,4.46,0,0,0-4.71-4.38,1.1,1.1,0,1,1,0-2.2A6.64,6.64,0,0,1,31.7,46c2.71,1.44,7,.64,9.37-1.81l.27-.28c2.31-2.44,5.19-5.47,7.77-5.47h3.16V29.59a1.1,1.1,0,0,1,2.2,0v8.83Zm2.1,1.1a4.57,4.57,0,1,0,4.57-4.57A4.58,4.58,0,0,0,78.57,39.52ZM63.7,24.23a6.77,6.77,0,1,1,0,2.2H53.36c-4.82,0-10-.68-12.06-5.74a1.1,1.1,0,1,1,2-.83c1.47,3.62,5.07,4.37,10,4.37Zm2.1,1.1a4.57,4.57,0,1,0,4.57-4.57A4.58,4.58,0,0,0,65.81,25.33ZM77.16,83.49a6.77,6.77,0,0,1-13.45,1.1H57.62a1.1,1.1,0,1,1,0-2.2H63.7a6.77,6.77,0,0,1,13.45,1.1Zm-2.2,0a4.57,4.57,0,1,0-4.57,4.57A4.58,4.58,0,0,0,75,83.49Zm15-14.18a6.77,6.77,0,0,1-13.45,1.1H54c-4.82,0-7.19,1-8.2,3.33a1.1,1.1,0,0,1-2-.86c1.51-3.53,5-4.43,8.49-4.62V43.77a1.1,1.1,0,0,1,2.2,0V54H63.7a6.77,6.77,0,1,1,0,2.2H54.46v12h22a6.77,6.77,0,0,1,13.45,1.1ZM65.81,55.12a4.57,4.57,0,1,0,4.57-4.57A4.58,4.58,0,0,0,65.81,55.12ZM87.72,69.31a4.57,4.57,0,1,0-4.57,4.57A4.58,4.58,0,0,0,87.72,69.31Z"/></svg>