<svg id="outline" xmlns="http://www.w3.org/2000/svg" viewBox="0 0 100 100"><defs><style>.cls-1{fill:#2892fc;}.cls-2{fill:#1a2530;}</style></defs><title></title><path id="_Path_" data-name="&lt;Path&gt;" class="cls-1" d="M87.73,79.88,70.67,62.82,65.78,68,82.72,84.89a2.75,2.75,0,0,0,3.88-.13l1-1A2.75,2.75,0,0,0,87.73,79.88Z"/><path id="_Path_2" data-name="&lt;Path&gt;" class="cls-1" d="M72.7,22.34V15.25a1.42,1.42,0,0,0-1.42-1.42h-61a1.42,1.42,0,0,0-1.42,1.42v7.09Z"/><path id="_Compound_Path_" data-name="&lt;Compound Path&gt;" class="cls-2" d="M73.79,81.92v2.84a2.52,2.52,0,0,1-2.52,2.52h-61a2.52,2.52,0,0,1-2.52-2.52V15.25a2.52,2.52,0,0,1,2.52-2.52h61a2.52,2.52,0,0,1,2.52,2.52V33.69a1.1,1.1,0,1,1-2.2,0V15.25a.32.32,0,0,0-.32-.32h-61a.32.32,0,0,0-.32.32v69.5a.32.32,0,0,0,.32.32h61a.32.32,0,0,0,.32-.32V81.92a1.1,1.1,0,1,1,2.2,0ZM71,22.34a1.1,1.1,0,0,0-1.1-1.1H11.7a1.1,1.1,0,0,0,0,2.2H69.86A1.1,1.1,0,0,0,71,22.34ZM16,19.18A1.1,1.1,0,0,0,16,17H13.12a1.1,1.1,0,0,0,0,2.2Zm5.67,0a1.1,1.1,0,0,0,0-2.2H18.79a1.1,1.1,0,0,0,0,2.2Zm5.67,0a1.1,1.1,0,0,0,0-2.2H24.47a1.1,1.1,0,0,0,0,2.2ZM88.51,79.1a3.65,3.65,0,0,1,1.06,2.73,4,4,0,0,1-1.19,2.71l-1,1a4,4,0,0,1-2.84,1.19,3.66,3.66,0,0,1-2.6-1.06L65.65,69.38a21.68,21.68,0,1,1,6.42-6.73Zm-35-8.21A19.47,19.47,0,1,0,34.08,51.42,19.49,19.49,0,0,0,53.55,70.89ZM87.37,81.76a1.47,1.47,0,0,0-.42-1.1L70.8,64.5A21.85,21.85,0,0,1,67.42,68L83.49,84.12A1.66,1.66,0,0,0,85.82,84l1-1A1.82,1.82,0,0,0,87.37,81.76ZM54.26,52.45a1.1,1.1,0,0,0-1.1,1.1v5.67a1.1,1.1,0,1,0,2.2,0V53.55A1.1,1.1,0,0,0,54.26,52.45ZM26.2,47.87V59.22a1.1,1.1,0,1,0,2.2,0V47.87a1.1,1.1,0,1,0-2.2,0Zm-5.67,4.26v7.09a1.1,1.1,0,1,0,2.2,0V52.13a1.1,1.1,0,1,0-2.2,0Zm-5.67-8.51v15.6a1.1,1.1,0,1,0,2.2,0V43.62a1.1,1.1,0,1,0-2.2,0ZM65.6,51a1.1,1.1,0,0,0-1.1,1.1v7.09a1.1,1.1,0,1,0,2.2,0V52.13A1.1,1.1,0,0,0,65.6,51Zm-5.67-8.51a1.1,1.1,0,0,0-1.1,1.1v15.6a1.1,1.1,0,1,0,2.2,0V43.62A1.1,1.1,0,0,0,59.93,42.52Zm31.21,4.26a1.1,1.1,0,0,0-1.1,1.1V59.22a1.1,1.1,0,1,0,2.2,0V47.87A1.1,1.1,0,0,0,91.13,46.77ZM85.46,60.32a1.1,1.1,0,0,0,1.1-1.1V52.13a1.1,1.1,0,1,0-2.2,0v7.09A1.1,1.1,0,0,0,85.46,60.32Zm-5.67,0a1.1,1.1,0,0,0,1.1-1.1V43.62a1.1,1.1,0,1,0-2.2,0v15.6A1.1,1.1,0,0,0,79.79,60.32ZM48.58,42.52a1.1,1.1,0,0,0-1.1,1.1v15.6a1.1,1.1,0,1,0,2.2,0V43.62A1.1,1.1,0,0,0,48.58,42.52Zm-5.67,4.26a1.1,1.1,0,0,0-1.1,1.1V59.22a1.1,1.1,0,1,0,2.2,0V47.87A1.1,1.1,0,0,0,42.91,46.77Z"/></svg>