<svg id="outline" xmlns="http://www.w3.org/2000/svg" viewBox="0 0 100 100"><defs><style>.cls-1{fill:#2892fc;}.cls-2{fill:#1a2530;}</style></defs><title></title><polygon id="_Path_" data-name="&lt;Path&gt;" class="cls-1" points="52.13 65.48 40.78 75.41 25.18 68.02 25.18 81.09 52.13 95.27 79.08 82.51 79.08 68.02 63.48 75.41 52.13 65.48"/><path id="_Compound_Path_" data-name="&lt;Compound Path&gt;" class="cls-2" d="M79.08,10.08h2.84a1.09,1.09,0,0,0,.4-.08,1.09,1.09,0,0,0-.08.4v2.84a1.1,1.1,0,1,0,2.2,0V10.4a1.09,1.09,0,0,0-.08-.4,1.09,1.09,0,0,0,.4.08h2.84a1.1,1.1,0,1,0,0-2.2H84.75a1.09,1.09,0,0,0-.4.08,1.09,1.09,0,0,0,.08-.4V4.73a1.1,1.1,0,1,0-2.2,0V7.56a1.09,1.09,0,0,0,.08.4,1.09,1.09,0,0,0-.4-.08H79.08a1.1,1.1,0,0,0,0,2.2Zm4.65-1.5a1,1,0,0,0,0,.8,1,1,0,0,0-.8,0,1,1,0,0,0,0-.8,1,1,0,0,0,.8,0Zm-69.9,10a1.1,1.1,0,0,0,0-2.2H11a1.09,1.09,0,0,0-.4.08,1.09,1.09,0,0,0,.08-.4V13.24a1.1,1.1,0,0,0-2.2,0v2.84a1.09,1.09,0,0,0,.08.4,1.09,1.09,0,0,0-.4-.08H5.32a1.1,1.1,0,1,0,0,2.2H8.16a1.09,1.09,0,0,0,.4-.08,1.09,1.09,0,0,0-.08.4v2.84a1.1,1.1,0,1,0,2.2,0V18.91a1.09,1.09,0,0,0-.08-.4,1.09,1.09,0,0,0,.4.08Zm-4.65-.7a1,1,0,0,0,0-.8,1,1,0,0,0,.8,0,1,1,0,0,0,0,.8,1,1,0,0,0-.8,0Zm85.51,5.59H91.84a1.09,1.09,0,0,0-.4.08,1.09,1.09,0,0,0,.08-.4V20.33a1.1,1.1,0,1,0-2.2,0v2.84a1.09,1.09,0,0,0,.08.4,1.09,1.09,0,0,0-.4-.08H86.17a1.1,1.1,0,1,0,0,2.2H89a1.09,1.09,0,0,0,.4-.08,1.09,1.09,0,0,0-.08.4v2.84a1.1,1.1,0,0,0,2.2,0V26a1.09,1.09,0,0,0-.08-.4,1.09,1.09,0,0,0,.4.08h2.84a1.1,1.1,0,0,0,0-2.2ZM90,25a1,1,0,0,0,0-.8,1,1,0,0,0,.8,0,1,1,0,0,0,0,.8,1,1,0,0,0-.8,0Zm.87,14.21L80.1,34.08a1.1,1.1,0,1,0-.94,2l10.16,4.81v.22L78.9,50.23l-7.15-3.39a1.1,1.1,0,0,0-.94,2l5.7,2.7L52.13,63.09,26.28,50.84V20.33A.32.32,0,0,1,26.6,20h38.3a.32.32,0,0,1,.32.32V45.86a1.1,1.1,0,1,0,2.2,0V20.33a2.52,2.52,0,0,0-2.52-2.52H26.6a2.52,2.52,0,0,0-2.52,2.52V49.11l-9.15-8v-.22l5.82-2.76a1.1,1.1,0,1,0-.94-2l-6.45,3.06a1.1,1.1,0,0,0-.63,1v1.42a1.1,1.1,0,0,0,.38.83l10.4,9.1-10.4,9.1a1.1,1.1,0,0,0-.38.83v1.42a1.1,1.1,0,0,0,.63,1L24.08,69V81.32a1.1,1.1,0,0,0,.63,1l27,12.77h0a1.05,1.05,0,0,0,.9,0h0l27-12.77a1.1,1.1,0,0,0,.63-1V69L90.9,63.88a1.1,1.1,0,0,0,.63-1V61.47a1.1,1.1,0,0,0-.38-.83l-10.4-9.1,10.4-9.1a1.1,1.1,0,0,0,.38-.83V40.19A1.1,1.1,0,0,0,90.9,39.19ZM14.93,62l10.43-9.12L51,65v.22L40.6,74.35,14.93,62.19Zm11.35,8,14,6.65a1.1,1.1,0,0,0,1.19-.17L51,68.14V92.35L26.28,80.63ZM78,80.63,53.23,92.35V68.14l9.52,8.33a1.1,1.1,0,0,0,1.19.17L78,70ZM89.33,62.19,63.66,74.35,53.23,65.22V65L78.9,52.84,89.33,62ZM31.17,16.08V13.24a2.52,2.52,0,0,1,2.52-2.52H72a2.52,2.52,0,0,1,2.52,2.52v15.6a1.1,1.1,0,0,1-2.2,0V13.24a.32.32,0,0,0-.32-.32H33.69a.32.32,0,0,0-.32.32v2.84a1.1,1.1,0,0,1-2.2,0ZM28,26.32H63.48a1.1,1.1,0,1,1,0,2.2H28a1.1,1.1,0,1,1,0-2.2Zm1.42-2.06a1.1,1.1,0,1,1,0-2.2h2.84a1.1,1.1,0,1,1,0,2.2Zm5.67,0a1.1,1.1,0,0,1,0-2.2h2.84a1.1,1.1,0,0,1,0,2.2Zm5.67,0a1.1,1.1,0,1,1,0-2.2h2.84a1.1,1.1,0,1,1,0,2.2ZM67.41,48.7v2.84a1.1,1.1,0,0,1-2.2,0V48.7a1.1,1.1,0,0,1,2.2,0ZM74.5,37.35v2.84a1.1,1.1,0,0,1-2.2,0V37.35a1.1,1.1,0,1,1,2.2,0Zm0-2.84a1.1,1.1,0,1,1-2.2,0V31.68a1.1,1.1,0,1,1,2.2,0Z"/></svg>