<svg id="outline" xmlns="http://www.w3.org/2000/svg" viewBox="0 0 100 100"><defs><style>.cls-1{fill:#2892fc;}.cls-2{fill:#1a2530;}</style></defs><title></title><path id="_Path_" data-name="&lt;Path&gt;" class="cls-1" d="M70.2,8.86l7.52,7.52A4.7,4.7,0,0,1,79,12.62a5.32,5.32,0,0,1,7.52,7.52,4.79,4.79,0,0,1-3.76,1.25l7.52,7.52-7.52,7.52c2.17-.06,4.1.7,4.89,3.2a5.52,5.52,0,0,1-1.2,5.64A5.32,5.32,0,0,1,79,45.2a4.49,4.49,0,0,1-1.25-3.76L70.2,49l-7.52-7.52a4.79,4.79,0,0,0,3.76-1.25,5.32,5.32,0,1,0-7.52-7.52,4.7,4.7,0,0,0-1.25,3.76l-7.52-7.52Z"/><path id="_Compound_Path_" data-name="&lt;Compound Path&gt;" class="cls-2" d="M66.49,60.25H55.82a1.1,1.1,0,0,0-.75,1.91,4,4,0,0,1,1.42,2.74A4.22,4.22,0,0,1,51.41,69a4.31,4.31,0,0,1-3.32-3.73c-.1-.83.06-1.07.61-1.85a15.22,15.22,0,0,0,1-1.57,1.1,1.1,0,0,0-1-1.63H39.2V52.68a5.53,5.53,0,0,0,2.44.57A6.45,6.45,0,0,0,48.06,47a6.64,6.64,0,0,0-3.73-5.83A5.28,5.28,0,0,0,39.22,41V33a1.1,1.1,0,0,0-1.1-1.1H29.75a5.26,5.26,0,0,0,.6-2.4,6.42,6.42,0,1,0-12.83,0,5.38,5.38,0,0,0,.59,2.4H9.75A1.1,1.1,0,0,0,8.65,33V91.14a1.1,1.1,0,0,0,1.1,1.1H66.49a1.1,1.1,0,0,0,1.1-1.1V61.35A1.1,1.1,0,0,0,66.49,60.25ZM20.38,34.09a1.1,1.1,0,0,0,.68-2,3.51,3.51,0,0,1-1.35-2.63,4.22,4.22,0,0,1,8.43,0,3.6,3.6,0,0,1-1.38,2.66,1.1,1.1,0,0,0,.71,1.94H37v9.2a1.1,1.1,0,0,0,1.9.76c1.43-1.51,2.79-1.81,4.4-1a4.43,4.43,0,0,1,2.55,3.84,4.24,4.24,0,0,1-4.22,4.14A3.4,3.4,0,0,1,39,49.72a1.1,1.1,0,0,0-2,.66v9.87H29.73a5.4,5.4,0,0,0,.61-2.44,6.42,6.42,0,0,0-12.83,0,5.52,5.52,0,0,0,.61,2.44H10.85V34.09ZM10.85,62.45h9.53a1.1,1.1,0,0,0,.68-2,3.6,3.6,0,0,1-1.35-2.68,4.22,4.22,0,0,1,8.43,0,3.69,3.69,0,0,1-1.38,2.7,1.1,1.1,0,0,0,.71,1.94H37v6.92a5.65,5.65,0,0,0-2.44-.59,6.42,6.42,0,1,0,0,12.83A5.66,5.66,0,0,0,37,81v9H10.85ZM65.39,90H39.22V78.73a1.1,1.1,0,0,0-2-.64,3.68,3.68,0,0,1-2.65,1.31,4.22,4.22,0,1,1,0-8.43,3.59,3.59,0,0,1,2.64,1.3,1.1,1.1,0,0,0,2-.63v-9.2h7.5a4,4,0,0,0-.81,3.12A6.53,6.53,0,0,0,51,71.18a6.42,6.42,0,0,0,7.71-6.29,5.27,5.27,0,0,0-.64-2.44h7.34ZM91,28.14l-5.92-5.92a5.4,5.4,0,0,0,2.16-1.3,6.42,6.42,0,1,0-9.07-9.07A5.52,5.52,0,0,0,76.89,14L71,8.09a1.13,1.13,0,0,0-1.56,0l-20,20a1.1,1.1,0,0,0,0,1.56l7.52,7.52a1.1,1.1,0,0,0,1.87-.91,3.6,3.6,0,0,1,.94-2.85,4.22,4.22,0,1,1,6,6,3.68,3.68,0,0,1-2.88.94,1.1,1.1,0,0,0-.87,1.87l7.52,7.52a1.1,1.1,0,0,0,1.56,0l5.89-5.89A5.54,5.54,0,0,0,78.19,46a6.45,6.45,0,0,0,9,.08,6.64,6.64,0,0,0,1.49-6.76,5.24,5.24,0,0,0-3.57-3.68L91,29.69A1.1,1.1,0,0,0,91,28.14ZM82,35.65a1.1,1.1,0,0,0-.23,1.21,1.07,1.07,0,0,0,1,.67c2.08-.06,3.27.72,3.81,2.43a4.43,4.43,0,0,1-.92,4.52,4.24,4.24,0,0,1-5.9-.06,3.4,3.4,0,0,1-.94-2.83,1.1,1.1,0,0,0-1.87-.93L70.2,47.41l-5.14-5.14A5.4,5.4,0,0,0,67.22,41a6.42,6.42,0,1,0-9.07-9.07,5.51,5.51,0,0,0-1.3,2.16l-5.14-5.14L70.2,10.42l6.74,6.74a1.1,1.1,0,0,0,1.87-.91,3.6,3.6,0,0,1,.94-2.85,4.22,4.22,0,1,1,6,6,3.69,3.69,0,0,1-2.88.94A1.1,1.1,0,0,0,82,22.17l6.74,6.74Z"/></svg>