<svg id="outline" xmlns="http://www.w3.org/2000/svg" viewBox="0 0 100 100"><defs><style>.cls-1{fill:#2892fc;}.cls-2{fill:#1a2530;}</style></defs><title></title><path id="_Path_" data-name="&lt;Path&gt;" class="cls-1" d="M48.41,6.74c2.34,0,7.09,6.51,7.09,15.6v15.6L62.59,45l-1.42,5.67-7.61-3.47L48.41,55l-5.15-7.73-7.61,3.47L34.22,45l7.09-7.09V22.34C41.32,13.25,46.07,6.74,48.41,6.74Z"/><path id="_Compound_Path_" data-name="&lt;Compound Path&gt;" class="cls-2" d="M34.57,51a1.1,1.1,0,0,0,1.52.73l6.76-3.08,4.63,6.95a1.1,1.1,0,0,0,1.83,0L54,48.63l6.76,3.08A1.1,1.1,0,0,0,62.24,51l1.42-5.67a1.1,1.1,0,0,0-.29-1L56.6,37.49V22.34c0-9.53-5-16.7-8.19-16.7s-8.19,7.17-8.19,16.7V37.49l-6.77,6.77a1.1,1.1,0,0,0-.29,1Zm7.52-12.25a1.1,1.1,0,0,0,.32-.78V22.34c0-9.05,4.75-14.5,6-14.5s6,5.45,6,14.5v15.6a1.1,1.1,0,0,0,.32.78l6.65,6.65-.95,3.79L54,46.24a1.1,1.1,0,0,0-1.37.39L48.41,53l-4.24-6.35a1.1,1.1,0,0,0-1.37-.39l-6.41,2.92-.95-3.79Zm5.21-9.29V25.18a1.1,1.1,0,1,1,2.2,0v4.26a1.1,1.1,0,1,1-2.2,0Zm39,64.17a1.1,1.1,0,1,1-2.09-.68,6.09,6.09,0,0,0-4.17-8,11.44,11.44,0,0,1-4.38,4.49,1.1,1.1,0,1,1-1.09-1.91,9.2,9.2,0,0,0,3.84-4.26l0,0a9,9,0,0,0,.67-3.41,9.3,9.3,0,0,0-9.36-9.21,9.47,9.47,0,0,0-4.52,1.15h0a9.05,9.05,0,0,0-4.7,7.9,1.1,1.1,0,1,1-2.2,0,11.22,11.22,0,0,1,5.24-9.45,6.64,6.64,0,0,0-2.33-3.81,7.42,7.42,0,0,0-5.54-1.84,1.09,1.09,0,0,1-.86-.27,1.1,1.1,0,0,1-.37-.82V53.55a1.1,1.1,0,0,1,2.2,0v8.78a9.76,9.76,0,0,1,6,2.4,9.07,9.07,0,0,1,2.93,4.45,11.7,11.7,0,0,1,4.19-.78A11.5,11.5,0,0,1,81.27,79.82a11.2,11.2,0,0,1-.42,3.06,8.46,8.46,0,0,1,4.57,3.44A8.37,8.37,0,0,1,86.27,93.6Zm-55.87-22a10.45,10.45,0,0,1,5.72,4.32,1.1,1.1,0,1,1-1.85,1.19A8.24,8.24,0,0,0,29,73.48h0a8.52,8.52,0,0,0-1.67-.17A8.24,8.24,0,0,0,19,81.48,8,8,0,0,0,20,85.19a1.14,1.14,0,0,1-.4,1.5c-2.72,1.58-4.1,3.79-4.1,6.57a1.1,1.1,0,0,1-2.2,0,9.32,9.32,0,0,1,4.33-7.93,10.12,10.12,0,0,1-.76-3.85,10.45,10.45,0,0,1,10.5-10.37c.3,0,.6,0,.89,0a10.18,10.18,0,0,1,4.85-6.45,9.38,9.38,0,0,1,7.13-1.38V53.55a1.1,1.1,0,0,1,2.2,0V64.89a1.1,1.1,0,0,1-1.6,1c-1.9-1-4.3-.71-6.58.7A8,8,0,0,0,30.4,71.57ZM54.66,84.06a1.1,1.1,0,0,1-1.1,1.1,8.18,8.18,0,0,0-8.23,8.1,1.1,1.1,0,0,1-2.2,0,10.18,10.18,0,0,1,2.54-6.72,4.72,4.72,0,0,0-5.13-2.38A1.1,1.1,0,1,1,40,82a6.92,6.92,0,0,1,7.38,3,10.45,10.45,0,0,1,6.22-2h0A1.1,1.1,0,0,1,54.66,84.06ZM21.78,53.55V37.94a1.1,1.1,0,1,1,2.2,0v15.6a1.1,1.1,0,1,1-2.2,0Zm0,5.67V56.38a1.1,1.1,0,1,1,2.2,0v2.84a1.1,1.1,0,0,1-2.2,0ZM68.58,46.45V30.85a1.1,1.1,0,0,1,2.2,0v15.6a1.1,1.1,0,0,1-2.2,0Zm0,5.67V49.29a1.1,1.1,0,1,1,2.2,0v2.84a1.1,1.1,0,1,1-2.2,0Zm5.67,4.26V40.78a1.1,1.1,0,0,1,2.2,0v15.6a1.1,1.1,0,0,1-2.2,0Zm0,5.67V59.22a1.1,1.1,0,1,1,2.2,0v2.84a1.1,1.1,0,1,1-2.2,0Z"/></svg>