<svg id="outline" xmlns="http://www.w3.org/2000/svg" viewBox="0 0 100 100"><defs><style>.cls-1{fill:#2892fc;}.cls-2{fill:#1a2530;}</style></defs><title></title><rect id="_Rectangle_" data-name="&lt;Rectangle&gt;" class="cls-1" x="17.38" y="23.05" width="12.77" height="62.41"/><rect id="_Rectangle_2" data-name="&lt;Rectangle&gt;" class="cls-1" x="54.26" y="42.91" width="12.77" height="42.55"/><path id="_Compound_Path_" data-name="&lt;Compound Path&gt;" class="cls-2" d="M58.83,25.89a1.1,1.1,0,0,1,1.1-1.1h3.16V21.63a1.1,1.1,0,1,1,2.2,0v3.16h3.16a1.1,1.1,0,0,1,0,2.2H65.28v3.15a1.1,1.1,0,0,1-2.2,0V27H59.93A1.1,1.1,0,0,1,58.83,25.89Zm21,3.94h3.16V33a1.1,1.1,0,1,0,2.2,0V29.82H88.3a1.1,1.1,0,0,0,0-2.2H85.14V24.47a1.1,1.1,0,0,0-2.2,0v3.15H79.79a1.1,1.1,0,1,0,0,2.2ZM68.44,14.22h3.16v3.16a1.1,1.1,0,0,0,2.2,0V14.22H77A1.1,1.1,0,0,0,77,12H73.8V8.87a1.1,1.1,0,1,0-2.2,0V12H68.44a1.1,1.1,0,1,0,0,2.2ZM89.72,90H82.62a1.1,1.1,0,0,0,0,2.2h7.09a1.1,1.1,0,0,0,0-2.2Zm5.67,0H92.55a1.1,1.1,0,1,0,0,2.2h2.84a1.1,1.1,0,1,0,0-2.2ZM7.45,90H4.61a1.1,1.1,0,0,0,0,2.2H7.45a1.1,1.1,0,0,0,0-2.2Zm45.71-4.57V42.91a1.1,1.1,0,0,1,1.1-1.1H67a1.1,1.1,0,0,1,1.1,1.1V85.46a1.1,1.1,0,0,1-1.1,1.1H54.26A1.1,1.1,0,0,1,53.16,85.46Zm2.2-1.1H65.92V44H55.36Zm-39.08,1.1V23a1.1,1.1,0,0,1,1.1-1.1H30.14a1.1,1.1,0,0,1,1.1,1.1V85.46a1.1,1.1,0,0,1-1.1,1.1H17.38A1.1,1.1,0,0,1,16.28,85.46Zm2.2-1.1H29V24.15H18.48Zm16.24,1.1V55.67a1.1,1.1,0,0,1,1.1-1.1H48.58a1.1,1.1,0,0,1,1.1,1.1V85.46a1.1,1.1,0,0,1-1.1,1.1H35.82A1.1,1.1,0,0,1,34.72,85.46Zm2.2-1.1H47.48V56.77H36.92ZM85.46,60.25a1.1,1.1,0,0,1,1.1,1.1V85.46a1.1,1.1,0,0,1-1.1,1.1H72.7a1.1,1.1,0,0,1-1.1-1.1V61.35a1.1,1.1,0,0,1,1.1-1.1Zm-1.1,2.2H73.8V84.36H84.36ZM79.79,90H10.28a1.1,1.1,0,0,0,0,2.2h69.5a1.1,1.1,0,0,0,0-2.2Z"/></svg>