<svg id="outline" xmlns="http://www.w3.org/2000/svg" viewBox="0 0 100 100"><defs><style>.cls-1{fill:#2892fc;}.cls-2{fill:#1a2530;}</style></defs><title></title><path id="_Path_" data-name="&lt;Path&gt;" class="cls-1" d="M81.34,74.74,63.87,57.27l-4.48,4L77.09,79c1.11,1.11,2.68,1.33,3.51.5l1.25-1.25C82.68,77.42,82.45,75.84,81.34,74.74Z"/><path id="_Compound_Path_" data-name="&lt;Compound Path&gt;" class="cls-2" d="M65.31,57.15a18.78,18.78,0,1,0-6.1,5.51l17.1,17.12a4.3,4.3,0,0,0,3,1.33,2.89,2.89,0,0,0,2.08-.83L82.62,79c1.28-1.28,1.06-3.5-.5-5.07ZM33.45,46.31A16.57,16.57,0,1,1,50,62.88,16.59,16.59,0,0,1,33.45,46.31ZM81.07,77.47l-1.25,1.25c-.34.34-1.25.2-2-.5L61.09,61.43a18.89,18.89,0,0,0,2.83-2.56L80.56,75.51C81.27,76.22,81.41,77.13,81.07,77.47ZM47.86,38.76H43.63a2.52,2.52,0,0,0-2.52,2.52v9.93a2.52,2.52,0,0,0,2.52,2.52h4.22a2.52,2.52,0,0,0,2.52-2.52V41.28A2.52,2.52,0,0,0,47.86,38.76Zm.32,12.45a.32.32,0,0,1-.32.32H43.63a.32.32,0,0,1-.32-.32V41.28a.32.32,0,0,1,.32-.32h4.22a.32.32,0,0,1,.32.32ZM26.26,39.86V52.63a1.1,1.1,0,1,1-2.2,0V39.86a1.1,1.1,0,1,1,2.2,0ZM19.17,51.21V41.28a2.52,2.52,0,0,0-2.52-2.52H12.43a2.52,2.52,0,0,0-2.52,2.52v9.93a2.52,2.52,0,0,0,2.52,2.52h4.22A2.52,2.52,0,0,0,19.17,51.21Zm-2.2,0a.32.32,0,0,1-.32.32H12.43a.32.32,0,0,1-.32-.32V41.28a.32.32,0,0,1,.32-.32h4.22a.32.32,0,0,1,.32.32Zm-4.86,9.93V73.91a1.1,1.1,0,1,1-2.2,0V61.14a1.1,1.1,0,1,1,2.2,0ZM34.8,64v9.93a1.1,1.1,0,1,1-2.2,0V64a1.1,1.1,0,1,1,2.2,0ZM23.74,60H19.52A2.52,2.52,0,0,0,17,62.56v9.93A2.52,2.52,0,0,0,19.52,75h4.22a2.52,2.52,0,0,0,2.52-2.52V62.56A2.52,2.52,0,0,0,23.74,60Zm.32,12.45a.32.32,0,0,1-.32.32H19.52a.32.32,0,0,1-.32-.32V62.56a.32.32,0,0,1,.32-.32h4.22a.32.32,0,0,1,.32.32Zm66-11.35V73.91a1.1,1.1,0,1,1-2.2,0V61.14a1.1,1.1,0,1,1,2.2,0Zm-5.64,1.42v5.67a1.1,1.1,0,1,1-2.2,0V62.56a.32.32,0,0,0-.32-.32H77.68a.32.32,0,0,0-.32.32,1.1,1.1,0,1,1-2.2,0A2.52,2.52,0,0,1,77.68,60h4.26A2.52,2.52,0,0,1,84.45,62.56ZM50.38,68.23v4.26A2.52,2.52,0,0,1,47.86,75H43.63a2.52,2.52,0,0,1-2.52-2.52V68.23a1.1,1.1,0,1,1,2.2,0v4.26a.32.32,0,0,0,.32.32h4.22a.32.32,0,0,0,.32-.32V68.23a1.1,1.1,0,1,1,2.2,0Zm14.18,4.26A2.52,2.52,0,0,1,62,75H57.82a2.52,2.52,0,0,1-2.52-2.52V68.23a1.1,1.1,0,1,1,2.2,0v4.26a.32.32,0,0,0,.32.32H62a.32.32,0,0,0,.32-.32,1.1,1.1,0,1,1,2.2,0ZM9.91,32.77V20a1.1,1.1,0,1,1,2.2,0V32.77a1.1,1.1,0,1,1-2.2,0Zm22.7-2.84V20a1.1,1.1,0,1,1,2.2,0v9.93a1.1,1.1,0,1,1-2.2,0Zm-8.86-11H19.52A2.52,2.52,0,0,0,17,21.42v9.93a2.52,2.52,0,0,0,2.52,2.52h4.22a2.52,2.52,0,0,0,2.52-2.52V21.42A2.52,2.52,0,0,0,23.74,18.9Zm.32,12.45a.32.32,0,0,1-.32.32H19.52a.32.32,0,0,1-.32-.32V21.42a.32.32,0,0,1,.32-.32h4.22a.32.32,0,0,1,.32.32Zm48.26,1.42V20a1.1,1.1,0,1,1,2.2,0V32.77a1.1,1.1,0,1,1-2.2,0ZM42.53,24.26V21.42a2.52,2.52,0,0,1,2.52-2.52h4.22a2.52,2.52,0,0,1,2.52,2.52v2.84a1.1,1.1,0,1,1-2.2,0V21.42a.32.32,0,0,0-.32-.32H45.05a.32.32,0,0,0-.32.32v2.84a1.1,1.1,0,1,1-2.2,0Zm14.18,0,0-2.84a2.52,2.52,0,0,1,2.52-2.51h4.22A2.52,2.52,0,0,1,66,21.42v7.09a1.1,1.1,0,1,1-2.2,0V21.42a.32.32,0,0,0-.32-.32H59.27a.32.32,0,0,0-.32.32l0,2.85a1.1,1.1,0,1,1-2.2,0ZM90.09,39.86V52.63a1.1,1.1,0,1,1-2.2,0V39.86a1.1,1.1,0,1,1,2.2,0ZM73.74,41.28v9.93a2.52,2.52,0,0,0,2.52,2.52h4.22A2.52,2.52,0,0,0,83,51.21V41.28a2.52,2.52,0,0,0-2.52-2.52H76.26A2.52,2.52,0,0,0,73.74,41.28Zm2.2,0a.32.32,0,0,1,.32-.32h4.22a.32.32,0,0,1,.32.32v9.93a.32.32,0,0,1-.32.32H76.26a.32.32,0,0,1-.32-.32ZM87.57,18.9H83.35a2.52,2.52,0,0,0-2.52,2.52v9.93a2.52,2.52,0,0,0,2.52,2.52h4.22a2.52,2.52,0,0,0,2.52-2.52V21.42A2.52,2.52,0,0,0,87.57,18.9Zm.32,12.45a.32.32,0,0,1-.32.32H83.35a.32.32,0,0,1-.32-.32V21.42a.32.32,0,0,1,.32-.32h4.22a.32.32,0,0,1,.32.32ZM57.47,39.86V52.63a1.1,1.1,0,1,1-2.2,0V39.86a1.1,1.1,0,1,1,2.2,0Z"/></svg>