<svg id="outline" xmlns="http://www.w3.org/2000/svg" viewBox="0 0 100 100"><defs><style>.cls-1{fill:#2892fc;}.cls-2{fill:#1a2530;}</style></defs><title></title><circle id="_Path_" data-name="&lt;Path&gt;" class="cls-1" cx="38.65" cy="55.67" r="5.32"/><circle id="_Path_2" data-name="&lt;Path&gt;" class="cls-1" cx="61.7" cy="55.67" r="5.67"/><path id="_Compound_Path_" data-name="&lt;Compound Path&gt;" class="cls-2" d="M75.92,48.3V42.2a9.62,9.62,0,0,0-9.61-9.61H51.81V19.06a5.32,5.32,0,1,0-2.2,0V32.59H33.69a9.62,9.62,0,0,0-9.61,9.61V48.3a5.36,5.36,0,0,0-4.26,5.24v7.09a5.36,5.36,0,0,0,4.26,5.24V77.66a1.1,1.1,0,0,0,1.1,1.1H74.82a1.1,1.1,0,0,0,1.1-1.1V65.88a5.36,5.36,0,0,0,4.26-5.24V53.55A5.36,5.36,0,0,0,75.92,48.3ZM47.55,13.83A3.14,3.14,0,1,1,50.68,17,3.15,3.15,0,0,1,47.55,13.83ZM78,60.64a3.16,3.16,0,0,1-3.16,3.16,1.1,1.1,0,0,0-1.1,1.1V76.56H26.28V64.89a1.1,1.1,0,0,0-1.1-1.1A3.16,3.16,0,0,1,22,60.64V53.55a3.16,3.16,0,0,1,3.16-3.16,1.1,1.1,0,0,0,1.1-1.1V42.2a7.42,7.42,0,0,1,7.41-7.41H66.31a7.42,7.42,0,0,1,7.41,7.41v7.09a1.1,1.1,0,0,0,1.1,1.1A3.16,3.16,0,0,1,78,53.55ZM61.32,48.2a7.48,7.48,0,1,0,7.45,7.48A7.47,7.47,0,0,0,61.32,48.2Zm0,12.76a5.28,5.28,0,1,1,5.25-5.28A5.27,5.27,0,0,1,61.32,61ZM46.08,55.67a7.45,7.45,0,1,0-7.45,7.48A7.48,7.48,0,0,0,46.08,55.67ZM38.62,61a5.28,5.28,0,1,1,5.25-5.28A5.27,5.27,0,0,1,38.62,61Zm18.86,8.19a1.1,1.1,0,0,1-1.1,1.1H43.62a1.1,1.1,0,0,1,0-2.2H56.38A1.1,1.1,0,0,1,57.48,69.15ZM58.9,81.91A1.1,1.1,0,0,1,57.8,83H42.2a1.1,1.1,0,1,1,0-2.2H57.8A1.1,1.1,0,0,1,58.9,81.91Zm-2.84,4.26a1.1,1.1,0,0,1-1.1,1.1H45a1.1,1.1,0,0,1,0-2.2H55A1.1,1.1,0,0,1,56.06,86.17Zm0,4.26a1.1,1.1,0,0,1-1.1,1.1H45a1.1,1.1,0,0,1,0-2.2H55A1.1,1.1,0,0,1,56.06,90.43Z"/></svg>