<svg id="outline" xmlns="http://www.w3.org/2000/svg" viewBox="0 0 100 100"><defs><style>.cls-1{fill:#2892fc;}.cls-2{fill:#1a2530;}</style></defs><title></title><polygon id="_Path_" data-name="&lt;Path&gt;" class="cls-1" points="47.16 65.6 35.82 75.53 20.21 68.14 20.21 81.21 47.16 93.97 74.11 81.21 74.11 68.14 58.51 75.53 47.16 65.6"/><path id="_Compound_Path_" data-name="&lt;Compound Path&gt;" class="cls-2" d="M85.93,39.08,72.46,32.69a1.1,1.1,0,1,0-.94,2l12.85,6.08V41L73.93,50.12l-9.55-4.52a1.1,1.1,0,0,0-.94,2l8.1,3.84L47.16,63,22.78,51.42l7.74-3.67a1.1,1.1,0,0,0-.94-2l-9.19,4.35L10,41v-.22l11.67-5.53a1.1,1.1,0,0,0-.94-2L8.39,39.08a1.1,1.1,0,0,0-.63,1v1.42a1.1,1.1,0,0,0,.38.83l10.4,9.1-10.4,9.1a1.1,1.1,0,0,0-.38.83v1.42a1.1,1.1,0,0,0,.63,1l10.72,5.08V81.21a1.1,1.1,0,0,0,.63,1L46.69,95h0a1.05,1.05,0,0,0,.9,0h0l27-12.77a1.1,1.1,0,0,0,.63-1V68.84l10.72-5.08a1.1,1.1,0,0,0,.63-1V61.35a1.1,1.1,0,0,0-.38-.83l-10.4-9.1,10.4-9.1a1.1,1.1,0,0,0,.38-.83V40.07A1.1,1.1,0,0,0,85.93,39.08ZM10,61.85l10.43-9.12L46.06,64.88v.22L35.63,74.23,10,62.07Zm11.35,8,14,6.65a1.1,1.1,0,0,0,1.19-.17L46.06,68V92.23L21.31,80.51ZM73,80.51,48.26,92.23V68l9.52,8.33a1.1,1.1,0,0,0,1.2.17l14-6.65ZM84.36,62.07,58.69,74.23,48.26,65.1v-.22L73.93,52.72l10.43,9.13ZM7.8,21.35a1.1,1.1,0,0,1,1.35-.78c21.69,5.78,27.62,24.34,29.16,32.05a1.1,1.1,0,0,1-.86,1.29l-.22,0a1.1,1.1,0,0,1-1.08-.88c-1.46-7.31-7.07-24.89-27.57-30.36A1.1,1.1,0,0,1,7.8,21.35ZM59.54,40c4-8.38,10.38-14.13,18.51-16.62a1.1,1.1,0,1,1,.65,2.1C71.06,27.86,65.29,33.07,61.53,41a1.1,1.1,0,0,1-2-.94Zm0,6.13a42.55,42.55,0,0,0-1.32,5.44,1.1,1.1,0,0,1-1.08.91l-.19,0a1.1,1.1,0,0,1-.9-1.27,44.71,44.71,0,0,1,1.39-5.72,1.1,1.1,0,1,1,2.1.66ZM58.18,30.61C60.46,24.22,67.6,9.12,84.62,6.94a1.1,1.1,0,0,1,.28,2.18c-15.81,2-22.5,16.22-24.64,22.23a1.1,1.1,0,0,1-2.07-.74ZM30.73,15.26a1.1,1.1,0,1,1,1.66-1.45,47.93,47.93,0,0,1,3.86,5.08,1.1,1.1,0,1,1-1.83,1.21A45.82,45.82,0,0,0,30.73,15.26ZM37,24.35a1.1,1.1,0,1,1,1.94-1,64.36,64.36,0,0,1,3.19,6.92,1.1,1.1,0,1,1-2,.8A62.27,62.27,0,0,0,37,24.35Zm7.7,32.45a63.58,63.58,0,0,0-2.79-20.5A1.1,1.1,0,0,1,44,35.67,65.83,65.83,0,0,1,46.84,56.9,1.1,1.1,0,0,1,45.75,58h0A1.1,1.1,0,0,1,44.65,56.81Zm9.14-39.94A29.33,29.33,0,0,1,60.63,8,1.1,1.1,0,0,1,62.06,9.7a27.17,27.17,0,0,0-6.32,8.18,1.1,1.1,0,1,1-2-1ZM48.9,37.23a48.59,48.59,0,0,1,2.56-14.88,1.1,1.1,0,1,1,2.08.71A46.25,46.25,0,0,0,51.1,37.23a1.1,1.1,0,1,1-2.2,0ZM12.34,16.74a1.1,1.1,0,0,1,0-1.56l2.84-2.84a1.1,1.1,0,1,1,1.56,1.56L13.9,16.74a1.1,1.1,0,0,1-1.56,0Zm7.09-7.09a1.1,1.1,0,0,1,0-1.56l2.84-2.84a1.1,1.1,0,1,1,1.56,1.56L21,9.64a1.1,1.1,0,0,1-1.56,0Zm0,4.26A1.1,1.1,0,0,1,21,12.34l2.84,2.84a1.1,1.1,0,1,1-1.56,1.56ZM12.34,6.81A1.1,1.1,0,1,1,13.9,5.25l2.84,2.84a1.1,1.1,0,1,1-1.56,1.56ZM91.13,17.69H88.3a1.09,1.09,0,0,0-.4.08,1.09,1.09,0,0,0,.08-.4V14.54a1.1,1.1,0,0,0-2.2,0v2.84a1.09,1.09,0,0,0,.08.4,1.09,1.09,0,0,0-.4-.08H82.62a1.1,1.1,0,1,0,0,2.2h2.84a1.09,1.09,0,0,0,.4-.08,1.09,1.09,0,0,0-.08.4V23A1.1,1.1,0,1,0,88,23V20.21a1.09,1.09,0,0,0-.08-.4,1.09,1.09,0,0,0,.4.08h2.84a1.1,1.1,0,0,0,0-2.2Zm-4.65,1.5a1,1,0,0,0,0-.8,1,1,0,0,0,.8,0,1,1,0,0,0,0,.8,1,1,0,0,0-.8,0Zm-45-6.39h2.84a1.09,1.09,0,0,0,.4-.08,1.09,1.09,0,0,0-.08.4V16a1.1,1.1,0,0,0,2.2,0V13.12a1.09,1.09,0,0,0-.08-.4,1.09,1.09,0,0,0,.4.08H50a1.1,1.1,0,1,0,0-2.2H47.16a1.09,1.09,0,0,0-.4.08,1.09,1.09,0,0,0,.08-.4V7.45a1.1,1.1,0,0,0-2.2,0v2.84a1.09,1.09,0,0,0,.08.4,1.09,1.09,0,0,0-.4-.08H41.49a1.1,1.1,0,1,0,0,2.2Zm4.65-1.5a1,1,0,0,0,0,.8,1,1,0,0,0-.8,0,1,1,0,0,0,0-.8,1,1,0,0,0,.8,0Z"/></svg>