<svg id="outline" xmlns="http://www.w3.org/2000/svg" viewBox="0 0 100 100"><defs><style>.cls-1{fill:#2892fc;}.cls-2{fill:#1a2530;}</style></defs><title></title><polygon id="_Path_" data-name="&lt;Path&gt;" class="cls-1" points="21.68 70.3 13.12 78.78 31.67 97.16 40.22 88.68 21.68 70.3"/><polygon id="_Path_2" data-name="&lt;Path&gt;" class="cls-1" points="56.46 46.44 56.46 52.09 59.32 54.92 65.02 54.92 67.88 52.09 67.88 46.44 56.46 46.44"/><path id="_Compound_Path_" data-name="&lt;Compound Path&gt;" class="cls-2" d="M81.92,54.42c-3.05.71-5.85,3.45-7.23,7L67.1,65a4.45,4.45,0,0,0-3.41-1.49H55.13a8,8,0,0,1-2.79-1.18,10,10,0,0,0-4.51-1.65H39.44c-3.93,0-7.23,3.05-9,4.72l-8.07,8a1.1,1.1,0,0,0,0,1.56L35.45,88A1.1,1.1,0,0,0,37,88c1-1,3.94-3.91,6.08-3.91H60.2a11.2,11.2,0,0,0,8-3L82.39,67a1.1,1.1,0,0,0,.25-.37l4-10a1.1,1.1,0,0,0-.25-1.19A4.66,4.66,0,0,0,81.92,54.42ZM80.68,65.65l-14,13.91a9,9,0,0,1-6.45,2.37H43.08c-2.38,0-4.84,1.89-6.85,3.79L24.67,74.24,31.92,67c1.56-1.44,4.45-4.11,7.52-4.11h8.38a8.75,8.75,0,0,1,3.45,1.38,8.78,8.78,0,0,0,3.85,1.45h8.56c1.87,0,2.54,1.64,2.54,3.2,0,.72-.18,3.09-2.54,3.09H48.78a1.1,1.1,0,0,0,0,2.2H63.69c2.83,0,4.74-2.12,4.74-5.31A6.73,6.73,0,0,0,68.16,67L76,63.26a1.1,1.1,0,0,0,.57-.64c1.22-3.54,3.8-5.6,5.81-6.06a3.07,3.07,0,0,1,1.89.1Zm-56,14.47a1.1,1.1,0,1,1-1.55,1.56l-2.85-2.83a1.1,1.1,0,1,1,1.55-1.56Zm36.35-66.2V2.84a1.1,1.1,0,0,1,2.2,0V13.91a1.1,1.1,0,0,1-2.2,0Zm15,9.27a1.1,1.1,0,0,1,.41-1.5L86.32,16a1.1,1.1,0,0,1,1.09,1.91l-9.88,5.66a1.1,1.1,0,0,1-1.5-.41ZM87.83,45.8a1.1,1.1,0,0,1-1.5.41l-9.88-5.66a1.1,1.1,0,0,1,1.09-1.91l9.88,5.66A1.1,1.1,0,0,1,87.83,45.8Zm-37.59-33a1.1,1.1,0,1,1,1.9-1.11l2.42,4.15A1.1,1.1,0,0,1,52.66,17ZM85,29.78A1.1,1.1,0,1,1,85,32H79.29a1.1,1.1,0,0,1,0-2.2ZM69.78,15.87l2.42-4.16a1.1,1.1,0,1,1,1.9,1.11L71.68,17a1.1,1.1,0,1,1-1.9-1.11Zm-34.21.56a1.1,1.1,0,0,1,1.5-.41L47,21.68a1.1,1.1,0,1,1-1.09,1.91L36,17.93A1.1,1.1,0,0,1,35.57,16.43Zm0,29.37A1.1,1.1,0,0,1,36,44.3l9.88-5.66a1.1,1.1,0,1,1,1.09,1.91l-9.88,5.66a1.1,1.1,0,0,1-1.5-.41Zm10.6-14.92a1.1,1.1,0,0,1-1.1,1.1H39.35a1.1,1.1,0,1,1,0-2.2h5.71A1.1,1.1,0,0,1,46.15,30.88Zm9.21,13.43v7.78a1.1,1.1,0,0,0,.33.78l2.85,2.83a1.1,1.1,0,0,0,.77.32H65a1.1,1.1,0,0,0,.77-.32l2.85-2.83a1.1,1.1,0,0,0,.33-.78V44.31a5.59,5.59,0,0,1,1.82-4.23,13.06,13.06,0,0,0,3.89-9.2,12.51,12.51,0,0,0-25,0,13.06,13.06,0,0,0,3.88,9.2A5.59,5.59,0,0,1,55.36,44.31Zm9.21,9.5h-4.8l-2.21-2.19v-4.1h9.21v4.1Zm-2.4-33.15A10.27,10.27,0,0,1,72.48,30.88a10.88,10.88,0,0,1-3.25,7.65,7.8,7.8,0,0,0-2.46,5.78v1H63.27v-7.7H65a1.1,1.1,0,1,0,0-2.2H59.32a1.1,1.1,0,1,0,0,2.2h1.75v7.7H57.56v-1a7.81,7.81,0,0,0-2.47-5.78,10.87,10.87,0,0,1-3.24-7.65A10.27,10.27,0,0,1,62.17,20.67Z"/></svg>