<svg id="outline" xmlns="http://www.w3.org/2000/svg" viewBox="0 0 100 100"><defs><style>.cls-1{fill:#2892fc;}.cls-2{fill:#1a2530;}</style></defs><title></title><polygon id="_Path_" data-name="&lt;Path&gt;" class="cls-1" points="74.11 17.38 74.11 25.89 82.62 25.89 86.88 25.89 74.11 13.12 74.11 17.38"/><path id="_Compound_Path_" data-name="&lt;Compound Path&gt;" class="cls-2" d="M87.66,23.69,76.31,12.34a1.1,1.1,0,0,0-.78-.32h-34A3.94,3.94,0,0,0,37.55,16v1.75h-.32A19.56,19.56,0,0,0,17.69,37.23v17A1.1,1.1,0,0,0,18,55L21.95,59v9.47a1.07,1.07,0,0,0,.06.32h-1.8a3.94,3.94,0,0,0-3.94,3.94v3.16H16A3.94,3.94,0,0,0,12,79.79v7.09a1.1,1.1,0,0,0,1.1,1.1H54.26a1.1,1.1,0,0,0,1.1-1.1V79.79a3.94,3.94,0,0,0-3.94-3.94H51.1V73.79H84A3.94,3.94,0,0,0,88,69.86V24.47A1.1,1.1,0,0,0,87.66,23.69Zm-2,1.1H75.21V14.36ZM42.91,75.85a1.1,1.1,0,1,0,0,2.2h8.51a1.74,1.74,0,0,1,1.74,1.74v6H14.22v-6A1.74,1.74,0,0,1,16,78.05H33a1.1,1.1,0,1,0,0-2.2H18.48V72.69A1.74,1.74,0,0,1,20.21,71h9.93a1.1,1.1,0,1,0,0-2.2H24.09a1.07,1.07,0,0,0,.06-.32V58.51a1.1,1.1,0,0,0-.32-.78L19.89,53.8V37.23A17.36,17.36,0,0,1,37.23,19.89c.44,0,.87,0,1.31.05h0a17.12,17.12,0,0,1,2.14.31l.28.06.84.22.37.1.76.25.41.15.69.29.44.21.6.31.5.29.48.29q.42.27.8.58l.11.08-3.36,3.36-1.35-1.35a1.1,1.1,0,0,0-1.56,1.56L53.16,39.11v3.34L50,45.61l-3.48-3.48a1.1,1.1,0,0,0-.78-.32H37.23a4.58,4.58,0,0,1-4.57-4.57,1.1,1.1,0,0,0-2.2,0A6.78,6.78,0,0,0,37.23,44H39v4.57a1.1,1.1,0,0,0,.32.78l9.15,9.15-4.9,4.9a1.1,1.1,0,0,0-.32.78v4.57H40.07a1.1,1.1,0,1,0,0,2.2h7.09a1.74,1.74,0,0,1,1.74,1.74v3.16Zm42.87-6A1.74,1.74,0,0,1,84,71.6H50.94c0-.1-.07-.18-.11-.28s-.05-.15-.09-.22a3.91,3.91,0,0,0-.27-.5l-.06-.11a4,4,0,0,0-.44-.54l-.14-.13a3.93,3.93,0,0,0-.39-.32l-.21-.13a3.92,3.92,0,0,0-.41-.22l-.24-.1a3.89,3.89,0,0,0-.47-.15l-.22-.06a3.92,3.92,0,0,0-.73-.07H45.43V64.64l5.35-5.35a1.1,1.1,0,0,0,0-1.55l-9.61-9.61V44h4.12l3.93,3.93a1.1,1.1,0,0,0,1.56,0L55,43.68a1.1,1.1,0,0,0,.32-.78V38.65a1.1,1.1,0,0,0-.32-.78L45.17,28l4.19-4.19a1.1,1.1,0,0,0,0-1.56,13.14,13.14,0,0,0-1.09-1L48,21.14q-.5-.38-1-.73l-.18-.11q-.64-.39-1.32-.73h0a18.34,18.34,0,0,0-4.61-1.52l-.61-.1-.51-.09V16a1.74,1.74,0,0,1,1.74-1.74H73V25.89a1.1,1.1,0,0,0,1.1,1.1H85.78ZM39.75,77a1.1,1.1,0,0,1-1.1,1.1H35.82a1.1,1.1,0,1,1,0-2.2h2.84A1.1,1.1,0,0,1,39.75,77Zm-3.94-6H33a1.1,1.1,0,1,1,0-2.2h2.84a1.1,1.1,0,1,1,0,2.2Zm0-45.39A10.26,10.26,0,0,0,25.57,35.82v5.67a1.1,1.1,0,0,1-2.2,0V35.82A12.46,12.46,0,0,1,35.82,23.37a1.1,1.1,0,1,1,0,2.2Zm28.37,9.15H78.37a1.1,1.1,0,1,1,0,2.2H64.18a1.1,1.1,0,1,1,0-2.2Zm-1.74,1.1a1.1,1.1,0,0,1-1.1,1.1H58.51a1.1,1.1,0,1,1,0-2.2h2.84A1.1,1.1,0,0,1,62.45,35.82Zm17,5.67a1.1,1.1,0,0,1-1.1,1.1H64.18a1.1,1.1,0,1,1,0-2.2H78.37A1.1,1.1,0,0,1,79.47,41.49Zm-17,0a1.1,1.1,0,0,1-1.1,1.1H58.51a1.1,1.1,0,1,1,0-2.2h2.84A1.1,1.1,0,0,1,62.45,41.49Zm17,5.67a1.1,1.1,0,0,1-1.1,1.1H64.18a1.1,1.1,0,1,1,0-2.2H78.37A1.1,1.1,0,0,1,79.47,47.16Zm-17,0a1.1,1.1,0,0,1-1.1,1.1H58.51a1.1,1.1,0,1,1,0-2.2h2.84A1.1,1.1,0,0,1,62.45,47.16Zm17,5.67a1.1,1.1,0,0,1-1.1,1.1H64.18a1.1,1.1,0,1,1,0-2.2H78.37A1.1,1.1,0,0,1,79.47,52.84Zm-17,0a1.1,1.1,0,0,1-1.1,1.1H58.51a1.1,1.1,0,1,1,0-2.2h2.84A1.1,1.1,0,0,1,62.45,52.84Zm17,5.67a1.1,1.1,0,0,1-1.1,1.1H64.18a1.1,1.1,0,1,1,0-2.2H78.37A1.1,1.1,0,0,1,79.47,58.51Zm-17,0a1.1,1.1,0,0,1-1.1,1.1H58.51a1.1,1.1,0,1,1,0-2.2h2.84A1.1,1.1,0,0,1,62.45,58.51Z"/></svg>