<svg id="outline" xmlns="http://www.w3.org/2000/svg" viewBox="0 0 100 100"><defs><style>.cls-1{fill:#2892fc;}.cls-2{fill:#1a2530;}</style></defs><title></title><polygon id="_Path_" data-name="&lt;Path&gt;" class="cls-1" points="57.09 59.15 25.89 41.49 40.07 34.4 72.69 51.38 72.69 74.11 57.09 82.52 57.09 59.15"/><path id="_Compound_Path_" data-name="&lt;Compound Path&gt;" class="cls-2" d="M94.14,48.19a1.1,1.1,0,1,0-1-1.95L73.79,56.38V51.9L94.14,41.23a1.1,1.1,0,0,0,0-1.95L64.05,23.49a1.11,1.11,0,0,0-1,0L42.35,34.34l-1.77-.92a1.09,1.09,0,0,0-1,0L25.39,40.51a1.1,1.1,0,0,0,0,1.94l.75.42L5.86,53.48a1.1,1.1,0,0,0,0,1.95L35.95,71.21a1.11,1.11,0,0,0,1,0l19-10v4.48L36.46,76,6.88,60.45a1.1,1.1,0,1,0-1,1.95L35.95,78.18a1.11,1.11,0,0,0,1,0l19-10v4.48L36.46,82.93,6.88,67.41a1.1,1.1,0,0,0-1,1.95L35.95,85.14a1.11,1.11,0,0,0,1,0l19-10v4.48L36.46,89.89,6.88,74.38a1.1,1.1,0,0,0-1,1.95L35.95,92.11a1.11,1.11,0,0,0,1,0l19-10v.38a1.1,1.1,0,0,0,1.62,1l15.6-8.4a1.1,1.1,0,0,0,.58-1V72.79L94.14,62.12a1.1,1.1,0,0,0-1-1.95L73.79,70.31V65.83L94.14,55.16a1.1,1.1,0,0,0-1-1.95L73.79,63.34V58.86ZM63.54,25.71,91.26,40.25,72.55,50.07l-3.66-1.91,9.21-4.83a1.1,1.1,0,0,0,0-1.95,2.4,2.4,0,0,1-.79-.59s.1-.26.79-.62a1.1,1.1,0,0,0,0-1.95l-12-6.31a1.11,1.11,0,0,0-1,0,5.53,5.53,0,0,1-5,0,1.1,1.1,0,0,0-1,0L48.39,37.49l-3.66-1.91ZM75.59,42.16l-9.08,4.76-15.75-8.2,8.79-4.61a7.73,7.73,0,0,0,6,0L75.59,39.4a2.24,2.24,0,0,0-.49,1.37A2.27,2.27,0,0,0,75.59,42.16Zm-47.37-.61,8.14-4.07,3.69-1.84,2.29,1.19L46,38.73,48.39,40l15.75,8.2,2.38,1.24,3.66,1.91L57.36,58l-3.51-2-2.28-1.29L36.48,46.22,34.2,44.93l-3.51-2-2.28-1.29Zm-3.83,11,9.77-5.12L49.25,56,40.43,60.6a7.69,7.69,0,0,0-5.95,0L24.4,55.31a2.26,2.26,0,0,0,.48-1.37A2.23,2.23,0,0,0,24.39,52.56ZM36.46,69,8.74,54.46l19.63-10.3,3.51,2-10,5.24a1.1,1.1,0,0,0,0,1.95,2.15,2.15,0,0,1,.8.58,1.77,1.77,0,0,1-.78.62,1.1,1.1,0,0,0,0,1.95l12,6.31a1.1,1.1,0,0,0,1,0,5.5,5.5,0,0,1,5,0,1.11,1.11,0,0,0,1,0l10.57-5.54,3.51,2ZM71.6,64.5v9l-13.4,7.22V60.08l13.4-7V64.5ZM65.28,38.65v2.84a1.1,1.1,0,1,1-2.2,0V38.65a1.1,1.1,0,0,1,2.2,0Zm-30.57,17V52.84a1.1,1.1,0,0,1,2.2,0v2.84a1.1,1.1,0,0,1-2.2,0Zm-12.77-27a1.1,1.1,0,0,1,1.1-1.1H26.2V24.47a1.1,1.1,0,0,1,2.2,0v3.16h3.16a1.1,1.1,0,1,1,0,2.2H28.4V33a1.1,1.1,0,0,1-2.2,0V29.82H23A1.1,1.1,0,0,1,21.95,28.72ZM33.3,13.12A1.1,1.1,0,0,1,34.4,12h3.16V8.87a1.1,1.1,0,1,1,2.2,0V12h3.16a1.1,1.1,0,0,1,0,2.2H39.75v3.16a1.1,1.1,0,1,1-2.2,0V14.22H34.4A1.1,1.1,0,0,1,33.3,13.12Z"/></svg>