<svg id="outline" xmlns="http://www.w3.org/2000/svg" viewBox="0 0 100 100"><defs><style>.cls-1{fill:#2892fc;}.cls-2{fill:#1a2530;}</style></defs><title></title><circle id="_Path_" data-name="&lt;Path&gt;" class="cls-1" cx="50" cy="18.08" r="6.38"/><path id="_Compound_Path_" data-name="&lt;Compound Path&gt;" class="cls-2" d="M50,26.28a8.19,8.19,0,1,0-8.19-8.19A8.2,8.2,0,0,0,50,26.28Zm0-14.18a6,6,0,1,1-6,6A6,6,0,0,1,50,12.09ZM58.19,55a8.2,8.2,0,0,0-7.09-8.11v-16a1.1,1.1,0,0,0-2.2,0v16A8.19,8.19,0,1,0,58.19,55ZM50,61a6,6,0,1,1,6-6A6,6,0,0,1,50,61ZM30.14,50.39a8.18,8.18,0,0,0,6-13.75l7-8.55a1.1,1.1,0,0,0-1.7-1.4l-7,8.55a8.19,8.19,0,1,0-4.3,15.15Zm0-14.18a6,6,0,1,1-6,6A6,6,0,0,1,30.14,36.21ZM24.4,51.07a1.1,1.1,0,0,0-1.52.33L18,58.91a8.2,8.2,0,1,0,1.85,1.19l4.86-7.51A1.1,1.1,0,0,0,24.4,51.07ZM20.53,66.31a6,6,0,1,1-6-6A6,6,0,0,1,20.53,66.31ZM45,64.49A1.1,1.1,0,0,0,43.5,65l-4.88,9.27a8.21,8.21,0,1,0,1.95,1L45.45,66A1.1,1.1,0,0,0,45,64.49ZM41.81,81.91a6,6,0,1,1-6-6A6,6,0,0,1,41.81,81.91Zm22.38-8.19a8.14,8.14,0,0,0-2.8.5L56.5,65a1.1,1.1,0,0,0-1.95,1l4.88,9.27a8.18,8.18,0,1,0,4.75-1.53Zm0,14.18a6,6,0,1,1,6-6A6,6,0,0,1,64.18,87.91ZM85.46,58.12a8.13,8.13,0,0,0-3.48.79L77.12,51.4a1.1,1.1,0,0,0-1.85,1.2l4.86,7.51a8.18,8.18,0,1,0,5.33-2Zm0,14.18a6,6,0,1,1,6-6A6,6,0,0,1,85.46,72.3ZM57,26.54a1.1,1.1,0,0,0-.15,1.55l7,8.55a8.22,8.22,0,1,0,1.7-1.4l-7-8.55A1.1,1.1,0,0,0,57,26.54ZM75.85,42.2a6,6,0,1,1-6-6A6,6,0,0,1,75.85,42.2Z"/></svg>