<svg id="outline" xmlns="http://www.w3.org/2000/svg" viewBox="0 0 100 100"><defs><style>.cls-1{fill:#2892fc;}.cls-2{fill:#1a2530;}</style></defs><title></title><path id="_Path_" data-name="&lt;Path&gt;" class="cls-1" d="M48.58,60.58H44.33V52.07l-4.26-2.84H37.23V45a4.26,4.26,0,0,1,4.26-4.26h5.68l5.67,5.67v9.93Z"/><path id="_Path_2" data-name="&lt;Path&gt;" class="cls-1" d="M64.79,20.87H59.93L57.09,23.7H50L45.74,28H41.49a4.26,4.26,0,0,0-4.26,4.26v2.84h9.93l5.67,5.67h2.84l1.42-1.42h1.42l4.26,4.26h9.88c0-.47,0-.94,0-1.42A32.49,32.49,0,0,0,64.79,20.87Z"/><path id="_Path_3" data-name="&lt;Path&gt;" class="cls-1" d="M18.79,42.14H13.12L8.86,46.4H7.73a32.45,32.45,0,0,0,6.61,15.8l4.45-4.45V52.07l2.84-2.84V45Z"/><path id="_Path_4" data-name="&lt;Path&gt;" class="cls-1" d="M17.38,22.29H14.19a32.45,32.45,0,0,0-6.62,17h2.71l2.84-2.84V35.05l5.67-5.67h2.84V26.54A4.26,4.26,0,0,0,17.38,22.29Z"/><path id="_Compound_Path_" data-name="&lt;Compound Path&gt;" class="cls-2" d="M74.43,23.7a1.1,1.1,0,0,1,1.1-1.1h5.67a1.1,1.1,0,1,1,0,2.2H75.53A1.1,1.1,0,0,1,74.43,23.7ZM84,33.32a1.1,1.1,0,0,0,1.1-1.1V26.54a1.1,1.1,0,1,0-2.2,0v5.67A1.1,1.1,0,0,0,84,33.32Zm-30.11,50a1.1,1.1,0,0,1-1.1,1.1H50a1.09,1.09,0,0,1-.4-.08,1.09,1.09,0,0,1,.08.4v2.84a1.1,1.1,0,1,1-2.2,0V84.7a1.09,1.09,0,0,1,.08-.4,1.09,1.09,0,0,1-.4.08H44.33a1.1,1.1,0,1,1,0-2.2h2.84a1.09,1.09,0,0,1,.4.08,1.09,1.09,0,0,1-.08-.4V79a1.1,1.1,0,1,1,2.2,0v2.84a1.09,1.09,0,0,1-.08.4,1.09,1.09,0,0,1,.4-.08h2.84A1.1,1.1,0,0,1,53.94,83.28Zm-5,0a1.09,1.09,0,0,1,.08-.4,1,1,0,0,1-.8,0,1,1,0,0,1,0,.8,1,1,0,0,1,.8,0A1.09,1.09,0,0,1,48.9,83.28ZM84,22a1.1,1.1,0,0,0,1.1-1.1V15.19a1.1,1.1,0,1,0-2.2,0v5.67A1.1,1.1,0,0,0,84,22ZM62,44.34l-3.93-3.93h-.51l-1.1,1.1a1.1,1.1,0,0,1-.78.32H52.84a1.1,1.1,0,0,1-.78-.32l-5.35-5.35H37.23a1.1,1.1,0,0,1-1.1-1.1V32.22a5.36,5.36,0,0,1,5.36-5.36h3.8l3.93-3.93A1.1,1.1,0,0,1,50,22.6h6.63l2.52-2.52a1.1,1.1,0,0,1,.78-.32h2.32a31.46,31.46,0,0,0-45.7,1.42h.83a5.36,5.36,0,0,1,5.36,5.36v2.84a1.1,1.1,0,0,1-1.1,1.1H19.25l-5,5v1a1.1,1.1,0,0,1-.32.78l-2.84,2.84a1.1,1.1,0,0,1-.78.32H8.6c0,.58,0,1.15,0,1.74,0,1,.05,1.93.14,2.88l3.66-3.66a1.1,1.1,0,0,1,.78-.32h5.67a1.1,1.1,0,0,1,.78.32l2.84,2.84a1.1,1.1,0,0,1,.32.78v4.26a1.1,1.1,0,0,1-.32.78l-2.51,2.51v5.22a1.1,1.1,0,0,1-.32.78l-3.74,3.74a31.51,31.51,0,0,0,39.32,7.57,1.1,1.1,0,0,1,1.05,1.93A33.7,33.7,0,0,1,13.59,63h0s0-.06-.05-.08a33.62,33.62,0,0,1-.15-41.3l.07-.09a33.66,33.66,0,0,1,52.09-1.43l.1.12a33.69,33.69,0,0,1,4.09,38,1.1,1.1,0,0,1-1.93-1,31.51,31.51,0,0,0,3.69-12.51H62.77A1.1,1.1,0,0,1,62,44.34ZM9,47.47a31.35,31.35,0,0,0,5.47,13l3.22-3.22V52.07A1.1,1.1,0,0,1,18,51.3l2.51-2.51V45.44l-2.19-2.19H13.58L9.64,47.18A1.09,1.09,0,0,1,9,47.47Zm5.75-24.09a31.36,31.36,0,0,0-6,14.82h1L12,36v-1a1.1,1.1,0,0,1,.32-.78L18,28.6a1.1,1.1,0,0,1,.78-.32h1.74V26.54a3.16,3.16,0,0,0-3.16-3.16ZM59.29,38.53l3.93,3.93h8.36c0-.11,0-.21,0-.32A31.38,31.38,0,0,0,64.27,22H60.39l-2.52,2.52a1.1,1.1,0,0,1-.78.32H50.46l-3.93,3.93a1.1,1.1,0,0,1-.78.32H41.49a3.16,3.16,0,0,0-3.16,3.16V34h8.83a1.1,1.1,0,0,1,.78.32l5.35,5.35h1.93l1.1-1.1a1.1,1.1,0,0,1,.78-.32h1.42A1.1,1.1,0,0,1,59.29,38.53ZM43.23,60.58V52.66l-3.49-2.33h-2.5a1.1,1.1,0,0,1-1.1-1.1V45a5.36,5.36,0,0,1,5.36-5.36h5.68a1.1,1.1,0,0,1,.78.32l5.67,5.67a1.1,1.1,0,0,1,.32.78v9.93a1.1,1.1,0,0,1-.32.78l-4.26,4.26a1.1,1.1,0,0,1-.78.32H44.33A1.1,1.1,0,0,1,43.23,60.58Zm1.71-9.43a1.1,1.1,0,0,1,.49.92v7.41h2.7l3.61-3.61v-9l-5-5H41.49A3.16,3.16,0,0,0,38.33,45v3.16h1.74a1.1,1.1,0,0,1,.61.19ZM92.55,22.6H86.88a1.1,1.1,0,0,0,0,2.2h5.67a1.1,1.1,0,1,0,0-2.2ZM83.47,75.53a2.53,2.53,0,0,1-2.54,1.79H75.38l4.73,8.2a3,3,0,0,1-1.19,4l-2.47,1.56a3.34,3.34,0,0,1-1.77.52A3,3,0,0,1,74,91.5a2.66,2.66,0,0,1-1.68-1.19l-5.23-9.23L62,86a1.93,1.93,0,0,1-2.09.53,1.85,1.85,0,0,1-1.08-1.77v-27a1.1,1.1,0,0,1,1.75-.89L82.41,72.78A2.48,2.48,0,0,1,83.47,75.53Zm-2.12-.6a.3.3,0,0,0-.16-.32l-.05,0L61,59.91v24l5.55-5.39a1.1,1.1,0,0,1,.77-.31h.16a1.1,1.1,0,0,1,.8.55l5.91,10.43a.47.47,0,0,0,.29.17,1.06,1.06,0,0,0,.78-.16l2.47-1.56a.87.87,0,0,0,.46-1l-5.68-9.85a1.1,1.1,0,0,1,1-1.65h7.44C81.09,75.11,81.32,75.06,81.35,74.93Zm5.21-25.69a1.1,1.1,0,0,1-1.1,1.1H82.62a1.09,1.09,0,0,1-.4-.08,1.09,1.09,0,0,1,.08.4v2.84a1.1,1.1,0,0,1-2.2,0V50.65a1.09,1.09,0,0,1,.08-.4,1.09,1.09,0,0,1-.4.08H77a1.1,1.1,0,0,1,0-2.2h2.84a1.09,1.09,0,0,1,.4.08,1.09,1.09,0,0,1-.08-.4V45a1.1,1.1,0,0,1,2.2,0v2.84a1.09,1.09,0,0,1-.08.4,1.09,1.09,0,0,1,.4-.08h2.84A1.1,1.1,0,0,1,86.56,49.24Zm-5,0a1.09,1.09,0,0,1,.08-.4,1,1,0,0,1-.8,0,1,1,0,0,1,0,.8,1,1,0,0,1,.8,0A1.09,1.09,0,0,1,81.52,49.24Z"/></svg>