<svg id="outline" xmlns="http://www.w3.org/2000/svg" viewBox="0 0 100 100"><defs><style>.cls-1{fill:#2892fc;}.cls-2{fill:#1a2530;}</style></defs><title></title><path id="_Path_" data-name="&lt;Path&gt;" class="cls-1" d="M50,75.53c-5.1,0-11.35,3.6-11.35,5.67v4.26c0,2.08,6.25,5.67,11.35,5.67s11.35-3.6,11.35-5.67V81.21C61.35,79.13,55.1,75.53,50,75.53Z"/><path id="_Path_2" data-name="&lt;Path&gt;" class="cls-1" d="M50,27.3c-5.1,0-11.35,3.6-11.35,5.67v4.26c0,2.08,6.25,5.67,11.35,5.67s11.35-3.6,11.35-5.67V33C61.35,30.9,55.1,27.3,50,27.3Z"/><path id="_Path_3" data-name="&lt;Path&gt;" class="cls-1" d="M79.79,52.84c-5.1,0-11.35,3.6-11.35,5.67v4.26c0,2.08,6.25,5.67,11.35,5.67s11.35-3.6,11.35-5.67V58.51C91.14,56.43,84.89,52.84,79.79,52.84Z"/><path id="_Path_4" data-name="&lt;Path&gt;" class="cls-1" d="M20.21,52.84c-5.1,0-11.35,3.6-11.35,5.67v4.26c0,2.08,6.25,5.67,11.35,5.67s11.35-3.6,11.35-5.67V58.51C31.56,56.43,25.31,52.84,20.21,52.84Z"/><path id="_Compound_Path_" data-name="&lt;Compound Path&gt;" class="cls-2" d="M54.56,75.19a9.11,9.11,0,0,0,3.63-7.56V65c0-5.13-3.52-9-8.19-9s-8.19,3.87-8.19,9v2.64a9.11,9.11,0,0,0,3.63,7.56c-4,1.22-7.89,3.71-7.89,6v4.26a1.1,1.1,0,0,0,2.2,0V81.21C39.82,80,45.09,76.63,50,76.63S60.18,80,60.25,81.21v4.26a1.1,1.1,0,0,0,2.2,0V81.21C62.45,78.9,58.6,76.4,54.56,75.19ZM44,67.63V65c0-3.94,2.52-6.8,6-6.8s6,2.86,6,6.8v2.64c0,3.94-2.52,6.8-6,6.8S44,71.57,44,67.63ZM54.56,27a9.11,9.11,0,0,0,3.63-7.56V16.77c0-5.13-3.52-9-8.19-9s-8.19,3.87-8.19,9V19.4A9.1,9.1,0,0,0,45.43,27c-4,1.22-7.89,3.71-7.89,6v4.26a1.1,1.1,0,1,0,2.2,0V33C39.82,31.8,45.09,28.4,50,28.4S60.18,31.8,60.25,33v4.26a1.1,1.1,0,1,0,2.2,0V33C62.45,30.67,58.6,28.18,54.56,27ZM44,19.4V16.77c0-3.94,2.52-6.8,6-6.8s6,2.86,6,6.8V19.4c0,3.94-2.52,6.8-6,6.8S44,23.34,44,19.4ZM84.35,52.49A9.11,9.11,0,0,0,88,44.93V42.3c0-5.13-3.52-9-8.19-9s-8.19,3.87-8.19,9v2.64a9.1,9.1,0,0,0,3.63,7.56c-4,1.22-7.89,3.71-7.89,6v4.26a1.1,1.1,0,0,0,2.2,0V58.51c.07-1.18,5.34-4.58,10.25-4.58S90,57.33,90,58.51v4.26a1.1,1.1,0,0,0,2.2,0V58.51C92.24,56.2,88.38,53.71,84.35,52.49ZM73.79,44.93V42.3c0-3.94,2.52-6.8,6-6.8s6,2.86,6,6.8v2.64c0,3.94-2.52,6.8-6,6.8S73.79,48.88,73.79,44.93ZM30.46,58.51v4.26a1.1,1.1,0,0,0,2.2,0V58.51c0-2.31-3.86-4.8-7.89-6a9.1,9.1,0,0,0,3.63-7.56V42.3c0-5.13-3.52-9-8.19-9S12,37.17,12,42.3v2.64a9.1,9.1,0,0,0,3.63,7.56c-4,1.22-7.89,3.71-7.89,6v4.26a1.1,1.1,0,0,0,2.2,0V58.51c.07-1.18,5.34-4.58,10.25-4.58S30.4,57.33,30.46,58.51ZM14.22,44.93V42.3c0-3.94,2.52-6.8,6-6.8s6,2.86,6,6.8v2.64c0,3.94-2.52,6.8-6,6.8S14.22,48.88,14.22,44.93ZM78,69.42A1.1,1.1,0,0,1,78.21,71,35.47,35.47,0,0,1,66.15,81.22a1.1,1.1,0,1,1-1-2,33.26,33.26,0,0,0,11.3-9.62A1.1,1.1,0,0,1,78,69.42ZM60.32,17.53a1.1,1.1,0,0,1,1.4-.67A35,35,0,0,1,78.53,29.49a1.1,1.1,0,1,1-1.79,1.29A32.84,32.84,0,0,0,61,18.94,1.1,1.1,0,0,1,60.32,17.53Zm-25,63.21a1.1,1.1,0,0,1-1.48.47A35.47,35.47,0,0,1,21.8,71a1.1,1.1,0,1,1,1.76-1.31,33.26,33.26,0,0,0,11.3,9.62A1.1,1.1,0,0,1,35.34,80.75ZM21.73,31a1.1,1.1,0,0,1-.25-1.54A35,35,0,0,1,38.29,16.86,1.1,1.1,0,1,1,39,18.94,32.84,32.84,0,0,0,23.26,30.77a1.1,1.1,0,0,1-1.54.25Z"/></svg>