<svg id="outline" xmlns="http://www.w3.org/2000/svg" viewBox="0 0 100 100"><defs><style>.cls-1{fill:#2892fc;}.cls-2{fill:#1a2530;}</style></defs><title></title><path id="_Path_" data-name="&lt;Path&gt;" class="cls-1" d="M60.24,74.11h-36c1.25,4.26,5.41,8.51,9.18,8.51H68.11C64.33,82.62,61.16,78.37,60.24,74.11Z"/><path id="_Path_2" data-name="&lt;Path&gt;" class="cls-1" d="M48.77,63.58S48,56.74,44.51,53.3L17.11,25.9a4.26,4.26,0,1,0-6,6l27.4,27.4C41.94,62.76,48.77,63.58,48.77,63.58Z"/><path id="_Compound_Path_" data-name="&lt;Compound Path&gt;" class="cls-2" d="M84.27,16.66a1,1,0,0,0-.24,0H41.95a9.56,9.56,0,0,0-9.61,9.25v15L16.89,25.46A5.36,5.36,0,1,0,9.32,33l3.6,3.6a1.07,1.07,0,0,0-.27.18L10.42,39,7.18,35.81a1.1,1.1,0,0,0-1.56,1.56l13,13a1.1,1.1,0,1,0,1.56-1.55L12,40.6l2.23-2.23a1.07,1.07,0,0,0,.18-.27l18,18v17.3H23.19a1.1,1.1,0,0,0-1.06,1.41c1.32,4.49,5.75,9.3,10.24,9.3H67.26a10.18,10.18,0,0,0,9.83-9.76V26a7.09,7.09,0,0,1,6.62-7.22c3.53.16,6.33,3.41,6.74,7.71H80.25a1.1,1.1,0,0,0,0,2.2H91.59a1.1,1.1,0,0,0,1.1-1.1C92.69,21.79,89.06,17.14,84.27,16.66ZM10.87,31.48a3.19,3.19,0,0,1-.09-4.55A3.08,3.08,0,0,1,13,26a3.34,3.34,0,0,1,2.36,1l3.56,3.56L14.43,35ZM16,36.59l4.46-4.46L32.34,44l2.2,2.2L42,53.64,37.5,58.1l-3-3-2.2-2.2Zm30.44,26a19.13,19.13,0,0,1-7.31-3l4.35-4.35A19.14,19.14,0,0,1,46.42,62.56ZM34.54,81.86h-2.2c-2.7,0-6-2.88-7.57-6.31H58.38a14.18,14.18,0,0,0,3.7,6.31ZM74.89,26V74.29a8,8,0,0,1-7.63,7.56h-.16c-3.21,0-6-3.89-6.79-7.65a1.1,1.1,0,0,0-1.08-.87H34.54V58.25l2.18,2.18h0c3.23,3.22,9,4.28,10.53,4.51l1.5,1.5a1.1,1.1,0,0,0,1.55-1.55l-1.5-1.5c-.23-1.55-1.29-7.3-4.51-10.53h0L34.54,43.1V25.86a7.34,7.34,0,0,1,7.41-7.05H78.15A9.56,9.56,0,0,0,74.89,26Zm-6.31,5.85a1.1,1.1,0,0,1-1.1,1.1H41.95a1.1,1.1,0,1,1,0-2.2H67.48A1.1,1.1,0,0,1,68.58,31.89Zm0,5.67a1.1,1.1,0,0,1-1.1,1.1H41.95a1.1,1.1,0,1,1,0-2.2H67.48A1.1,1.1,0,0,1,68.58,37.57Zm0,5.67a1.1,1.1,0,0,1-1.1,1.1H41.95a1.1,1.1,0,1,1,0-2.2H67.48A1.1,1.1,0,0,1,68.58,43.24Zm0,22.69a1.1,1.1,0,0,1-1.1,1.1H59a1.1,1.1,0,0,1,0-2.2h8.51A1.1,1.1,0,0,1,68.58,65.94Zm-11.35,0a1.1,1.1,0,0,1-1.1,1.1H53.3a1.1,1.1,0,1,1,0-2.2h2.84A1.1,1.1,0,0,1,57.23,65.94Z"/></svg>