<svg id="outline" xmlns="http://www.w3.org/2000/svg" viewBox="0 0 100 100"><defs><style>.cls-1{fill:#2892fc;}.cls-2{fill:#1a2530;}</style></defs><title></title><path id="_Compound_Path_" data-name="&lt;Compound Path&gt;" class="cls-1" d="M50.49,8.16H68.93V19.5H50.49ZM81.7,13.83H68.94V25.18H81.7L77.45,19.5Z"/><path id="_Compound_Path_2" data-name="&lt;Compound Path&gt;" class="cls-2" d="M50.49,27.7a1.1,1.1,0,0,0,1.1-1.1v-6H67.84v4.57a1.1,1.1,0,0,0,1.1,1.1H81.7a1.1,1.1,0,0,0,.88-1.76l-3.76-5,3.76-5a1.1,1.1,0,0,0-.88-1.76H70V8.16a1.1,1.1,0,0,0-1.1-1.1H51.59V5.32a1.1,1.1,0,0,0-2.2,0V26.6A1.1,1.1,0,0,0,50.49,27.7ZM70,14.93H79.5l-2.94,3.91a1.1,1.1,0,0,0,0,1.32l2.94,3.91H70Zm-2.2-5.67V18.4H51.59V9.26Zm1.1,75.81h-.32V81.91a3.93,3.93,0,0,0-2.95-3.8L63,56.72l6.79-8.14a1.1,1.1,0,0,0,.26-.7v-17a1.1,1.1,0,0,0-1.1-1.1H60.42a1.1,1.1,0,0,0-1.1,1.1v6H54.43v-6a1.1,1.1,0,0,0-1.1-1.1H44.82a1.1,1.1,0,0,0-1.1,1.1v6H38.83v-6a1.1,1.1,0,0,0-1.1-1.1H29.22a1.1,1.1,0,0,0-1.1,1.1v17a1.1,1.1,0,0,0,.25.7l6.79,8.14-2.67,21.4a3.93,3.93,0,0,0-2.95,3.8v3.16h-.32A3.94,3.94,0,0,0,25.28,89v5.67a1.1,1.1,0,0,0,1.1,1.1H71.77a1.1,1.1,0,0,0,1.1-1.1V89A3.94,3.94,0,0,0,68.93,85.07Zm1.74,8.51H27.48V89a1.74,1.74,0,0,1,1.74-1.74H50.49a1.1,1.1,0,1,0,0-2.2H31.74V81.91a1.74,1.74,0,0,1,1.74-1.74H44.82a1.1,1.1,0,1,0,0-2.2H34.72l2.56-20.49H47.66a1.1,1.1,0,0,0,0-2.2H36.83l-6.44-7.73H50.49a1.1,1.1,0,1,0,0-2.2H30.32V32h6.31v6a1.1,1.1,0,0,0,1.1,1.1h7.09a1.1,1.1,0,0,0,1.1-1.1V32h6.31v6a1.1,1.1,0,0,0,1.1,1.1h7.09a1.1,1.1,0,0,0,1.1-1.1V32h6.31V45.42a1.07,1.07,0,0,0-.32-.06H59a1.1,1.1,0,1,0,0,2.2h8.51a1.07,1.07,0,0,0,.31-.06l-6.5,7.79H54.75a1.1,1.1,0,0,0,0,2.2h6.12L63.43,78H56.17a1.1,1.1,0,0,0,0,2.2h8.51a1.74,1.74,0,0,1,1.74,1.74v3.16H57.59a1.1,1.1,0,1,0,0,2.2H68.93A1.74,1.74,0,0,1,70.67,89ZM85.32,54.19a1.1,1.1,0,0,1,0,1.56l-2.84,2.84A1.1,1.1,0,0,1,80.92,57l2.84-2.84A1.1,1.1,0,0,1,85.32,54.19Zm2.7-2.7a1.1,1.1,0,0,1,0-1.56l2.84-2.84a1.1,1.1,0,1,1,1.56,1.56l-2.84,2.84a1.1,1.1,0,0,1-1.56,0ZM92.41,57a1.1,1.1,0,1,1-1.56,1.56L88,55.74a1.1,1.1,0,1,1,1.56-1.56Zm-7.09-7.09a1.1,1.1,0,1,1-1.56,1.56l-2.84-2.84a1.1,1.1,0,1,1,1.56-1.56Zm-3.93,17.8a1.1,1.1,0,0,1-1.1,1.1H77.13V72a1.1,1.1,0,0,1-2.2,0V68.83H71.77a1.1,1.1,0,1,1,0-2.2h3.16V63.48a1.1,1.1,0,0,1,2.2,0v3.15h3.16A1.1,1.1,0,0,1,81.38,67.73Z"/></svg>