<svg id="outline" xmlns="http://www.w3.org/2000/svg" viewBox="0 0 100 100"><defs><style>.cls-1{fill:#2892fc;}.cls-2{fill:#1a2530;}</style></defs><title></title><path id="_Compound_Path_" data-name="&lt;Compound Path&gt;" class="cls-1" d="M50,18.79A31.21,31.21,0,1,0,81.21,50,31.21,31.21,0,0,0,50,18.79Zm0,55.32A24.11,24.11,0,1,1,74.11,50,24.11,24.11,0,0,1,50,74.11Z"/><path id="_Compound_Path_2" data-name="&lt;Compound Path&gt;" class="cls-2" d="M50,17.69A32.31,32.31,0,1,0,82.31,50,32.34,32.34,0,0,0,50,17.69Zm0,62.41A30.11,30.11,0,1,1,80.11,50,30.14,30.14,0,0,1,50,80.11Zm0-35.46A5.36,5.36,0,1,0,55.36,50,5.36,5.36,0,0,0,50,44.64Zm0,8.51A3.16,3.16,0,1,1,53.16,50,3.16,3.16,0,0,1,50,53.16Zm17.83-21-.05,0a25.17,25.17,0,0,0-35.55,0l0,0,0,0a25.17,25.17,0,0,0,0,35.55l0,.05.05,0a25.17,25.17,0,0,0,35.55,0l.05,0,0-.05a25.17,25.17,0,0,0,0-35.55ZM67,65.47,58.53,57A11,11,0,0,0,61,51.1H73A22.92,22.92,0,0,1,67,65.47ZM27,51.1H39A11,11,0,0,0,41.47,57L33,65.47A22.92,22.92,0,0,1,27,51.1Zm6-16.57L41.47,43A11,11,0,0,0,39,48.9H27A22.92,22.92,0,0,1,33,34.53Zm17,24.3A8.83,8.83,0,1,1,58.83,50,8.84,8.84,0,0,1,50,58.83Zm7-17.36A11,11,0,0,0,51.1,39V27a22.92,22.92,0,0,1,14.37,6ZM48.9,39A11,11,0,0,0,43,41.47L34.53,33A22.92,22.92,0,0,1,48.9,27ZM43,58.53A11,11,0,0,0,48.9,61V73a22.92,22.92,0,0,1-14.37-6ZM51.1,61A11,11,0,0,0,57,58.53L65.47,67A22.92,22.92,0,0,1,51.1,73ZM61,48.9A11,11,0,0,0,58.53,43L67,34.53A22.92,22.92,0,0,1,73,48.9ZM53.94,84v6.62c0,1.68-1.73,3-3.94,3s-3.94-1.31-3.94-3V84a1.1,1.1,0,0,1,2.2,0v6.62c0,.27.68.79,1.74.79s1.74-.52,1.74-.79V84a1.1,1.1,0,0,1,2.2,0ZM81.54,76a2.74,2.74,0,0,1,.66,2.53,4.76,4.76,0,0,1-1.33,2.37,4.44,4.44,0,0,1-3,1.4A2.57,2.57,0,0,1,76,81.54l-4.68-4.68a1.1,1.1,0,0,1,1.56-1.56L77.52,80c.19.19,1,.08,1.79-.67s.86-1.6.67-1.79L75.3,72.84a1.1,1.1,0,0,1,1.56-1.56ZM93.65,50c0,2.21-1.31,3.94-3,3.94H84a1.1,1.1,0,0,1,0-2.2h6.62c.27,0,.79-.68.79-1.74s-.52-1.74-.79-1.74H84a1.1,1.1,0,0,1,0-2.2h6.62C92.34,46.06,93.65,47.79,93.65,50ZM71.29,24.7a1.1,1.1,0,0,1,0-1.56L76,18.46a2.74,2.74,0,0,1,2.53-.66,5,5,0,0,1,3.7,3.7A2.74,2.74,0,0,1,81.54,24l-4.68,4.68a1.1,1.1,0,0,1-1.56-1.56L80,22.48c.19-.19.08-1-.67-1.79s-1.6-.86-1.79-.67L72.84,24.7A1.1,1.1,0,0,1,71.29,24.7ZM46.06,16V9.34c0-1.68,1.73-3,3.94-3s3.94,1.31,3.94,3V16a1.1,1.1,0,0,1-2.2,0V9.34c0-.27-.68-.79-1.74-.79s-1.74.52-1.74.79V16a1.1,1.1,0,0,1-2.2,0ZM18.46,24a2.74,2.74,0,0,1-.66-2.53,5,5,0,0,1,3.7-3.7,2.74,2.74,0,0,1,2.53.66l4.68,4.68a1.1,1.1,0,0,1-1.56,1.56L22.48,20a.67.67,0,0,0-.54-.06,2.82,2.82,0,0,0-2,2,.66.66,0,0,0,.06.54l4.68,4.68a1.1,1.1,0,1,1-1.56,1.56ZM8.55,50c0,1.06.52,1.74.79,1.74H16a1.1,1.1,0,1,1,0,2.2H9.34c-1.68,0-3-1.73-3-3.94s1.31-3.94,3-3.94H16a1.1,1.1,0,1,1,0,2.2H9.34C9.07,48.26,8.55,48.94,8.55,50ZM28.71,75.3a1.1,1.1,0,0,1,0,1.56L24,81.54a2.58,2.58,0,0,1-1.86.73,3.41,3.41,0,0,1-.67-.07,5,5,0,0,1-3.7-3.7A2.74,2.74,0,0,1,18.46,76l4.68-4.68a1.1,1.1,0,0,1,1.56,1.56L20,77.52a.66.66,0,0,0-.06.54,2.82,2.82,0,0,0,2,2,.66.66,0,0,0,.54-.06l4.68-4.68A1.1,1.1,0,0,1,28.71,75.3Z"/></svg>