<svg id="outline" xmlns="http://www.w3.org/2000/svg" viewBox="0 0 100 100"><defs><style>.cls-1{fill:#2892fc;}.cls-2{fill:#1a2530;}</style></defs><title></title><path id="_Path_" data-name="&lt;Path&gt;" class="cls-1" d="M55.69,82.62h9.9V74.11c0-5.61-10.29-8.51-15.6-8.51s-15.6,2.9-15.6,8.51v8.51h9.93s.81,7.09-5.67,7.09H61.36C54.88,89.72,55.69,82.62,55.69,82.62Z"/><path id="_Compound_Path_" data-name="&lt;Compound Path&gt;" class="cls-2" d="M41.79,51.62v2.43a8.19,8.19,0,1,0,16.38,0V51.62a8.19,8.19,0,1,0-16.38,0Zm14.18,0v2.43a6,6,0,1,1-12,0V51.62a6,6,0,1,1,12,0Zm25.25,20H77.31a5.32,5.32,0,0,0-3.79,1.57L66.69,80V74.11c0-6.4-10.71-9.61-16.7-9.61s-16.7,3.21-16.7,9.61V80l-6.81-6.8a5.32,5.32,0,0,0-3.79-1.57H18.78A6.78,6.78,0,0,0,12,78.37V94a1.1,1.1,0,1,0,2.2,0V78.37a4.58,4.58,0,0,1,4.57-4.57h3.91a3.14,3.14,0,0,1,2.23.92l9,9h9.31A5.89,5.89,0,0,1,42,87.35a4.25,4.25,0,0,1-3.36,1.27H29.16L21,80.43A1.1,1.1,0,0,0,19.42,82l5.35,5.35V94A1.1,1.1,0,1,0,27,94V90.82H73V94a1.1,1.1,0,1,0,2.2,0v-6.6L80.58,82A1.1,1.1,0,0,0,79,80.43L73.42,86a1.07,1.07,0,0,0-.17.17l-2.41,2.41H61.36A4.25,4.25,0,0,1,58,87.35a5.89,5.89,0,0,1-1.24-3.62h9.31l9-9a3.14,3.14,0,0,1,2.23-.92h3.91a4.58,4.58,0,0,1,4.57,4.57V94A1.1,1.1,0,1,0,88,94V78.37A6.78,6.78,0,0,0,81.22,71.6Zm-25,17H43.8c2-2.43,1.62-6,1.6-6.12l-.11-1H42.57v-6a1.1,1.1,0,1,0-2.2,0v6H35.48V74.11c0-4.6,9.39-7.41,14.5-7.41s14.5,2.81,14.5,7.41v7.41H59.59v-6a1.1,1.1,0,1,0-2.2,0v6H54.71l-.11,1C54.58,82.65,54.21,86.18,56.2,88.62ZM21.61,69.54a8.3,8.3,0,0,0,8.19-8.39V58.71a8.3,8.3,0,0,0-8.19-8.39,8.3,8.3,0,0,0-8.19,8.39v2.43A8.3,8.3,0,0,0,21.61,69.54Zm-6-10.83a6.1,6.1,0,0,1,6-6.2,6.1,6.1,0,0,1,6,6.2v2.43a6.1,6.1,0,0,1-6,6.19,6.1,6.1,0,0,1-6-6.19Zm54.54,0v2.43a8.19,8.19,0,1,0,16.38,0V58.71a8.19,8.19,0,1,0-16.38,0Zm8.19-6.2a6.1,6.1,0,0,1,6,6.2v2.43a6,6,0,1,1-12,0V58.71A6.1,6.1,0,0,1,78.35,52.52ZM25.87,39.75H29v7.41a3.08,3.08,0,0,0,2.2,2.91,3.6,3.6,0,0,0,1.14.19,3.05,3.05,0,0,0,2.47-1.17L42,39.75H72.68A5.36,5.36,0,0,0,78,34.4V10.28a5.36,5.36,0,0,0-5.35-5.36H25.87a5.36,5.36,0,0,0-5.35,5.36V34.4A5.36,5.36,0,0,0,25.87,39.75ZM22.71,10.28a3.16,3.16,0,0,1,3.16-3.16H72.68a3.16,3.16,0,0,1,3.16,3.16V34.4a3.16,3.16,0,0,1-3.16,3.16H40.93L33.08,47.76a1.06,1.06,0,0,1-1.16.23.91.91,0,0,1-.69-.83V37.55H25.87a3.16,3.16,0,0,1-3.16-3.16ZM36.12,16a1.1,1.1,0,0,1,1.1-1.1H62.75a1.1,1.1,0,0,1,0,2.2H37.22A1.1,1.1,0,0,1,36.12,16Zm0,5.67a1.1,1.1,0,0,1,1.1-1.1H62.75a1.1,1.1,0,0,1,0,2.2H37.22A1.1,1.1,0,0,1,36.12,21.63Zm0,5.67a1.1,1.1,0,0,1,1.1-1.1H50a1.1,1.1,0,0,1,0,2.2H37.22A1.1,1.1,0,0,1,36.12,27.3Z"/></svg>