<svg id="outline" xmlns="http://www.w3.org/2000/svg" viewBox="0 0 100 100"><defs><style>.cls-1{fill:#2892fc;}.cls-2{fill:#1a2530;}</style></defs><title></title><path id="_Path_" data-name="&lt;Path&gt;" class="cls-1" d="M68.46,21c-7.58-8.65-22-14.25-31.61-5.8-12.77,0-15.6,12.77-15.6,21.28h9.93c4.26-4.26,9.62-8.29,12-9.14,4.38,3.43,12,6.53,17.83,9.14H75.15C74.27,31.33,72.52,25.67,68.46,21Z"/><path id="_Compound_Path_" data-name="&lt;Compound Path&gt;" class="cls-2" d="M41.11,76.56H55.29a1.1,1.1,0,0,1,0,2.2H41.11a1.1,1.1,0,0,1,0-2.2Zm3.55-9.66a1.1,1.1,0,1,0-1.43,1.67,8.18,8.18,0,0,0,9.94,0,1.1,1.1,0,0,0-1.43-1.67,6,6,0,0,1-7.08,0ZM28.93,51.43a1.1,1.1,0,0,0,1.55.1A6,6,0,0,1,34,50.39h4.26a5.2,5.2,0,0,1,3.49,1.1,1.1,1.1,0,0,0,1.55-1.56,7.32,7.32,0,0,0-5-1.74H34a8.13,8.13,0,0,0-5,1.69A1.1,1.1,0,0,0,28.93,51.43ZM40.79,55a1.1,1.1,0,0,0-1.1-1.1H32.6a1.1,1.1,0,1,0,0,2.2h7.09A1.1,1.1,0,0,0,40.79,55Zm21.6-4.57a6,6,0,0,1,3.53,1.15,1.1,1.1,0,1,0,1.45-1.66,8.13,8.13,0,0,0-5-1.69H58.13a7.32,7.32,0,0,0-5,1.74,1.09,1.09,0,0,0,0,1.54,1.11,1.11,0,0,0,1.55,0,5.19,5.19,0,0,1,3.49-1.11ZM64.91,55a1.1,1.1,0,0,0-1.1-1.1H56.71a1.1,1.1,0,1,0,0,2.2h7.09A1.1,1.1,0,0,0,64.91,55ZM61.51,84.08c-2.76,3.61-8.86,6.66-13.31,6.66s-10.55-3.05-13.31-6.66a1.1,1.1,0,1,0-1.75,1.34c3.17,4.15,9.93,7.52,15.06,7.52s11.88-3.38,15.06-7.52a1.1,1.1,0,1,0-1.75-1.34ZM21.25,37.62a1.1,1.1,0,0,0,1.1-1.1c0-4.73,1-20.18,14.5-20.18a1.1,1.1,0,0,0,.73-.28,15.63,15.63,0,0,1,11.77-3.87c6.47.42,13.48,4.08,18.28,9.56,3.25,3.71,5.35,8.6,6.43,14.94a1.1,1.1,0,0,0,1.08.92l.19,0a1.1,1.1,0,0,0,.9-1.27c-1.15-6.76-3.42-12-6.95-16C64.11,14.41,56.53,10.46,49.49,10a18,18,0,0,0-13.05,4.14c-4.33.12-16.29,2.29-16.29,22.37A1.1,1.1,0,0,0,21.25,37.62Zm9.15-.32a1.1,1.1,0,0,0,1.56,0c4.05-4.05,8.74-7.55,11-8.65,3.77,2.79,9.41,5.28,14.64,7.59l2.88,1.28a1.1,1.1,0,0,0,.9-2l-2.9-1.29c-7.43-3.28-17.61-7.78-17.73-11.92a1.08,1.08,0,0,0-1.13-1.07,1.1,1.1,0,0,0-1.07,1.13,7.09,7.09,0,0,0,2.58,4.76A59,59,0,0,0,30.4,35.75,1.1,1.1,0,0,0,30.4,37.3Zm-12,17.34a1.1,1.1,0,0,0,1.1-1.1V43.3H31.18a1.1,1.1,0,0,0,0-2.2H18.41a1.1,1.1,0,0,0-1.1,1.1V53.55A1.1,1.1,0,0,0,18.41,54.65ZM31.18,78H19.51V67.73a1.1,1.1,0,1,0-2.2,0V79.08a1.1,1.1,0,0,0,1.1,1.1H31.18a1.1,1.1,0,0,0,0-2.2ZM78,41.1H65.22a1.1,1.1,0,1,0,0,2.2H76.89V53.55a1.1,1.1,0,1,0,2.2,0V42.2A1.1,1.1,0,0,0,78,41.1Zm0,25.53a1.1,1.1,0,0,0-1.1,1.1V78H65.22a1.1,1.1,0,1,0,0,2.2H78a1.1,1.1,0,0,0,1.1-1.1V67.73A1.1,1.1,0,0,0,78,66.63Zm16.7-40a1.1,1.1,0,0,1-1.1,1.1H90.76a1.09,1.09,0,0,1-.4-.08,1.09,1.09,0,0,1,.08.4v2.84a1.1,1.1,0,1,1-2.2,0V28a1.09,1.09,0,0,1,.08-.4,1.09,1.09,0,0,1-.4.08H85.08a1.1,1.1,0,0,1,0-2.2h2.84a1.09,1.09,0,0,1,.4.08,1.09,1.09,0,0,1-.08-.4V22.34a1.1,1.1,0,1,1,2.2,0v2.84a1.09,1.09,0,0,1-.08.4,1.09,1.09,0,0,1,.4-.08h2.84A1.1,1.1,0,0,1,94.69,26.6Zm-5.36.32a1.09,1.09,0,0,1,.4.08,1,1,0,0,1,0-.8,1,1,0,0,1-.8,0,1,1,0,0,1,0,.8A1.09,1.09,0,0,1,89.34,26.91Zm-4.9-9.61L81.6,14.47A1.1,1.1,0,0,0,80,16l2.84,2.84a1.1,1.1,0,0,0,1.56-1.56Zm-8.65-5.54a1.1,1.1,0,1,0,1.56-1.56L74.51,7.38A1.1,1.1,0,1,0,73,8.93Zm-2.06,7.41a1.1,1.1,0,0,0,.78-.32L77.35,16a1.1,1.1,0,0,0-1.56-1.56L73,17.31a1.1,1.1,0,0,0,.78,1.88Zm7.09-7.09a1.1,1.1,0,0,0,.78-.32l2.84-2.84a1.1,1.1,0,1,0-1.56-1.56L80,10.22a1.1,1.1,0,0,0,.78,1.88Z"/></svg>