<svg id="outline" xmlns="http://www.w3.org/2000/svg" viewBox="0 0 100 100"><defs><style>.cls-1{fill:#2892fc;}.cls-2{fill:#1a2530;}</style></defs><title></title><polygon id="_Path_" data-name="&lt;Path&gt;" class="cls-1" points="69.86 45.55 54.26 52.64 54.26 71.08 69.86 78.18 85.46 71.08 85.46 52.64 69.86 45.55"/><polygon id="_Path_2" data-name="&lt;Path&gt;" class="cls-1" points="18.79 24.27 7.45 24.27 7.45 21.44 15.96 12.93 18.79 12.93 18.79 24.27"/><path id="_Compound_Path_" data-name="&lt;Compound Path&gt;" class="cls-2" d="M62.45,79.59v5.67a1.1,1.1,0,0,1-1.1,1.1H7.45a1.1,1.1,0,0,1-1.1-1.1V21.44a1.1,1.1,0,0,1,.32-.78l8.51-8.51a1.1,1.1,0,0,1,.78-.32H61.35a1.1,1.1,0,0,1,1.1,1.1V44.13a1.1,1.1,0,0,1-2.2,0V14H16.41L8.55,21.89V84.17h51.7V79.59a1.1,1.1,0,1,1,2.2,0ZM19.89,24.27V15.76a1.1,1.1,0,1,0-2.2,0v7.41H10.28a1.1,1.1,0,1,0,0,2.2h8.51A1.1,1.1,0,0,0,19.89,24.27ZM86.56,52.63V71.08a1.1,1.1,0,0,1-.65,1l-15.6,7.09h0a1.07,1.07,0,0,1-.88,0h0L53.8,72.08a1.1,1.1,0,0,1-.65-1V52.63s0,0,0-.06a1.09,1.09,0,0,1,.07-.32s0,0,0-.05l0,0a1.09,1.09,0,0,1,.19-.27l0,0a1.1,1.1,0,0,1,.28-.18l15.6-7.09a1.1,1.1,0,0,1,.91,0l15.6,7.09a1.1,1.1,0,0,1,.28.19l0,0a1.09,1.09,0,0,1,.19.27l0,0s0,0,0,.05a1.08,1.08,0,0,1,.07.32S86.56,52.61,86.56,52.63Zm-29.64,0,12.94,5.88L82.8,52.64,69.86,46.76ZM55.36,70.37l13.4,6.09v-16l-13.4-6.09Zm29,0v-16L71,60.44v16ZM93,46.61l-24.11-11a1.1,1.1,0,0,0-.91,2L91.45,48.32V75.4L68,86.07a1.1,1.1,0,1,0,.91,2L93,77.11a1.1,1.1,0,0,0,.65-1V47.61A1.1,1.1,0,0,0,93,46.61ZM26.57,29.09a1.1,1.1,0,0,0-1.55.17l-4.91,6.13-2-2A1.1,1.1,0,1,0,16.6,35l2.84,2.84a1.1,1.1,0,0,0,.78.32h.06a1.1,1.1,0,0,0,.8-.41l5.67-7.09A1.1,1.1,0,0,0,26.57,29.09Zm0,11.35a1.1,1.1,0,0,0-1.55.17l-4.91,6.13-2-2a1.1,1.1,0,1,0-1.56,1.56l2.84,2.84a1.1,1.1,0,0,0,.78.32h.06a1.1,1.1,0,0,0,.8-.41L26.75,42A1.1,1.1,0,0,0,26.57,40.44Zm0,11.35A1.1,1.1,0,0,0,25,52l-4.91,6.13-2-2a1.1,1.1,0,1,0-1.56,1.56l2.84,2.84a1.1,1.1,0,0,0,.78.32h.06a1.1,1.1,0,0,0,.8-.41l5.67-7.09A1.1,1.1,0,0,0,26.57,51.79ZM25,63.3l-4.91,6.13-2-2A1.1,1.1,0,0,0,16.6,69l2.84,2.84a1.1,1.1,0,0,0,.78.32h.06a1.1,1.1,0,0,0,.8-.41l5.67-7.09A1.1,1.1,0,1,0,25,63.3ZM50,33.1H31.56a1.1,1.1,0,1,0,0,2.2H50a1.1,1.1,0,1,0,0-2.2Zm0,11.35H31.56a1.1,1.1,0,1,0,0,2.2H50a1.1,1.1,0,1,0,0-2.2ZM50,55.8H31.56a1.1,1.1,0,1,0,0,2.2H50a1.1,1.1,0,1,0,0-2.2Zm0,11.35H31.56a1.1,1.1,0,1,0,0,2.2H50a1.1,1.1,0,1,0,0-2.2Z"/></svg>