<svg id="outline" xmlns="http://www.w3.org/2000/svg" viewBox="0 0 100 100"><defs><style>.cls-1{fill:#2892fc;}.cls-2{fill:#1a2530;}</style></defs><title></title><path id="_Path_" data-name="&lt;Path&gt;" class="cls-1" d="M62.9,70.57,47.72,85.75A2.68,2.68,0,0,0,48,89.52l1,1a2.68,2.68,0,0,0,3.77.24L67.86,75.64Z"/><path id="_Compound_Path_" data-name="&lt;Compound Path&gt;" class="cls-2" d="M43.62,80.59a37,37,0,0,0,5.17-.36,1.1,1.1,0,1,0-.31-2.18,34.69,34.69,0,0,1-3.76.3V60.77l10.25,0a1.1,1.1,0,0,0,0-2.2h0l-10.24,0V29.37H59.26A62.73,62.73,0,0,1,61,44q0,1,0,2a1.1,1.1,0,1,0,2.2.06q0-1,0-2a65.29,65.29,0,0,0-1.63-14.66H74.7A34.13,34.13,0,0,1,77.92,42a1.1,1.1,0,1,0,2.2-.13A36.58,36.58,0,0,0,43.62,7.47h0a36.56,36.56,0,0,0,0,73.12h0Zm-1.1-2.28c-6-.75-11.21-7.61-14-17.48l14-.05Zm0-19.73-14.59.05A63.47,63.47,0,0,1,26.28,44a63.44,63.44,0,0,1,1.66-14.66H42.52Zm0-48.83V27.17h-14C31.33,17.33,36.51,10.5,42.52,9.75Zm2.2,17.42V9.75c4.09.52,7.95,3.92,11,9.72a42,42,0,0,1,3,7.71Zm28.84,0H61a44.67,44.67,0,0,0-3.35-8.72,25.13,25.13,0,0,0-6-7.83A34.47,34.47,0,0,1,73.55,27.17Zm-38-16.53c-4,3.36-7.32,9.19-9.32,16.53H13.69A34.48,34.48,0,0,1,35.53,10.64Zm-23,18.73H25.66A66.24,66.24,0,0,0,24.08,44a66.28,66.28,0,0,0,1.57,14.61l-13.13,0a34.42,34.42,0,0,1,0-29.32Zm1.12,31.52,12.53,0c2,7.38,5.29,13.24,9.36,16.6a34.13,34.13,0,0,1-16.23-9.11A34.51,34.51,0,0,1,13.67,60.89ZM76.24,45.77A16.69,16.69,0,0,0,61.53,70.38L46.94,85a3.78,3.78,0,0,0,.24,5.33l1,1a4.1,4.1,0,0,0,2.88,1.23,3.42,3.42,0,0,0,2.44-1L68,77a16.7,16.7,0,1,0,8.2-31.24ZM52,90a1.6,1.6,0,0,1-2.21-.24l-1-1a1.6,1.6,0,0,1-.24-2.21L62.75,72.28a16.82,16.82,0,0,0,3.43,3.49ZM76.24,77a14.5,14.5,0,1,1,14.5-14.5A14.52,14.52,0,0,1,76.24,77Z"/></svg>