<svg id="outline" xmlns="http://www.w3.org/2000/svg" viewBox="0 0 100 100"><defs><style>.cls-1{fill:#2892fc;}.cls-2{fill:#1a2530;}</style></defs><title></title><path id="_Path_" data-name="&lt;Path&gt;" class="cls-1" d="M29.37,26.69c4.15,6.33,12.9,7.81,12.9,7.81s2.39-8.79-1.76-15.12-12.1-6.3-12.1-6.3S25.22,20.36,29.37,26.69Z"/><polygon id="_Path_2" data-name="&lt;Path&gt;" class="cls-1" points="83.21 10.28 83.21 18.79 91.72 18.79 81.79 30.14 71.86 30.14 71.86 21.63 83.21 10.28"/><path id="_Compound_Path_" data-name="&lt;Compound Path&gt;" class="cls-2" d="M45.55,54.9a1.1,1.1,0,1,0,1.56,1.56L72.32,31.24h9.47a1.1,1.1,0,0,0,.83-.38l9.93-11.35a1.1,1.1,0,0,0-.83-1.82H84.31V10.28a1.1,1.1,0,0,0-1.88-.78L71.08,20.85a1.1,1.1,0,0,0-.32.78v8.05ZM73,22.09l9.15-9.15v5.85a1.1,1.1,0,0,0,1.1,1.1h6.09l-8,9.15H73ZM43.27,54.91a3.16,3.16,0,0,0,3.06,3.92,3.13,3.13,0,0,0,1.41-.33,1.1,1.1,0,1,1,1,2,5.31,5.31,0,0,1-2.4.56,5.36,5.36,0,0,1-5.2-6.65,1.1,1.1,0,1,1,2.13.53ZM64.94,42.65a1.1,1.1,0,0,0,0,1.56c5.84,6.12,7.21,14.91,4,25.43-3.16,10.2-9.71,17-18,18.78a13.23,13.23,0,0,1-7.08-.72A10.13,10.13,0,0,0,38,87.61a37,37,0,0,1-6.63,1c-6.37-.08-15-6-19-18.88-3.73-12.07-1.55-21.5,6.5-28a15.55,15.55,0,0,1,12.6-3,47.2,47.2,0,0,1,5.12,1.43,16,16,0,0,0,5.54,1.09h.17A11.18,11.18,0,0,0,46,40.08a15.78,15.78,0,0,1,10.54-1.22A1.1,1.1,0,0,0,57,36.72,17.92,17.92,0,0,0,45.18,38a17.63,17.63,0,0,1-2.12.77,17.1,17.1,0,0,1,.31-4.13c0-.17.13-.55.24-1.11a31,31,0,0,1,7.56-13.33,1.1,1.1,0,1,0-1.6-1.51A35.72,35.72,0,0,0,44,26.57a16.88,16.88,0,0,0-2.54-7.8C37,12,28.74,12,28.41,12a1.1,1.1,0,0,0-1,.66c-.14.32-3.38,7.91,1,14.66,3.53,5.39,10,7.44,12.58,8.06a18.57,18.57,0,0,0-.18,3.55A17,17,0,0,1,37.22,38a49.55,49.55,0,0,0-5.34-1.49A17.62,17.62,0,0,0,17.43,40c-6.06,4.9-12.24,14.15-7.22,30.36,3,9.75,10.91,20.3,21.1,20.43a42.49,42.49,0,0,0,7.23-1,8.08,8.08,0,0,1,4.42,0,15.36,15.36,0,0,0,5.77,1.09,13,13,0,0,0,2.61-.24c9.08-1.9,16.23-9.3,19.63-20.29,3.5-11.32,2-20.86-4.47-27.6A1.1,1.1,0,0,0,64.94,42.65ZM30.29,26.09c-3.05-4.66-1.75-10-1.13-11.87,2,.18,7.38,1.11,10.43,5.76s2.29,10.79,1.84,13.21C39.09,32.59,33.32,30.7,30.29,26.09Zm-12,32.33a1.1,1.1,0,0,1-1,1.19h-.1a1.1,1.1,0,0,1-1.09-1C15.49,51.41,19.65,44,24.85,43a1.1,1.1,0,1,1,.39,2.17C21.64,45.86,17.74,51.9,18.31,58.41Zm69.93-7.77a1.1,1.1,0,0,1,0,1.56L85.4,55a1.1,1.1,0,0,1-1.56-1.56l2.84-2.84A1.1,1.1,0,0,1,88.24,50.64Zm2.7-4.26,2.84-2.84a1.1,1.1,0,0,1,1.56,1.56L92.5,47.94a1.1,1.1,0,0,1-1.56-1.56Zm4.39,7.09A1.1,1.1,0,1,1,93.78,55L90.94,52.2a1.1,1.1,0,1,1,1.56-1.56Zm-7.09-7.09a1.1,1.1,0,1,1-1.56,1.56L83.85,45.1a1.1,1.1,0,1,1,1.56-1.56ZM87.14,67a1.1,1.1,0,0,1-1.1,1.1H82.89v3.16a1.1,1.1,0,1,1-2.2,0V68.12H77.53a1.1,1.1,0,0,1,0-2.2h3.16V62.77a1.1,1.1,0,1,1,2.2,0v3.16H86A1.1,1.1,0,0,1,87.14,67Z"/></svg>