<svg id="outline" xmlns="http://www.w3.org/2000/svg" viewBox="0 0 100 100"><defs><style>.cls-1{fill:#2892fc;}.cls-2{fill:#1a2530;}</style></defs><title></title><path id="_Path_" data-name="&lt;Path&gt;" class="cls-1" d="M56.86,62.06A7.09,7.09,0,1,0,45.51,67.7V86.17l4.26-4.26L54,86.17h0V67.7A7.06,7.06,0,0,0,56.86,62.06Z"/><path id="_Compound_Path_" data-name="&lt;Compound Path&gt;" class="cls-2" d="M94.21,66.75c-2,3.6-3.88,6.22-6.63,7.36a1.1,1.1,0,0,1-.84-2c1.71-.7,3.15-2.25,5-5.41a8.62,8.62,0,0,0-5.93-.61C83,66.8,80.51,69,78.58,72.4a1.1,1.1,0,0,1-1.91-1.09c2.23-3.93,5.19-6.48,8.56-7.38a11,11,0,0,1,8.58,1.34A1.1,1.1,0,0,1,94.21,66.75ZM87.54,79.56a1.1,1.1,0,0,1,0,1.55c-3.39,3.54-6.82,5.34-10.2,5.34h-.48c-2.73-.14-5.41-1.45-8-3.9a1.1,1.1,0,0,1,0-1.55A14.75,14.75,0,0,1,78.41,76,11.87,11.87,0,0,1,87.54,79.56Zm-2.37.85a9.42,9.42,0,0,0-6.61-2.17,12.06,12.06,0,0,0-7.28,3.48A9.76,9.76,0,0,0,77,84.25C79.62,84.37,82.37,83.09,85.17,80.41ZM80.65,61a1.1,1.1,0,0,0,1,1.17h.07a1.1,1.1,0,0,0,1.1-1c.45-6.78,4.22-10.92,9.93-11-.45,4-1.81,6.8-4,8.36A1.1,1.1,0,0,0,90,60.23c3-2.1,4.73-5.85,5.09-11.16a1.1,1.1,0,0,0-1-1.17C86.47,47.39,81.21,52.52,80.65,61Zm.72-10.77a1.1,1.1,0,0,0,1-1.44c-2.09-6.47-.11-11.7,5.15-13.93,1.06,3.88.83,7-.68,9.27a1.1,1.1,0,1,0,1.83,1.22c2-3.07,2.25-7.2.61-12.27a1.1,1.1,0,0,0-1.38-.71c-7.23,2.33-10.22,9-7.62,17.09A1.1,1.1,0,0,0,81.37,50.19Zm-68.57,24a1.1,1.1,0,0,0,.42-2.12c-1.7-.7-3.13-2.25-5-5.41a8.48,8.48,0,0,1,5.87-.61c2.77.74,5.25,2.94,7.17,6.35a1.1,1.1,0,1,0,1.92-1.08C21,67.38,18,64.82,14.7,63.92a10.92,10.92,0,0,0-8.5,1.34,1.1,1.1,0,0,0-.41,1.48c2,3.6,3.85,6.23,6.59,7.36A1.1,1.1,0,0,0,12.8,74.19ZM30.94,81a1.1,1.1,0,0,1,0,1.55c-2.7,2.6-5.52,3.91-8.4,3.91h-.22c-3.29-.08-6.63-1.87-9.92-5.34a1.1,1.1,0,0,1,0-1.55A11.78,11.78,0,0,1,21,76C24.48,76.1,27.93,77.82,30.94,81Zm-2.4.72a11.69,11.69,0,0,0-7.64-3.5,9.34,9.34,0,0,0-6.14,2.19c2.59,2.5,5.14,3.79,7.57,3.84A9.33,9.33,0,0,0,28.54,81.71ZM10,60.22a1.1,1.1,0,1,0,1.26-1.8c-2.22-1.55-3.57-4.36-4-8.36a9.32,9.32,0,0,1,6.4,2.57,12.67,12.67,0,0,1,3.44,8.47,1.1,1.1,0,0,0,1.1,1h.07a1.1,1.1,0,0,0,1-1.17,14.81,14.81,0,0,0-4.1-9.91A11.72,11.72,0,0,0,6,47.89a1.1,1.1,0,0,0-1,1.17C5.28,54.37,7,58.12,10,60.22Zm2.78-14.6a1.1,1.1,0,0,0,.31-1.52c-1.5-2.27-1.73-5.39-.68-9.27,5.21,2.23,7.16,7.46,5.09,13.93a1.1,1.1,0,0,0,.71,1.38,1.12,1.12,0,0,0,.34.05,1.1,1.1,0,0,0,1-.77c2.58-8-.39-14.76-7.57-17.09a1.1,1.1,0,0,0-1.39.71c-1.62,5.07-1.42,9.2.61,12.26A1.1,1.1,0,0,0,12.76,45.62ZM72.7,73.09H55.36V86.17a1.1,1.1,0,0,1-1.88.78L50,83.47l-3.48,3.48a1.1,1.1,0,0,1-1.88-.78V73.09H27.3A1.1,1.1,0,0,1,26.2,72V13.83a1.1,1.1,0,0,1,1.1-1.1H72.7a1.1,1.1,0,0,1,1.1,1.1V72A1.1,1.1,0,0,1,72.7,73.09Zm-19.54-2.2V69.61a8.17,8.17,0,0,1-6.31,0v13.9l2.38-2.38a1.1,1.1,0,0,1,1.56,0l2.38,2.38V70.89ZM56,62.06a6,6,0,1,0-1.78,4.25A6,6,0,0,0,56,62.06Zm15.6-47.13H28.41v56H44.64V68.24a8.19,8.19,0,1,1,10.71,0v2.65H71.59ZM38.65,34.79H61.35a1.1,1.1,0,1,0,0-2.2H38.65a1.1,1.1,0,1,0,0,2.2Zm18.44,3.47H42.91a1.1,1.1,0,1,0,0,2.2H57.09a1.1,1.1,0,1,0,0-2.2Z"/></svg>