<svg id="outline" xmlns="http://www.w3.org/2000/svg" viewBox="0 0 100 100"><defs><style>.cls-1{fill:#2892fc;}.cls-2{fill:#1a2530;}</style></defs><title></title><path id="_Path_" data-name="&lt;Path&gt;" class="cls-1" d="M81.21,55.67H45.74l-5.67,5.67V67h2.84a2.84,2.84,0,0,1,2.84,2.84v4.26h1.42A2.84,2.84,0,0,1,50,77v1.42H81.21a4.26,4.26,0,0,1,4.26-4.26V59.93A4,4,0,0,1,81.21,55.67Z"/><g id="_Group_" data-name="&lt;Group&gt;"><g id="_Group_2" data-name="&lt;Group&gt;"><g id="_Group_3" data-name="&lt;Group&gt;"><path id="_Path_2" data-name="&lt;Path&gt;" class="cls-2" d="M81.21,79.47h-27a1.1,1.1,0,1,1,0-2.2h26a5.37,5.37,0,0,1,4.14-4.14V60.92a5.37,5.37,0,0,1-4.14-4.14H48.58a1.1,1.1,0,0,1,0-2.2H81.21a1.1,1.1,0,0,1,1.1,1.1,3.16,3.16,0,0,0,3.16,3.16,1.1,1.1,0,0,1,1.1,1.1V74.11a1.1,1.1,0,0,1-1.1,1.1,3.16,3.16,0,0,0-3.16,3.16A1.1,1.1,0,0,1,81.21,79.47Z"/></g><g id="_Group_4" data-name="&lt;Group&gt;"><path id="_Compound_Path_" data-name="&lt;Compound Path&gt;" class="cls-2" d="M62.77,75.21h0a8.19,8.19,0,0,1,0-16.38h0a8.19,8.19,0,0,1,0,16.38Zm0-14.18a6,6,0,0,0,0,12h0a6,6,0,1,0,0-12Z"/></g><g id="_Group_5" data-name="&lt;Group&gt;"><path id="_Path_3" data-name="&lt;Path&gt;" class="cls-2" d="M91.13,85.14H54.26a1.1,1.1,0,1,1,0-2.2H90V51.1H45.74a1.1,1.1,0,1,1,0-2.2H91.13a1.1,1.1,0,0,1,1.1,1.1V84A1.1,1.1,0,0,1,91.13,85.14Z"/></g><g id="_Group_6" data-name="&lt;Group&gt;"><path id="_Path_4" data-name="&lt;Path&gt;" class="cls-2" d="M78.37,68.12H75.53a1.1,1.1,0,0,1,0-2.2h2.84a1.1,1.1,0,0,1,0,2.2Z"/></g></g><g id="_Group_7" data-name="&lt;Group&gt;"><g id="_Group_8" data-name="&lt;Group&gt;"><path id="_Path_5" data-name="&lt;Path&gt;" class="cls-2" d="M13.12,75.21a1.1,1.1,0,0,1-1.1-1.1V69.86A3.94,3.94,0,0,1,16,65.92h9.93a1.1,1.1,0,0,1,0,2.2H16a1.74,1.74,0,0,0-1.74,1.74v4.26A1.1,1.1,0,0,1,13.12,75.21Z"/></g><g id="_Group_9" data-name="&lt;Group&gt;"><path id="_Path_6" data-name="&lt;Path&gt;" class="cls-2" d="M45.74,75.21a1.1,1.1,0,0,1-1.1-1.1V69.86a1.74,1.74,0,0,0-1.74-1.74H35.82a1.1,1.1,0,1,1,0-2.2h7.09a3.94,3.94,0,0,1,3.94,3.94v4.26A1.1,1.1,0,0,1,45.74,75.21Z"/></g><g id="_Group_10" data-name="&lt;Group&gt;"><path id="_Path_7" data-name="&lt;Path&gt;" class="cls-2" d="M50,85.14H8.86A1.1,1.1,0,0,1,7.76,84V77A3.94,3.94,0,0,1,11.7,73h17a1.1,1.1,0,1,1,0,2.2h-17A1.74,1.74,0,0,0,10,77v6H48.9V77a1.74,1.74,0,0,0-1.74-1.74H38.65a1.1,1.1,0,0,1,0-2.2h8.51A3.94,3.94,0,0,1,51.1,77V84A1.1,1.1,0,0,1,50,85.14Z"/></g><g id="_Group_11" data-name="&lt;Group&gt;"><path id="_Path_8" data-name="&lt;Path&gt;" class="cls-2" d="M34.4,75.21H31.56a1.1,1.1,0,1,1,0-2.2H34.4a1.1,1.1,0,1,1,0,2.2Z"/></g><g id="_Group_12" data-name="&lt;Group&gt;"><path id="_Path_9" data-name="&lt;Path&gt;" class="cls-2" d="M31.56,68.12H28.72a1.1,1.1,0,0,1,0-2.2h2.84a1.1,1.1,0,0,1,0,2.2Z"/></g><g id="_Group_13" data-name="&lt;Group&gt;"><path id="_Path_10" data-name="&lt;Path&gt;" class="cls-2" d="M40.07,68.12A1.1,1.1,0,0,1,39,67V61.35a1.1,1.1,0,0,1,.32-.78l4.9-4.9L35,46.52a1.1,1.1,0,0,1-.32-.78V40.07a1.1,1.1,0,0,1,2.2,0v5.22l9.61,9.61a1.1,1.1,0,0,1,0,1.56L41.17,61.8V67A1.1,1.1,0,0,1,40.07,68.12Z"/></g><g id="_Group_14" data-name="&lt;Group&gt;"><path id="_Path_11" data-name="&lt;Path&gt;" class="cls-2" d="M45.74,45.43A1.1,1.1,0,0,1,45,45.1L41,41.17H33A6.78,6.78,0,0,1,26.2,34.4a1.1,1.1,0,1,1,2.2,0A4.58,4.58,0,0,0,33,39h8.51a1.1,1.1,0,0,1,.78.32l3.48,3.48,3.16-3.16V36.27L36.46,23.83A1.1,1.1,0,0,1,38,22.27L50.78,35a1.1,1.1,0,0,1,.32.78v4.26a1.1,1.1,0,0,1-.32.78L46.52,45.1A1.1,1.1,0,0,1,45.74,45.43Z"/></g><g id="_Group_15" data-name="&lt;Group&gt;"><path id="_Path_12" data-name="&lt;Path&gt;" class="cls-2" d="M18.79,68.12a1.1,1.1,0,0,1-1.1-1.1V56.13L13.76,52.2a1.1,1.1,0,0,1-.32-.78v-17A19.56,19.56,0,0,1,33,14.86,17.72,17.72,0,0,1,45.1,19.43a1.1,1.1,0,0,1,0,1.56l-4.26,4.26a1.1,1.1,0,0,1-1.56-1.56l3.43-3.43A16,16,0,0,0,33,17.06,17.36,17.36,0,0,0,15.64,34.4V51l3.93,3.93a1.1,1.1,0,0,1,.32.78V67A1.1,1.1,0,0,1,18.79,68.12Z"/></g><g id="_Group_16" data-name="&lt;Group&gt;"><path id="_Path_13" data-name="&lt;Path&gt;" class="cls-2" d="M20.21,39.75a1.1,1.1,0,0,1-1.1-1.1V33A12.46,12.46,0,0,1,31.56,20.53a1.1,1.1,0,0,1,0,2.2A10.26,10.26,0,0,0,21.31,33v5.67A1.1,1.1,0,0,1,20.21,39.75Z"/></g></g></g></svg>