<svg id="outline" xmlns="http://www.w3.org/2000/svg" viewBox="0 0 100 100"><defs><style>.cls-1{fill:#2892fc;}.cls-2{fill:#1a2530;}</style></defs><title></title><rect id="_Path_" data-name="&lt;Path&gt;" class="cls-1" x="71.46" y="59.8" width="8.46" height="33.19" rx="2.84" ry="2.84" transform="translate(-31.85 75.9) rotate(-45)"/><g id="_Group_" data-name="&lt;Group&gt;"><line id="_Line_" data-name="&lt;Line&gt;" class="cls-1" x1="50.47" y1="29.91" x2="51.89" y2="28.5"/><path id="_Path_2" data-name="&lt;Path&gt;" class="cls-1" d="M48.48,22.82A9.07,9.07,0,0,0,39.9,34.89L26.36,48.44V54H32l2.8-2.8v-1.4L36.62,48H38l1.38-1.38v-1.4l1.4-1.4h1.4l3.31-3.31a9.08,9.08,0,1,0,3-17.66Z"/></g><path id="_Compound_Path_" data-name="&lt;Compound Path&gt;" class="cls-2" d="M33.59,17.9A22.94,22.94,0,0,0,19.16,31.31a1.1,1.1,0,1,1-2-.82A25.13,25.13,0,0,1,32.92,15.8a1.1,1.1,0,1,1,.66,2.1ZM16.9,35a1.1,1.1,0,0,0-1.26.92,25.47,25.47,0,0,0-.31,3.95,1.1,1.1,0,1,0,2.2,0,23.24,23.24,0,0,1,.28-3.6A1.1,1.1,0,0,0,16.9,35Zm72.3,52.94-2,2a3.94,3.94,0,0,1-5.57,0L62.19,70.43a3.94,3.94,0,0,1,0-5.57l.2-.2L60.83,63.1a30.74,30.74,0,1,1,1.61-1.5l1.51,1.51.22-.22a4,4,0,0,1,5.57,0L89.19,82.35A3.94,3.94,0,0,1,89.19,87.92ZM40.54,68.53A28.69,28.69,0,1,0,11.86,39.84,28.72,28.72,0,0,0,40.54,68.53ZM87.63,83.91,68.18,64.45a1.74,1.74,0,0,0-2.46,0l-2,2a1.74,1.74,0,0,0,0,2.46h0L83.21,88.34a1.74,1.74,0,0,0,2.46,0l2-2A1.74,1.74,0,0,0,87.63,83.91ZM51.11,27.72l-1.42,1.42a1.1,1.1,0,0,0,1.56,1.56l1.42-1.42a1.1,1.1,0,0,0-1.56-1.56Zm7.55,4.19A10.2,10.2,0,0,1,48.48,42.09a10.08,10.08,0,0,1-2.67-.36L43,44.57a1.1,1.1,0,0,1-.78.32h-.94l-.75.75v.94a1.1,1.1,0,0,1-.32.78l-1.38,1.38a1.1,1.1,0,0,1-.78.32h-.94l-1.23,1.23v.94a1.1,1.1,0,0,1-.32.78l-2.8,2.8a1.1,1.1,0,0,1-.78.32H26.36a1.1,1.1,0,0,1-1.1-1.1V48.44a1.1,1.1,0,0,1,.32-.78L38.66,34.58a10.07,10.07,0,0,1-.36-2.67,10.19,10.19,0,1,1,20.37,0Zm-2.2,0a8,8,0,1,0-15.52,2.62,1.1,1.1,0,0,1-.26,1.14L27.46,48.89v4h4l2.15-2.15v-.94a1.1,1.1,0,0,1,.32-.78l1.87-1.87a1.1,1.1,0,0,1,.78-.32h.94l.73-.73v-.94a1.1,1.1,0,0,1,.32-.78L40,43a1.1,1.1,0,0,1,.78-.32h.94l3-3a1.1,1.1,0,0,1,1.14-.26,8,8,0,0,0,10.61-7.54Zm27.73,25a1.1,1.1,0,1,0-2.2,0V60H78.84a1.1,1.1,0,0,0,0,2.2H82v3.16a1.1,1.1,0,1,0,2.2,0V62.22h3.16a1.1,1.1,0,0,0,0-2.2H84.2ZM76,46.62h3.16v3.16a1.1,1.1,0,1,0,2.2,0V46.62h3.16a1.1,1.1,0,0,0,0-2.2H81.36V41.26a1.1,1.1,0,1,0-2.2,0v3.15H76a1.1,1.1,0,0,0,0,2.2ZM59,77H55.83V73.89a1.1,1.1,0,1,0-2.2,0V77H50.47a1.1,1.1,0,0,0,0,2.2h3.16V82.4a1.1,1.1,0,1,0,2.2,0V79.24H59A1.1,1.1,0,0,0,59,77Z"/></svg>