<svg id="outline" xmlns="http://www.w3.org/2000/svg" viewBox="0 0 100 100"><defs><style>.cls-1{fill:#2892fc;}.cls-2{fill:#1a2530;}</style></defs><title></title><circle id="_Ellipse_" data-name="&lt;Ellipse&gt;" class="cls-1" cx="28.72" cy="52.13" r="9.93"/><path id="_Compound_Path_" data-name="&lt;Compound Path&gt;" class="cls-2" d="M80.89,73.4a1.1,1.1,0,0,1-1.1,1.1H38.65a1.1,1.1,0,0,1,0-2.2H79.79A1.1,1.1,0,0,1,80.89,73.4Zm6-5.36a1.1,1.1,0,0,0-1.1,1.1V72.3H82.62a1.1,1.1,0,0,0,0,2.2h4.26A1.1,1.1,0,0,0,88,73.4V69.15A1.1,1.1,0,0,0,86.88,68Zm0-44a1.1,1.1,0,0,0-1.1,1.1V66.31a1.1,1.1,0,1,0,2.2,0V25.18A1.1,1.1,0,0,0,86.88,24.08Zm0-7.09H82.62a1.1,1.1,0,0,0,0,2.2h3.16v3.16a1.1,1.1,0,1,0,2.2,0V18.08A1.1,1.1,0,0,0,86.88,17Zm-66.67,2.2H79.79a1.1,1.1,0,0,0,0-2.2H20.21a1.1,1.1,0,0,0,0,2.2Zm-7.09,4.26a1.1,1.1,0,0,0,1.1-1.1V19.18h3.16a1.1,1.1,0,0,0,0-2.2H13.12a1.1,1.1,0,0,0-1.1,1.1v4.26A1.1,1.1,0,0,0,13.12,23.44ZM18.79,72.3H14.22V25.18a1.1,1.1,0,1,0-2.2,0V73.4a1.1,1.1,0,0,0,1.1,1.1h5.67a1.1,1.1,0,0,0,0-2.2Zm61.9-10.9a12.22,12.22,0,0,1-1.19-3.3,5.16,5.16,0,0,1,1.21-2.52,6.81,6.81,0,0,0,1.6-3.77,6.32,6.32,0,0,0-1.61-3.68,4.62,4.62,0,0,1-1.19-2.38,4.63,4.63,0,0,1,1.19-2.38,6.32,6.32,0,0,0,1.61-3.68,6.82,6.82,0,0,0-1.6-3.77,5.16,5.16,0,0,1-1.21-2.52,11.8,11.8,0,0,1,1.18-3.24c1.16-2.54,2.36-5.17.88-6.62-1.44-1.63-4.42-.43-7.58.84a15.83,15.83,0,0,1-3.85,1.25,5.7,5.7,0,0,1-2.79-1.29,7.4,7.4,0,0,0-4-1.67,7.4,7.4,0,0,0-4,1.67,5.7,5.7,0,0,1-2.79,1.29,5.7,5.7,0,0,1-2.79-1.29,7.39,7.39,0,0,0-4-1.67,7.4,7.4,0,0,0-4,1.67,5.7,5.7,0,0,1-2.79,1.29,1.1,1.1,0,0,0,0,2.2,7.4,7.4,0,0,0,4-1.67,5.7,5.7,0,0,1,2.79-1.29,5.7,5.7,0,0,1,2.79,1.29,7.39,7.39,0,0,0,4,1.67,7.4,7.4,0,0,0,4-1.67,5.7,5.7,0,0,1,2.79-1.29,5.7,5.7,0,0,1,2.79,1.29,7.4,7.4,0,0,0,4,1.67,15.07,15.07,0,0,0,4.67-1.41c1.46-.59,4.51-1.82,5.16-1.37.44.43-.77,3.07-1.29,4.2a11.76,11.76,0,0,0-1.38,4.15,6.82,6.82,0,0,0,1.6,3.77,5.15,5.15,0,0,1,1.21,2.52,4.63,4.63,0,0,1-1.19,2.38,6.32,6.32,0,0,0-1.61,3.68,6.32,6.32,0,0,0,1.61,3.68,4.62,4.62,0,0,1,1.19,2.38,5.16,5.16,0,0,1-1.21,2.52,6.82,6.82,0,0,0-1.6,3.77,11.93,11.93,0,0,0,1.38,4.2c.49,1.1,1.65,3.66,1.27,4.2-.62.39-3.69-.77-5.17-1.33a15.84,15.84,0,0,0-4.65-1.32,7.64,7.64,0,0,0-4,1.56,5.9,5.9,0,0,1-2.82,1.22,5.9,5.9,0,0,1-2.82-1.22,7.64,7.64,0,0,0-4-1.56,7.69,7.69,0,0,0-4,1.54,5.94,5.94,0,0,1-2.83,1.2,5.86,5.86,0,0,1-2.82-1.23,7.6,7.6,0,0,0-4-1.58H41.49a1.1,1.1,0,0,0,0,2.2h1.37a5.86,5.86,0,0,1,2.82,1.23,7.59,7.59,0,0,0,4,1.58,7.69,7.69,0,0,0,4-1.54,5.94,5.94,0,0,1,2.83-1.2,5.9,5.9,0,0,1,2.82,1.22,7.64,7.64,0,0,0,4,1.56,7.64,7.64,0,0,0,4-1.56,5.9,5.9,0,0,1,2.82-1.22A16.55,16.55,0,0,1,74,67.23c3.14,1.19,6.11,2.31,7.48.85C83.05,66.64,81.85,64,80.69,61.4ZM19.37,30.24a11.19,11.19,0,0,1,1.2,3.14,5.08,5.08,0,0,1-1.23,2.51,6.72,6.72,0,0,0-1.64,3.78,5,5,0,0,0,1.7,3.42A1.1,1.1,0,0,0,21,41.61c-.7-.77-1.13-1.27-1.13-1.94a5.08,5.08,0,0,1,1.23-2.51,6.72,6.72,0,0,0,1.64-3.78,11,11,0,0,0-1.42-4.09c-.54-1.13-1.81-3.78-1.25-4.26s3.32.74,4.67,1.34a12.91,12.91,0,0,0,4.45,1.45,7.4,7.4,0,0,0,4-1.67A5.69,5.69,0,0,1,36,24.86a1.1,1.1,0,0,0,0-2.2,7.4,7.4,0,0,0-4,1.67,5.69,5.69,0,0,1-2.79,1.29,13,13,0,0,1-3.55-1.26c-2.72-1.21-5.54-2.47-7.06-.95C16.83,24.94,18.18,27.76,19.37,30.24ZM35.5,60.81v21.1a1.1,1.1,0,0,1-1.76.88l-5-3.76-5,3.76a1.1,1.1,0,0,1-1.76-.88V60.81a11,11,0,1,1,13.55,0ZM28.72,61a8.83,8.83,0,1,0-8.83-8.83A8.84,8.84,0,0,0,28.72,61Zm4.57,1.19a10.9,10.9,0,0,1-9.15,0V79.72l3.91-2.94a1.1,1.1,0,0,1,1.32,0l3.91,2.94Zm11-21.69H67a1.1,1.1,0,0,0,0-2.2H44.33a1.1,1.1,0,0,0,0,2.2Zm0,5.67H67a1.1,1.1,0,0,0,0-2.2H44.33a1.1,1.1,0,0,0,0,2.2Zm0,5.67h15.6a1.1,1.1,0,0,0,0-2.2H44.33a1.1,1.1,0,0,0,0,2.2Z"/></svg>