<svg id="outline" xmlns="http://www.w3.org/2000/svg" viewBox="0 0 100 100"><defs><style>.cls-1{fill:#2892fc;}.cls-2{fill:#1a2530;}</style></defs><title></title><path id="_Path_" data-name="&lt;Path&gt;" class="cls-1" d="M45.3,73.44l-6.56,6.43A10.65,10.65,0,0,1,23.68,64.81L39.42,49.06a9.68,9.68,0,0,1,13.69,0L58.06,54l5.48-5.48-6.31-6.31a15.49,15.49,0,0,0-21.91,0L17.52,60a17.43,17.43,0,0,0,0,24.65L18.89,86a17.43,17.43,0,0,0,24.65,0L55.76,74.15Z"/><path id="_Compound_Path_" data-name="&lt;Compound Path&gt;" class="cls-2" d="M56,73.61a1.1,1.1,0,0,1,0,1.56L44.31,86.81a18.53,18.53,0,0,1-26.2,0l-1.37-1.37a18.53,18.53,0,0,1,0-26.2l17.8-17.8a16.61,16.61,0,0,1,23.46,0l6.31,6.31a1.1,1.1,0,0,1-1.56,1.56L56.45,43a14.41,14.41,0,0,0-20.35,0l-17.8,17.8a16.35,16.35,0,0,0,0,23.09l1.37,1.37a16.33,16.33,0,0,0,23.09,0L54.4,73.61A1.1,1.1,0,0,1,56,73.61ZM40.2,49.84a8.59,8.59,0,0,1,12.14,0L57.1,54.6A1.1,1.1,0,0,0,58.66,53L53.9,48.28a10.8,10.8,0,0,0-15.25,0L22.9,64A11.75,11.75,0,0,0,39.52,80.65L47,73.12a1.1,1.1,0,0,0-1.56-1.56L38,79.09A9.55,9.55,0,0,1,24.46,65.58ZM83.26,21.65l-1.37-1.37a18.53,18.53,0,0,0-26.2,0L43.6,32.37a1.1,1.1,0,0,0,1.56,1.56L57.25,21.84a16.33,16.33,0,0,1,23.09,0l1.37,1.37a16.33,16.33,0,0,1,0,23.09L63.91,64.1a14.41,14.41,0,0,1-20.35,0l-5.81-5.81a1.1,1.1,0,0,0-1.56,1.56L42,65.66a16.61,16.61,0,0,0,23.46,0l17.8-17.8a18.53,18.53,0,0,0,0-26.2ZM46.1,58.81a10.78,10.78,0,0,0,15.25,0L77.1,43.06A11.75,11.75,0,0,0,60.48,26.45L53,34a1.1,1.1,0,0,0,1.56,1.56L62,28A9.55,9.55,0,1,1,75.54,41.51L59.8,57.26a8.58,8.58,0,0,1-12.14,0l-4.48-4.48a1.1,1.1,0,0,0-1.56,1.56Zm-11-43.17a1.1,1.1,0,0,0,1.1-1.1V8.87a1.1,1.1,0,1,0-2.2,0v5.67A1.1,1.1,0,0,0,35.11,15.64Zm0,11.35a1.1,1.1,0,0,0,1.1-1.1V20.21a1.1,1.1,0,1,0-2.2,0v5.67A1.1,1.1,0,0,0,35.11,27ZM26.6,18.48h5.67a1.1,1.1,0,1,0,0-2.2H26.6a1.1,1.1,0,1,0,0,2.2Zm11.35,0h5.67a1.1,1.1,0,1,0,0-2.2H37.94a1.1,1.1,0,1,0,0,2.2ZM14.15,35.82a1.1,1.1,0,0,1,1.1-1.1h2.84a1.09,1.09,0,0,1,.4.08,1.09,1.09,0,0,1-.08-.4V31.56a1.1,1.1,0,0,1,2.2,0V34.4a1.09,1.09,0,0,1-.08.4,1.09,1.09,0,0,1,.4-.08h2.84a1.1,1.1,0,1,1,0,2.2H20.92a1.09,1.09,0,0,1-.4-.08,1.09,1.09,0,0,1,.08.4v2.84a1.1,1.1,0,0,1-2.2,0V37.23a1.09,1.09,0,0,1,.08-.4,1.09,1.09,0,0,1-.4.08H15.25A1.1,1.1,0,0,1,14.15,35.82Zm5.36-.32a1.09,1.09,0,0,1-.4-.08,1,1,0,0,1,0,.8,1,1,0,0,1,.8,0,1,1,0,0,1,0-.8A1.09,1.09,0,0,1,19.5,35.5ZM71.67,81.21a1.1,1.1,0,0,1-1.1,1.1H67.73a1.09,1.09,0,0,1-.4-.08,1.09,1.09,0,0,1,.08.4v2.84a1.1,1.1,0,0,1-2.2,0V82.62a1.09,1.09,0,0,1,.08-.4,1.09,1.09,0,0,1-.4.08H62.06a1.1,1.1,0,1,1,0-2.2h2.84a1.09,1.09,0,0,1,.4.08,1.09,1.09,0,0,1-.08-.4V77a1.1,1.1,0,1,1,2.2,0v2.84a1.09,1.09,0,0,1-.08.4,1.09,1.09,0,0,1,.4-.08h2.84A1.1,1.1,0,0,1,71.67,81.21Zm-5.36.32a1.09,1.09,0,0,1,.4.08,1,1,0,0,1,0-.8,1,1,0,0,1-.8,0,1,1,0,0,1,0,.8A1.09,1.09,0,0,1,66.31,81.52Z"/></svg>