<svg id="outline" xmlns="http://www.w3.org/2000/svg" viewBox="0 0 100 100"><defs><style>.cls-1{fill:#2892fc;}.cls-2{fill:#1a2530;}</style></defs><title></title><path id="_Path_" data-name="&lt;Path&gt;" class="cls-1" d="M58.8,13.45,18.47,53.78a3.55,3.55,0,0,0-1,2.6H51.5a9.93,9.93,0,0,0,9.93-9.93v-34A3.54,3.54,0,0,0,58.8,13.45Z"/><g id="_Group_" data-name="&lt;Group&gt;"><g id="_Group_2" data-name="&lt;Group&gt;"><path id="_Path_2" data-name="&lt;Path&gt;" class="cls-2" d="M47.46,87.43a4.65,4.65,0,0,1-3.3-1.36l-4.78-4.79a1.1,1.1,0,0,1,1.56-1.55l4.78,4.79a2.47,2.47,0,0,0,3.48,0L89.53,44.18a2.47,2.47,0,0,0,0-3.49L63.06,14.23a2.52,2.52,0,0,0-3.49,0L19.25,54.56a2.46,2.46,0,0,0,0,3.49l7.56,7.56a1.1,1.1,0,0,1-1.56,1.56L17.69,59.6a4.66,4.66,0,0,1,0-6.6L58,12.68a4.66,4.66,0,0,1,6.6,0L91.08,39.14a4.67,4.67,0,0,1,0,6.6L50.76,86.07A4.65,4.65,0,0,1,47.46,87.43Z"/></g><g id="_Group_3" data-name="&lt;Group&gt;"><path id="_Path_3" data-name="&lt;Path&gt;" class="cls-2" d="M51.5,57.48H27.39a1.1,1.1,0,0,1,0-2.2H51.5a8.84,8.84,0,0,0,8.83-8.83V22.34a1.1,1.1,0,1,1,2.2,0V46.45A11,11,0,0,1,51.5,57.48Z"/></g><g id="_Group_4" data-name="&lt;Group&gt;"><path id="_Path_4" data-name="&lt;Path&gt;" class="cls-2" d="M47.25,80.18a1.1,1.1,0,0,1-1.1-1.1v-17a1.1,1.1,0,1,1,2.2,0v17A1.1,1.1,0,0,1,47.25,80.18Z"/></g><g id="_Group_5" data-name="&lt;Group&gt;"><path id="_Path_5" data-name="&lt;Path&gt;" class="cls-2" d="M85.55,43.3H67.11a1.1,1.1,0,1,1,0-2.2H85.55a1.1,1.1,0,1,1,0,2.2Z"/></g><g id="_Group_6" data-name="&lt;Group&gt;"><path id="_Path_6" data-name="&lt;Path&gt;" class="cls-2" d="M11.79,81.6A1.1,1.1,0,0,1,11,79.72L29.45,61.28A1.1,1.1,0,1,1,31,62.83L12.57,81.27A1.1,1.1,0,0,1,11.79,81.6Z"/></g><g id="_Group_7" data-name="&lt;Group&gt;"><path id="_Path_7" data-name="&lt;Path&gt;" class="cls-2" d="M10.37,92.94a1.1,1.1,0,0,1-.78-1.88L29.45,71.21A1.1,1.1,0,1,1,31,72.76L11.15,92.62A1.1,1.1,0,0,1,10.37,92.94Z"/></g><g id="_Group_8" data-name="&lt;Group&gt;"><path id="_Path_8" data-name="&lt;Path&gt;" class="cls-2" d="M23.14,90.11a1.1,1.1,0,0,1-.78-1.88L40.8,69.79a1.1,1.1,0,0,1,1.56,1.56L23.91,89.79A1.1,1.1,0,0,1,23.14,90.11Z"/></g><g id="_Group_9" data-name="&lt;Group&gt;"><g id="_Group_10" data-name="&lt;Group&gt;"><path id="_Path_9" data-name="&lt;Path&gt;" class="cls-2" d="M16,39a1.1,1.1,0,0,1-1.1-1.1V35.11a1.1,1.1,0,1,1,2.2,0v2.84A1.1,1.1,0,0,1,16,39Z"/></g><g id="_Group_11" data-name="&lt;Group&gt;"><path id="_Path_10" data-name="&lt;Path&gt;" class="cls-2" d="M16,44.72a1.1,1.1,0,0,1-1.1-1.1V40.78a1.1,1.1,0,0,1,2.2,0v2.84A1.1,1.1,0,0,1,16,44.72Z"/></g><g id="_Group_12" data-name="&lt;Group&gt;"><path id="_Path_11" data-name="&lt;Path&gt;" class="cls-2" d="M14.63,40.46H11.79a1.1,1.1,0,1,1,0-2.2h2.84a1.1,1.1,0,0,1,0,2.2Z"/></g><g id="_Group_13" data-name="&lt;Group&gt;"><path id="_Path_12" data-name="&lt;Path&gt;" class="cls-2" d="M20.3,40.46H17.46a1.1,1.1,0,0,1,0-2.2H20.3a1.1,1.1,0,0,1,0,2.2Z"/></g></g><g id="_Group_14" data-name="&lt;Group&gt;"><g id="_Group_15" data-name="&lt;Group&gt;"><path id="_Path_13" data-name="&lt;Path&gt;" class="cls-2" d="M85.55,66a1.1,1.1,0,0,1-1.1-1.1V62.06a1.1,1.1,0,1,1,2.2,0v2.84A1.1,1.1,0,0,1,85.55,66Z"/></g><g id="_Group_16" data-name="&lt;Group&gt;"><path id="_Path_14" data-name="&lt;Path&gt;" class="cls-2" d="M85.55,71.67a1.1,1.1,0,0,1-1.1-1.1V67.73a1.1,1.1,0,0,1,2.2,0v2.84A1.1,1.1,0,0,1,85.55,71.67Z"/></g><g id="_Group_17" data-name="&lt;Group&gt;"><path id="_Path_15" data-name="&lt;Path&gt;" class="cls-2" d="M84.13,67.41H81.29a1.1,1.1,0,1,1,0-2.2h2.84a1.1,1.1,0,1,1,0,2.2Z"/></g><g id="_Group_18" data-name="&lt;Group&gt;"><path id="_Path_16" data-name="&lt;Path&gt;" class="cls-2" d="M89.8,67.41H87a1.1,1.1,0,1,1,0-2.2H89.8a1.1,1.1,0,0,1,0,2.2Z"/></g></g><g id="_Group_19" data-name="&lt;Group&gt;"><g id="_Group_20" data-name="&lt;Group&gt;"><path id="_Path_17" data-name="&lt;Path&gt;" class="cls-2" d="M28.81,14.93a1.1,1.1,0,0,1-1.1-1.1V8.16a1.1,1.1,0,1,1,2.2,0v5.67A1.1,1.1,0,0,1,28.81,14.93Z"/></g><g id="_Group_21" data-name="&lt;Group&gt;"><path id="_Path_18" data-name="&lt;Path&gt;" class="cls-2" d="M28.81,26.28a1.1,1.1,0,0,1-1.1-1.1V19.5a1.1,1.1,0,0,1,2.2,0v5.67A1.1,1.1,0,0,1,28.81,26.28Z"/></g><g id="_Group_22" data-name="&lt;Group&gt;"><path id="_Path_19" data-name="&lt;Path&gt;" class="cls-2" d="M26,17.77H20.3a1.1,1.1,0,0,1,0-2.2H26a1.1,1.1,0,0,1,0,2.2Z"/></g><g id="_Group_23" data-name="&lt;Group&gt;"><path id="_Path_20" data-name="&lt;Path&gt;" class="cls-2" d="M37.32,17.77H31.65a1.1,1.1,0,0,1,0-2.2h5.67a1.1,1.1,0,1,1,0,2.2Z"/></g></g></g></svg>