<svg id="outline" xmlns="http://www.w3.org/2000/svg" viewBox="0 0 100 100"><defs><style>.cls-1{fill:#2892fc;}.cls-2{fill:#1a2530;}</style></defs><title></title><path id="_Rectangle_" data-name="&lt;Rectangle&gt;" class="cls-1" d="M31.56,13.12H68.44A2.84,2.84,0,0,1,71.28,16v5.67a0,0,0,0,1,0,0H28.72a0,0,0,0,1,0,0V16A2.84,2.84,0,0,1,31.56,13.12Z"/><path id="_Rectangle_2" data-name="&lt;Rectangle&gt;" class="cls-1" d="M28.72,78.37H71.28a0,0,0,0,1,0,0V84a2.84,2.84,0,0,1-2.84,2.84H31.56A2.84,2.84,0,0,1,28.72,84V78.37A0,0,0,0,1,28.72,78.37Z"/><path id="_Compound_Path_" data-name="&lt;Compound Path&gt;" class="cls-2" d="M68.44,12H31.56A3.94,3.94,0,0,0,27.62,16V84A3.94,3.94,0,0,0,31.56,88H68.44A3.94,3.94,0,0,0,72.38,84V16A3.94,3.94,0,0,0,68.44,12ZM29.82,22.73H70.18V77.27H29.82Zm0-6.77a1.74,1.74,0,0,1,1.74-1.74H68.44A1.74,1.74,0,0,1,70.18,16v4.57H29.82ZM70.18,84a1.74,1.74,0,0,1-1.74,1.74H31.56A1.74,1.74,0,0,1,29.82,84V79.47H70.18ZM46.06,82.62a1.1,1.1,0,0,1,1.1-1.1h5.67a1.1,1.1,0,0,1,0,2.2H47.16A1.1,1.1,0,0,1,46.06,82.62Zm7.87-65.25a1.1,1.1,0,0,1-1.1,1.1H47.16a1.1,1.1,0,0,1,0-2.2h5.67A1.1,1.1,0,0,1,53.94,17.38Z"/></svg>