<svg id="outline" xmlns="http://www.w3.org/2000/svg" viewBox="0 0 100 100"><defs><style>.cls-1{fill:#2892fc;}.cls-2{fill:#1a2530;}</style></defs><title></title><path id="_Compound_Path_" data-name="&lt;Compound Path&gt;" class="cls-1" d="M92.55,35.82V61.35c0-5.31-7.08-9.06-9.33-9.06,0-2.63-2-4.6-4.85-4.93V30.66a5.36,5.36,0,0,0,4.85-4.93C88.18,25.72,92.55,28.6,92.55,35.82ZM80.39,59.56v0H70.14A1.11,1.11,0,0,1,69,58.41V50.92H45.35a6.87,6.87,0,0,1-5.65,5.65V70.29a6.87,6.87,0,0,1,5.65,5.65H81.62c4.85,0,7.9-3.78,9.34-8.57A12.76,12.76,0,0,0,80.39,59.56Z"/><path id="_Compound_Path_2" data-name="&lt;Compound Path&gt;" class="cls-2" d="M20.53,50a1.1,1.1,0,0,1,1.1-1.1h6v-6a1.1,1.1,0,0,1,1.1-1.1H65.6a1.1,1.1,0,0,1,0,2.2H29.82V48.9h.32a1.1,1.1,0,0,1,0,2.2H21.63A1.1,1.1,0,0,1,20.53,50ZM47.16,25.57H50a1.1,1.1,0,0,0,0-2.2H47.16a1.1,1.1,0,0,0,0,2.2Zm-5.67,0h2.84a1.1,1.1,0,0,0,0-2.2H41.49a1.1,1.1,0,0,0,0,2.2ZM52.84,63.08H48.58a1.1,1.1,0,0,0,0,2.2h4.26a1.1,1.1,0,0,0,0-2.2ZM16,51.1h2.84a1.1,1.1,0,0,0,0-2.2H16a1.1,1.1,0,0,0,0,2.2Zm77.7-21.81V72.21c0,7.61-5.7,12.93-13.87,12.93H28.72a1.1,1.1,0,0,1-1.1-1.1V63.87H7.45a1.1,1.1,0,0,1,0-2.2H27.62V54.26a1.1,1.1,0,1,1,2.2,0v7.41H34.4a1.1,1.1,0,0,1,0,2.2H29.82V82.94h50c7,0,11.67-4.31,11.67-10.73V70.93l-.06.12c-2.17,4.36-5.77,7-10.17,7H44.33a1.1,1.1,0,0,1-1.1-1.1,4.58,4.58,0,0,0-4.57-4.57,1.1,1.1,0,0,1-1.1-1.1V55.67a1.1,1.1,0,0,1,1.1-1.1A4.58,4.58,0,0,0,43.23,50a1.1,1.1,0,0,1,1.1-1.1H68.76V25.57H52.84a1.1,1.1,0,0,1,0-2.2H68.76V16a1.1,1.1,0,0,1,1.1-1.1h9.23A14.69,14.69,0,0,1,93.65,29.29ZM68.76,58.51V56.85a6.7,6.7,0,1,0,5.67,6.62,6.66,6.66,0,0,0-1.23-3.86H69.86A1.1,1.1,0,0,1,68.76,58.51Zm21.71,8.86a12.56,12.56,0,0,0-11.38-7.76H75.74a8.83,8.83,0,0,1,.89,3.86,9,9,0,1,1-7.87-8.84V51.1H45.34a6.79,6.79,0,0,1-5.58,5.58V70.27a6.79,6.79,0,0,1,5.58,5.58H81.22C86,75.85,89,72.11,90.47,67.37Zm1-6.25c-.21-4.46-6.52-7.74-8.22-7.74a1.1,1.1,0,0,1-1.1-1.1,3.63,3.63,0,0,0-.21-1.19,3.79,3.79,0,0,0-2-2.2,5.3,5.3,0,0,0-1.62-.45,1.1,1.1,0,0,1-1-1.09V30.66a1.1,1.1,0,0,1,1-1.09,4.28,4.28,0,0,0,3.88-3.84,1.1,1.1,0,0,1,1.1-1.1,10.17,10.17,0,0,1,8.18,3.67A12.49,12.49,0,0,0,79.09,17.06H71v6.31h3.16a1.1,1.1,0,0,1,0,2.2H71V57.41h8.13a14.64,14.64,0,0,1,12.09,6.68A25.62,25.62,0,0,0,91.43,61.12Zm0-25.31A12.79,12.79,0,0,0,91,32.4a7.33,7.33,0,0,0-6.85-5.54,6.61,6.61,0,0,1-4.72,4.69V46.44a6.5,6.5,0,0,1,3.77,2.46,5.7,5.7,0,0,1,.95,2.2c0,.08,0,.15.06.23a15.3,15.3,0,0,1,7.21,4.6V35.82Z"/></svg>