<svg id="outline" xmlns="http://www.w3.org/2000/svg" viewBox="0 0 100 100"><defs><style>.cls-1{fill:#2892fc;}.cls-2{fill:#1a2530;}</style></defs><title></title><circle id="_Path_" data-name="&lt;Path&gt;" class="cls-1" cx="85.46" cy="34.4" r="5.32"/><circle id="_Path_2" data-name="&lt;Path&gt;" class="cls-1" cx="85.46" cy="65.25" r="5.32"/><path id="_Compound_Path_" data-name="&lt;Compound Path&gt;" class="cls-2" d="M85.46,41.17a6.77,6.77,0,1,0-6.77-6.77A6.78,6.78,0,0,0,85.46,41.17Zm0-11.35a4.57,4.57,0,1,1-4.57,4.57A4.58,4.58,0,0,1,85.46,29.82Zm0,29a6.77,6.77,0,1,0,6.77,6.77A6.78,6.78,0,0,0,85.46,58.83Zm0,11.35A4.57,4.57,0,1,1,90,65.6,4.58,4.58,0,0,1,85.46,70.18Zm-42.24,3.6L33.93,65.6l9.29-8.17a1.1,1.1,0,1,0-1.45-1.65l-9.5,8.36-12-10.55a6.72,6.72,0,0,0,.94-2.48H39.69a1.1,1.1,0,1,0,0-2.2H21.22a6.72,6.72,0,0,0-.94-2.48l12-10.55,9.5,8.36a1.1,1.1,0,1,0,1.45-1.65L33.93,34.4l9.28-8.17a1.1,1.1,0,1,0-1.45-1.65l-9.5,8.36-12-10.55a6.72,6.72,0,0,0,.94-2.48H39.69a1.1,1.1,0,1,0,0-2.2H21.22A6.77,6.77,0,1,0,18.83,24L30.6,34.4,18.83,44.76a6.77,6.77,0,1,0,0,10.48L30.6,65.6,18.83,76a6.77,6.77,0,1,0,2.39,6.34H39.69a1.1,1.1,0,1,0,0-2.2H21.22a6.72,6.72,0,0,0-.94-2.48l12-10.55,9.5,8.36a1.1,1.1,0,1,0,1.45-1.65ZM10,18.79a4.57,4.57,0,1,1,4.57,4.57A4.58,4.58,0,0,1,10,18.79ZM10,50a4.57,4.57,0,1,1,4.57,4.57A4.58,4.58,0,0,1,10,50Zm4.57,35.78a4.57,4.57,0,1,1,4.57-4.57A4.58,4.58,0,0,1,14.54,85.78Zm61-17.05L55.67,77.51a6.89,6.89,0,1,0,.89,2l19.86-8.78a1.1,1.1,0,0,0-.89-2ZM50,85.78a4.57,4.57,0,1,1,4.57-4.57A4.58,4.58,0,0,1,50,85.78ZM76.4,29.07l-19.85-8.6a6.77,6.77,0,1,0-.88,2l19.86,8.61a1.1,1.1,0,0,0,.88-2ZM50,23.37a4.57,4.57,0,1,1,4.57-4.57A4.58,4.58,0,0,1,50,23.37ZM77,38.08a1.1,1.1,0,0,0-1.45-.56L55.67,46.3a6.77,6.77,0,1,0,0,7.4l19.85,8.78a1.1,1.1,0,0,0,.89-2L56.55,51.68a6.54,6.54,0,0,0,0-3.37l19.86-8.78A1.1,1.1,0,0,0,77,38.08ZM50,54.57A4.57,4.57,0,1,1,54.57,50,4.58,4.58,0,0,1,50,54.57Z"/></svg>