<svg id="outline" xmlns="http://www.w3.org/2000/svg" viewBox="0 0 100 100"><defs><style>.cls-1{fill:#2892fc;}.cls-2{fill:#1a2530;}</style></defs><title></title><path id="_Path_" data-name="&lt;Path&gt;" class="cls-1" d="M62.12,26C58,32.71,49.76,35.09,49.76,35.09s-2.39-8.93,1.72-15.62,12.76-8.83,12.76-8.83S66.23,19.33,62.12,26Z"/><path id="_Compound_Path_" data-name="&lt;Compound Path&gt;" class="cls-2" d="M78.16,42.6A17.58,17.58,0,0,0,67.33,34a23.21,23.21,0,0,0-6.49-.94,24.49,24.49,0,0,0-4,.35A21,21,0,0,0,63.41,27c4.3-7,2.34-15.83,2.26-16.2a1.1,1.1,0,0,0-1.34-.82C64,10,55.2,12.26,50.9,19.25a19.9,19.9,0,0,0-2.57,11,42.68,42.68,0,0,0-6.4-6.08,1.1,1.1,0,0,0-1.38,1.71c3.52,2.83,7.28,6.23,8.51,10a15.2,15.2,0,0,1,.76,6.93,11.39,11.39,0,0,1-7.25-3.31A1.1,1.1,0,1,0,41,41a13.6,13.6,0,0,0,9.6,4h.08l.09,0a13.6,13.6,0,0,0,9.53-4,1.1,1.1,0,0,0-1.56-1.56,11.38,11.38,0,0,1-6.71,3.25,16.55,16.55,0,0,0-.49-6.15,14.88,14.88,0,0,0,2.89-.35,28.27,28.27,0,0,1,6.38-.86,21.05,21.05,0,0,1,5.88.85,15.42,15.42,0,0,1,9.51,7.5c3,5.48,3.26,13.44.71,21.83-3.1,10.2-9.45,17.07-17,18.36a12.42,12.42,0,0,1-4.23-.06c-.28,0-.78-.18-1.37-.34A21.11,21.11,0,0,0,50,82.59a21.1,21.1,0,0,0-4.35.86c-.59.16-1.09.29-1.37.34a12.4,12.4,0,0,1-4.23.06c-7.54-1.3-13.89-8.16-17-18.36-2.55-8.39-2.29-16.35.71-21.83a15.42,15.42,0,0,1,9.51-7.5,21.07,21.07,0,0,1,5.88-.85,25.63,25.63,0,0,1,5.59.69,1.1,1.1,0,0,0,.47-2.15,28.11,28.11,0,0,0-6.06-.74,23.23,23.23,0,0,0-6.49.94A17.58,17.58,0,0,0,21.84,42.6c-3.29,6-3.61,14.57-.89,23.53C24.3,77.14,31.3,84.58,39.68,86a13.2,13.2,0,0,0,2.23.18A15.92,15.92,0,0,0,44.66,86c.34-.06.88-.2,1.55-.38A21.3,21.3,0,0,1,50,84.79a21.3,21.3,0,0,1,3.79.79c.67.18,1.21.32,1.55.38a14.59,14.59,0,0,0,5,.06c8.38-1.44,15.38-8.88,18.73-19.89C81.78,57.17,81.45,48.6,78.16,42.6ZM52.78,20.41c3-4.82,8.55-7.17,11-8,.35,2.51.77,8.57-2.19,13.38S53.25,33.1,50.93,34C50.48,31.44,49.81,25.23,52.78,20.41ZM32.28,43.17a1.1,1.1,0,0,1-.06,1.55c-3,2.75-4.47,6.5-4.43,11.12a1.1,1.1,0,0,1-1.09,1.11h0a1.1,1.1,0,0,1-1.1-1.09c0-5.27,1.68-9.56,5.14-12.75A1.1,1.1,0,0,1,32.28,43.17ZM6.35,38.3V24.11A1.1,1.1,0,0,1,7.45,23H21.63a1.1,1.1,0,0,1,0,2.2H8.55V38.3a1.1,1.1,0,1,1-2.2,0ZM22.73,89.36a1.1,1.1,0,0,1-1.1,1.1H7.45a1.1,1.1,0,0,1-1.1-1.1V75.18a1.1,1.1,0,0,1,2.2,0V88.26H21.63A1.1,1.1,0,0,1,22.73,89.36ZM93.65,24.11V38.3a1.1,1.1,0,0,1-2.2,0V25.21H78.37a1.1,1.1,0,0,1,0-2.2H92.55A1.1,1.1,0,0,1,93.65,24.11Zm0,51.06V89.36a1.1,1.1,0,0,1-1.1,1.1H78.37a1.1,1.1,0,1,1,0-2.2H91.45V75.18a1.1,1.1,0,0,1,2.2,0Z"/></svg>