<svg id="outline" xmlns="http://www.w3.org/2000/svg" viewBox="0 0 100 100"><defs><style>.cls-1{fill:#2892fc;}.cls-2{fill:#1a2530;}</style></defs><title></title><path id="_Path_" data-name="&lt;Path&gt;" class="cls-1" d="M79.57,51.07C73.64,55.93,61.31,64.65,59.93,65.6c-2.48,1.71-5.25,2.84-9.93,2.84s-7.45-1.12-9.93-2.84c-1.38-1-13.71-9.68-19.64-14.53L16,47.56V82.62a4.26,4.26,0,0,0,4.26,4.26H79.79A4.26,4.26,0,0,0,84,82.62V47.56Z"/><polygon id="_Path_2" data-name="&lt;Path&gt;" class="cls-1" points="59.93 44.33 61.35 45.74 64.18 45.74 64.18 48.58 65.6 50 64.18 51.42 64.18 54.26 61.35 54.26 59.93 55.67 58.51 54.26 55.67 54.26 55.67 51.42 54.26 50 55.67 48.58 55.67 45.74 58.51 45.74 59.93 44.33"/><path id="_Compound_Path_" data-name="&lt;Compound Path&gt;" class="cls-2" d="M36.13,31.56a1.1,1.1,0,0,1,1.1-1.1H62.77a1.1,1.1,0,1,1,0,2.2H37.23A1.1,1.1,0,0,1,36.13,31.56ZM61.8,44.65h2.38a1.1,1.1,0,0,1,1.1,1.1v2.38l1.1,1.1a1.1,1.1,0,0,1,0,1.56l-1.1,1.1v2.38a1.1,1.1,0,0,1-1.1,1.1H61.8l-1.1,1.1a1.1,1.1,0,0,1-1.56,0l-1.1-1.1H55.67a1.1,1.1,0,0,1-1.1-1.1V51.87l-1.1-1.1a1.1,1.1,0,0,1,0-1.56l1.1-1.1V45.74a1.1,1.1,0,0,1,1.1-1.1h2.38l1.1-1.1a1.1,1.1,0,0,1,1.56,0Zm1.28,3.94V46.84H61.35a1.1,1.1,0,0,1-.78-.32l-.64-.64-.64.64a1.1,1.1,0,0,1-.78.32H56.77v1.74a1.1,1.1,0,0,1-.32.78l-.64.64.64.64a1.1,1.1,0,0,1,.32.78v1.74h1.74a1.1,1.1,0,0,1,.78.32l.64.64.64-.64a1.1,1.1,0,0,1,.78-.32h1.74V51.42a1.1,1.1,0,0,1,.32-.78L64,50l-.64-.64A1.1,1.1,0,0,1,63.08,48.58ZM37.23,27H62.77a1.1,1.1,0,1,0,0-2.2H37.23a1.1,1.1,0,0,0,0,2.2Zm0,11.35h15.6a1.1,1.1,0,1,0,0-2.2H37.23a1.1,1.1,0,1,0,0,2.2Zm47.91,7.81V82.62A5.36,5.36,0,0,1,79.79,88H20.21a5.36,5.36,0,0,1-5.36-5.35V46.14a6.65,6.65,0,0,1,2.48-5.09l8.87-7.18V13.12A1.1,1.1,0,0,1,27.3,12H72.7a1.1,1.1,0,0,1,1.1,1.1V33.87l8.88,7.19A6.64,6.64,0,0,1,85.14,46.14ZM28.41,55.83c5.51,4.1,11.33,8.2,12.29,8.87,2,1.37,4.49,2.64,9.3,2.64s7.32-1.27,9.3-2.64c1-.66,6.78-4.77,12.29-8.87V14.22H28.41Zm54.54-9.69a4.52,4.52,0,0,0-1.64-3.37L73.8,36.7V54.18c1.9-1.43,3.67-2.8,5.08-4a1.1,1.1,0,1,1,1.39,1.7c-1.76,1.44-4.06,3.21-6.47,5l-2.2,1.63c-2.77,2-5.51,4-7.58,5.5l7.58,8.2,2.2,2.38,5.38,5.82A1.1,1.1,0,0,1,77.56,82L73.8,77.88l-2.2-2.38L62.2,65.35l-1.65,1.16a17.27,17.27,0,0,1-10.55,3,17.27,17.27,0,0,1-10.55-3l-1.65-1.16L28.41,75.5l-2.2,2.38L22.44,82a1.1,1.1,0,0,1-1.62-1.49l5.38-5.82,2.2-2.38L36,64.06c-2.07-1.48-4.81-3.45-7.58-5.5l-2.2-1.63c-2.41-1.8-4.72-3.57-6.47-5a1.1,1.1,0,1,1,1.39-1.7c1.41,1.16,3.18,2.53,5.08,4V36.7l-7.49,6.07a4.53,4.53,0,0,0-1.65,3.37V82.62a3.16,3.16,0,0,0,3.16,3.16H79.79a3.16,3.16,0,0,0,3.16-3.16ZM45.43,51.42a1.1,1.1,0,0,0-1.1-1.1H37.23a1.1,1.1,0,1,0,0,2.2h7.09A1.1,1.1,0,0,0,45.43,51.42Z"/></svg>