<svg id="outline" xmlns="http://www.w3.org/2000/svg" viewBox="0 0 100 100"><defs><style>.cls-1{fill:#2892fc;}.cls-2{fill:#1a2530;}</style></defs><title></title><circle id="_Ellipse_" data-name="&lt;Ellipse&gt;" class="cls-1" cx="50" cy="50" r="9.93"/><g id="_Group_" data-name="&lt;Group&gt;"><g id="_Group_2" data-name="&lt;Group&gt;"><path id="_Compound_Path_" data-name="&lt;Compound Path&gt;" class="cls-2" d="M49.86,73.8C25.2,73.8,6,51.66,5.19,50.71a1.1,1.1,0,0,1,0-1.43C6,48.34,25.2,26.2,49.86,26.2S94,48.34,94.8,49.28a1.1,1.1,0,0,1,0,1.44c-.65.75-16.11,18.36-37,22.31A43.06,43.06,0,0,1,49.86,73.8ZM7.51,50C11,53.82,28.66,71.6,49.86,71.6a40.89,40.89,0,0,0,7.58-.73c17.73-3.36,31.88-17.5,35-20.87-3.6-3.83-21.42-21.6-42.62-21.6S11,46.18,7.51,50Z"/></g><g id="_Group_3" data-name="&lt;Group&gt;"><path id="_Compound_Path_2" data-name="&lt;Compound Path&gt;" class="cls-2" d="M50,73.8A23.8,23.8,0,1,1,73.8,50,23.82,23.82,0,0,1,50,73.8ZM50,28.4A21.6,21.6,0,1,0,71.59,50,21.62,21.62,0,0,0,50,28.4Z"/></g><g id="_Group_4" data-name="&lt;Group&gt;"><path id="_Path_" data-name="&lt;Path&gt;" class="cls-2" d="M50,61A11,11,0,0,1,39.89,45.59a1.1,1.1,0,1,1,2,.88,8.82,8.82,0,1,0,4.56-4.56,1.1,1.1,0,1,1-.88-2A11,11,0,0,1,50,39h0A11,11,0,0,1,50,61Z"/></g><g id="_Group_5" data-name="&lt;Group&gt;"><path id="_Path_2" data-name="&lt;Path&gt;" class="cls-2" d="M11.7,34.08A1.1,1.1,0,0,1,10.6,33V23a1.1,1.1,0,0,1,1.1-1.1H27.3a1.1,1.1,0,1,1,0,2.2H12.8V33A1.1,1.1,0,0,1,11.7,34.08Z"/></g><g id="_Group_6" data-name="&lt;Group&gt;"><path id="_Path_3" data-name="&lt;Path&gt;" class="cls-2" d="M27.3,78.05H11.7A1.1,1.1,0,0,1,10.6,77V67a1.1,1.1,0,1,1,2.2,0v8.83H27.3a1.1,1.1,0,1,1,0,2.2Z"/></g><g id="_Group_7" data-name="&lt;Group&gt;"><path id="_Path_4" data-name="&lt;Path&gt;" class="cls-2" d="M88.3,34.08A1.1,1.1,0,0,1,87.2,33V24.15H72.7a1.1,1.1,0,0,1,0-2.2H88.3A1.1,1.1,0,0,1,89.4,23V33A1.1,1.1,0,0,1,88.3,34.08Z"/></g><g id="_Group_8" data-name="&lt;Group&gt;"><path id="_Path_5" data-name="&lt;Path&gt;" class="cls-2" d="M88.3,78.05H72.7a1.1,1.1,0,0,1,0-2.2H87.2V67a1.1,1.1,0,1,1,2.2,0V77A1.1,1.1,0,0,1,88.3,78.05Z"/></g></g></svg>