<svg id="outline" xmlns="http://www.w3.org/2000/svg" viewBox="0 0 100 100"><defs><style>.cls-1{fill:#2892fc;}.cls-2{fill:#1a2530;}</style></defs><title></title><circle id="_Ellipse_" data-name="&lt;Ellipse&gt;" class="cls-1" cx="50" cy="64.89" r="4.26"/><path id="_Path_" data-name="&lt;Path&gt;" class="cls-1" d="M92.55,30.85H7.45V23.76a1.42,1.42,0,0,1,1.42-1.42H91.14a1.42,1.42,0,0,1,1.42,1.42Z"/><path id="_Compound_Path_" data-name="&lt;Compound Path&gt;" class="cls-2" d="M91.13,21.24H8.86a2.52,2.52,0,0,0-2.52,2.52V76.24a2.52,2.52,0,0,0,2.52,2.52H91.13a2.52,2.52,0,0,0,2.52-2.52V23.76A2.52,2.52,0,0,0,91.13,21.24Zm.32,55a.32.32,0,0,1-.32.32H8.86a.32.32,0,0,1-.32-.32V23.76a.32.32,0,0,1,.32-.32H91.13a.32.32,0,0,1,.32.32Zm-.64-45.39a1.1,1.1,0,0,1-1.1,1.1H10.28a1.1,1.1,0,1,1,0-2.2H89.72A1.1,1.1,0,0,1,90.82,30.85ZM10.6,26.6a1.1,1.1,0,0,1,1.1-1.1h2.84a1.08,1.08,0,0,1,.71.28A1.08,1.08,0,0,1,16,25.5h2.84a1.1,1.1,0,0,1,0,2.2H16a1.08,1.08,0,0,1-.71-.28,1.08,1.08,0,0,1-.71.28H11.7A1.1,1.1,0,0,1,10.6,26.6ZM66.13,57.35a1.1,1.1,0,0,0-1.05-1.93l-11,6a5.58,5.58,0,1,0,1.05,1.93ZM50,68a3.16,3.16,0,1,1,3.16-3.15A3.16,3.16,0,0,1,50,68ZM61.94,44.32l0,0-.06,0a23.71,23.71,0,0,0-23.68,0l-.06,0,0,0A23.8,23.8,0,0,0,26.2,64.89,1.1,1.1,0,0,0,27.3,66H40.07a1.1,1.1,0,0,0,1.1-1.1,8.83,8.83,0,0,1,14.42-6.83A1.1,1.1,0,1,0,57,56.36c-.18-.15-.36-.28-.55-.41l5.3-9.17a21.61,21.61,0,0,1,9.84,17H61c0-.1,0-.19,0-.29a1.1,1.1,0,1,0-2.18.27,9,9,0,0,1,.07,1.11,1.1,1.1,0,0,0,1.1,1.1H72.7a1.1,1.1,0,0,0,1.1-1.1A23.8,23.8,0,0,0,61.94,44.32ZM39,63.79H28.43a21.61,21.61,0,0,1,9.84-17L43.57,56A11,11,0,0,0,39,63.79Zm15.51-9a10.95,10.95,0,0,0-9.06,0l-5.3-9.17a21.5,21.5,0,0,1,19.65,0Z"/></svg>