<svg id="outline" xmlns="http://www.w3.org/2000/svg" viewBox="0 0 100 100"><defs><style>.cls-1{fill:#2892fc;}.cls-2{fill:#1a2530;}</style></defs><title></title><path id="_Path_" data-name="&lt;Path&gt;" class="cls-1" d="M12.41,74.11l-.47-22.22,43.19-9.37L30.85,67V88.3s-8-2.1-12.07-5.53A28.08,28.08,0,0,1,12.41,74.11Z"/><path id="_Compound_Path_" data-name="&lt;Compound Path&gt;" class="cls-2" d="M56.21,22.77c-20.32,0-36.85,9.34-36.85,20.82a12.74,12.74,0,0,0,.94,4.74l-8,1.66h0a1.09,1.09,0,0,0-.37.16l-.1.08a1.14,1.14,0,0,0-.36.55,544.31,544.31,0,0,0-.05.29c-.12,23.07-.1,23.15,0,23.36,2.7,9.11,15.64,14.76,19.43,15h.06A1.1,1.1,0,0,0,32,88.3L32,66.95,51.79,46.79,44.05,62.27s0,.07,0,.1l0,0s0,0,0,0a1.09,1.09,0,0,0-.05.32V86.88a1.1,1.1,0,0,0,.77,1A38.94,38.94,0,0,0,56.38,89.4c20.16,0,36.56-9.4,36.56-21V42.91C92.94,31.61,76.81,22.77,56.21,22.77ZM21.56,43.59C21.56,33.5,37.43,25,56.21,25c19.36,0,34.53,7.88,34.53,17.94,0,10.75-16.06,20.18-34.36,20.18a47.69,47.69,0,0,1-9.77-1L55.95,43.4a1.08,1.08,0,0,0-.29-1.32,1.08,1.08,0,0,0-.09-.25,1.1,1.1,0,0,0-1.19-.55l-31.87,6.6A10.65,10.65,0,0,1,21.56,43.59ZM13.51,73.93c0-1.16,0-9.73.06-17.51,3,4.6,8.71,8.46,16.24,10.87L29.75,87C25.48,86,15.74,81.11,13.51,73.93Zm17.09-8.7c-8.8-2.8-15.07-7.8-16.76-13.32l37.44-7.75Zm60.14,3.2C90.74,78.61,75,87.2,56.38,87.2a38.75,38.75,0,0,1-10.25-1.14V64.21a49.52,49.52,0,0,0,10.25,1.07c15.32,0,29.15-6.47,34.36-15Zm-38.93,0v9.93a1.1,1.1,0,0,1-2.2,0V68.44a1.1,1.1,0,0,1,2.2,0Zm0,12.77V84a1.1,1.1,0,1,1-2.2,0V81.21a1.1,1.1,0,0,1,2.2,0Zm-40.5-50H8.16a1.1,1.1,0,1,1,0-2.2h3.16V25.89a1.1,1.1,0,0,1,2.2,0V29h3.16a1.1,1.1,0,1,1,0,2.2H13.51V34.4a1.1,1.1,0,1,1-2.2,0ZM79.4,17.38a1.1,1.1,0,0,1,1.1-1.1h3.16V13.12a1.1,1.1,0,0,1,2.2,0v3.16H89a1.1,1.1,0,1,1,0,2.2H85.85v3.16a1.1,1.1,0,1,1-2.2,0V18.48H80.5A1.1,1.1,0,0,1,79.4,17.38ZM18.4,16a1.1,1.1,0,0,1,1.1-1.1h3.16V11.7a1.1,1.1,0,0,1,2.2,0v3.16H28a1.1,1.1,0,1,1,0,2.2H24.86v3.16a1.1,1.1,0,1,1-2.2,0V17.06H19.5A1.1,1.1,0,0,1,18.4,16Z"/></svg>