<svg id="outline" xmlns="http://www.w3.org/2000/svg" viewBox="0 0 100 100"><defs><style>.cls-1{fill:#2892fc;}.cls-2{fill:#1a2530;}</style></defs><title></title><polygon id="_Path_" data-name="&lt;Path&gt;" class="cls-1" points="51.66 61.59 40.31 71.52 24.7 64.13 24.7 80.03 51.66 94.22 78.61 81.45 78.61 64.13 63 71.52 51.66 61.59"/><path id="_Compound_Path_" data-name="&lt;Compound Path&gt;" class="cls-2" d="M91.53,36.52V35.11a1.1,1.1,0,0,0-.63-1l-27-12.77a1.1,1.1,0,0,0-1.19.17l-10.62,9.3L41.5,21.51a1.1,1.1,0,0,0-1.19-.17l-27,12.77a1.1,1.1,0,0,0-.63,1v1.42a1.1,1.1,0,0,0,.38.83l10.4,9.1-10.4,9.1a1.1,1.1,0,0,0-.38.83V57.8a1.1,1.1,0,0,0,.63,1l10.72,5.08v18a1.1,1.1,0,0,0,.63,1l27,12.77h0a1.05,1.05,0,0,0,.9,0h0l27-12.77a1.1,1.1,0,0,0,.63-1v-18L90.9,58.8a1.1,1.1,0,0,0,.63-1V56.38a1.1,1.1,0,0,0-.38-.83l-10.4-9.1,10.4-9.1A1.1,1.1,0,0,0,91.53,36.52ZM52.13,58,27.75,46.45,52.13,34.9,76.51,46.45ZM14.93,35.8,40.6,23.64,51,32.77V33L25.36,45.15,14.93,36Zm0,21.08,10.43-9.12L51,59.92v.22L40.6,69.26,14.93,57.11Zm11.35,8,14,6.65a1.1,1.1,0,0,0,1.19-.17L51,63.06V92.94L26.28,81.22ZM78,81.22,53.23,92.94V63.06l9.52,8.33a1.1,1.1,0,0,0,1.19.17l14-6.65ZM89.33,57.11,63.66,69.26,53.23,60.14v-.22L78.9,47.76l10.43,9.13Zm0-21.08L78.9,45.15,53.23,33v-.22l10.43-9.12L89.33,35.8ZM48.51,18.86a1.1,1.1,0,0,1,0-1.56l2.84-2.84A1.1,1.1,0,0,1,52.91,16l-2.84,2.84a1.1,1.1,0,0,1-1.56,0Zm7.09-7.09a1.1,1.1,0,0,1,0-1.56l2.84-2.84A1.1,1.1,0,0,1,60,8.93l-2.84,2.84a1.1,1.1,0,0,1-1.56,0Zm0,4.25a1.1,1.1,0,1,1,1.56-1.56L60,17.31a1.1,1.1,0,1,1-1.56,1.56ZM48.51,8.93a1.1,1.1,0,1,1,1.56-1.56l2.84,2.84a1.1,1.1,0,1,1-1.56,1.56ZM23.76,19.18H26.6a1.09,1.09,0,0,0,.4-.08,1.09,1.09,0,0,0-.08.4v2.84a1.1,1.1,0,0,0,2.2,0V19.5a1.09,1.09,0,0,0-.08-.4,1.09,1.09,0,0,0,.4.08h2.84a1.1,1.1,0,1,0,0-2.2H29.43a1.09,1.09,0,0,0-.4.08,1.09,1.09,0,0,0,.08-.4V13.83a1.1,1.1,0,1,0-2.2,0v2.84a1.09,1.09,0,0,0,.08.4,1.09,1.09,0,0,0-.4-.08H23.76a1.1,1.1,0,0,0,0,2.2Zm4.65-1.5a1,1,0,0,0,0,.8,1,1,0,0,0-.8,0,1,1,0,0,0,0-.8,1,1,0,0,0,.8,0ZM18.08,72.3H15.25a1.09,1.09,0,0,0-.4.08,1.09,1.09,0,0,0,.08-.4V69.15a1.1,1.1,0,1,0-2.2,0V72a1.09,1.09,0,0,0,.08.4,1.09,1.09,0,0,0-.4-.08H9.57a1.1,1.1,0,0,0,0,2.2h2.84a1.09,1.09,0,0,0,.4-.08,1.09,1.09,0,0,0-.08.4v2.84a1.1,1.1,0,1,0,2.2,0V74.82a1.09,1.09,0,0,0-.08-.4,1.09,1.09,0,0,0,.4.08h2.84a1.1,1.1,0,0,0,0-2.2Zm-4.65,1.5a1,1,0,0,0,0-.8,1,1,0,0,0,.8,0,1,1,0,0,0,0,.8,1,1,0,0,0-.8,0Zm54.3-63.13h2.84a1.09,1.09,0,0,0,.4-.08,1.09,1.09,0,0,0-.08.4v2.84a1.1,1.1,0,0,0,2.2,0V11a1.09,1.09,0,0,0-.08-.4,1.09,1.09,0,0,0,.4.08h2.84a1.1,1.1,0,1,0,0-2.2H73.4a1.09,1.09,0,0,0-.4.08,1.09,1.09,0,0,0,.08-.4V5.32a1.1,1.1,0,1,0-2.2,0V8.16a1.09,1.09,0,0,0,.08.4,1.09,1.09,0,0,0-.4-.08H67.73a1.1,1.1,0,0,0,0,2.2Zm4.65-1.5a1,1,0,0,0,0,.8,1,1,0,0,0-.8,0,1,1,0,0,0,0-.8,1,1,0,0,0,.8,0Z"/></svg>