<svg id="outline" xmlns="http://www.w3.org/2000/svg" viewBox="0 0 100 100"><defs><style>.cls-1{fill:#2892fc;}.cls-2{fill:#1a2530;}</style></defs><title></title><path id="_Path_" data-name="&lt;Path&gt;" class="cls-1" d="M77.94,14.77H49.57V27.19a8,8,0,0,0-5.32-1.77,7.1,7.1,0,0,0-7,8.43,7.26,7.26,0,0,0,8,5.71,7.86,7.86,0,0,0,4.32-1.73V50.24H62a7.86,7.86,0,0,1-1.73-4.32,7.26,7.26,0,0,1,5.71-8,7.1,7.1,0,0,1,8.43,7,8,8,0,0,1-1.77,5.32H85V21.87A7.09,7.09,0,0,0,77.94,14.77Z"/><g id="_Group_" data-name="&lt;Group&gt;"><g id="_Group_2" data-name="&lt;Group&gt;"><path id="_Path_2" data-name="&lt;Path&gt;" class="cls-2" d="M49.57,86.8H21.21A8.2,8.2,0,0,1,13,78.6V50.24a1.1,1.1,0,0,1,1.1-1.1H26.52a1.1,1.1,0,0,1,.88,1.76,6.88,6.88,0,0,0-1.55,4.66A6,6,0,0,0,33,61.44a6.16,6.16,0,0,0,4.82-6.79,6.75,6.75,0,0,0-1.52-3.76,1.1,1.1,0,0,1,.88-1.76H49.57a1.1,1.1,0,1,1,0,2.2H39.14A8.59,8.59,0,0,1,40,54.46a8.35,8.35,0,0,1-6.61,9.14,8.2,8.2,0,0,1-9.73-8.05,9.2,9.2,0,0,1,.89-4.22H15.21V78.6a6,6,0,0,0,6,6H49.57a1.1,1.1,0,1,1,0,2.2Z"/></g><g id="_Group_3" data-name="&lt;Group&gt;"><path id="_Path_3" data-name="&lt;Path&gt;" class="cls-2" d="M77.94,86.8H49.57a1.1,1.1,0,0,1-1.1-1.1V73.29a1.1,1.1,0,0,1,1.76-.88A6.88,6.88,0,0,0,54.89,74a6,6,0,0,0,5.89-7.13A6.16,6.16,0,0,0,54,62a6.76,6.76,0,0,0-3.76,1.52,1.1,1.1,0,0,1-1.76-.88V50.24a1.1,1.1,0,1,1,2.2,0V60.67a8.61,8.61,0,0,1,3.13-.85,8.35,8.35,0,0,1,9.14,6.61,8.2,8.2,0,0,1-8.05,9.73,9.2,9.2,0,0,1-4.22-.89V84.6H77.94a6,6,0,0,0,6-6V50.24a1.1,1.1,0,1,1,2.2,0V78.6A8.2,8.2,0,0,1,77.94,86.8Z"/></g><g id="_Group_4" data-name="&lt;Group&gt;"><path id="_Path_4" data-name="&lt;Path&gt;" class="cls-2" d="M14.11,51.34a1.1,1.1,0,0,1-1.1-1.1V21.87a8.2,8.2,0,0,1,8.19-8.19H49.57a1.1,1.1,0,1,1,0,2.2H21.21a6,6,0,0,0-6,6V50.24A1.1,1.1,0,0,1,14.11,51.34Z"/></g><g id="_Group_5" data-name="&lt;Group&gt;"><path id="_Compound_Path_" data-name="&lt;Compound Path&gt;" class="cls-2" d="M85,51.34H72.62a1.1,1.1,0,0,1-.88-1.76,6.87,6.87,0,0,0,1.55-4.66A6,6,0,0,0,66.16,39a6.16,6.16,0,0,0-4.82,6.79,6.76,6.76,0,0,0,1.52,3.76A1.1,1.1,0,0,1,62,51.34H49.57a1.1,1.1,0,0,1-1.1-1.1V39.8a8.6,8.6,0,0,1-3.13.85A8.35,8.35,0,0,1,36.2,34a8.2,8.2,0,0,1,8.05-9.73,9.21,9.21,0,0,1,4.22.89V14.77a1.1,1.1,0,0,1,1.1-1.1H77.94a8.2,8.2,0,0,1,8.19,8.19V50.24A1.1,1.1,0,0,1,85,51.34Zm-10.43-2.2h9.33V21.87a6,6,0,0,0-6-6H50.67V27.19a1.1,1.1,0,0,1-1.76.88,6.87,6.87,0,0,0-4.66-1.55,6,6,0,0,0-5.89,7.13,6.16,6.16,0,0,0,6.79,4.82,6.75,6.75,0,0,0,3.76-1.52,1.1,1.1,0,0,1,1.76.88V49.14H60A8.6,8.6,0,0,1,59.16,46a8.35,8.35,0,0,1,6.61-9.14,8.2,8.2,0,0,1,9.73,8.05A9.21,9.21,0,0,1,74.61,49.14Z"/></g><g id="_Group_6" data-name="&lt;Group&gt;"><path id="_Path_5" data-name="&lt;Path&gt;" class="cls-2" d="M8.44,23a1.1,1.1,0,0,1-1.1-1.1A13.88,13.88,0,0,1,21.21,8a1.1,1.1,0,0,1,0,2.2A11.68,11.68,0,0,0,9.54,21.87,1.1,1.1,0,0,1,8.44,23Z"/></g><g id="_Group_7" data-name="&lt;Group&gt;"><path id="_Path_6" data-name="&lt;Path&gt;" class="cls-2" d="M77.94,92.47a1.1,1.1,0,1,1,0-2.2A11.68,11.68,0,0,0,89.61,78.6a1.1,1.1,0,0,1,2.2,0A13.88,13.88,0,0,1,77.94,92.47Z"/></g></g></svg>