<svg id="outline" xmlns="http://www.w3.org/2000/svg" viewBox="0 0 100 100"><defs><style>.cls-1{fill:#2892fc;}.cls-2{fill:#1a2530;}</style></defs><title></title><path id="_Path_" data-name="&lt;Path&gt;" class="cls-1" d="M51.42,57.09,50,58.51H42.91l-1.42-1.42h-34a5.67,5.67,0,0,0,5.67,5.67H62.77V57.09Z"/><path id="_Compound_Path_" data-name="&lt;Compound Path&gt;" class="cls-2" d="M8.68,58.19a4.58,4.58,0,0,0,4.44,3.47H62.77a1.1,1.1,0,1,1,0,2.2H13.12a6.78,6.78,0,0,1-6.77-6.77A1.1,1.1,0,0,1,7.45,56h6V13.12a3.94,3.94,0,0,1,3.94-3.94H79.79a3.94,3.94,0,0,1,3.94,3.94V24.47a1.1,1.1,0,0,1-2.2,0V13.12a1.74,1.74,0,0,0-1.74-1.74H17.38a1.74,1.74,0,0,0-1.74,1.74V56H41.49a1.1,1.1,0,0,1,.78.32l1.1,1.1h6.18l1.1-1.1a1.1,1.1,0,0,1,.78-.32H62.77a1.1,1.1,0,1,1,0,2.2H51.87l-1.1,1.1a1.1,1.1,0,0,1-.78.32H42.91a1.1,1.1,0,0,1-.78-.32L41,58.19Zm85-28.05V75.53a3.94,3.94,0,0,1-3.94,3.94H68.44a3.94,3.94,0,0,1-3.94-3.94V30.14a3.94,3.94,0,0,1,3.94-3.94H89.72A3.94,3.94,0,0,1,93.65,30.14Zm-2.2,0a1.74,1.74,0,0,0-1.74-1.74H68.44a1.74,1.74,0,0,0-1.74,1.74V75.53a1.74,1.74,0,0,0,1.74,1.74H89.72a1.74,1.74,0,0,0,1.74-1.74ZM81.21,73H77a1.1,1.1,0,1,0,0,2.2h4.25a1.1,1.1,0,1,0,0-2.2Zm-39.72-.64a1.09,1.09,0,0,1-.4-.08,1.09,1.09,0,0,1,.08.4v2.84a1.1,1.1,0,0,1-2.2,0V72.7a1.09,1.09,0,0,1,.08-.4,1.09,1.09,0,0,1-.4.08H35.82a1.1,1.1,0,1,1,0-2.2h2.84a1.09,1.09,0,0,1,.4.08,1.09,1.09,0,0,1-.08-.4V67a1.1,1.1,0,1,1,2.2,0v2.84a1.09,1.09,0,0,1-.08.4,1.09,1.09,0,0,1,.4-.08h2.84a1.1,1.1,0,0,1,0,2.2Zm-1.42-.78a1.09,1.09,0,0,1,.4.08,1,1,0,0,1,0-.8,1,1,0,0,1-.8,0,1,1,0,0,1,0,.8A1.09,1.09,0,0,1,40.07,71.6Zm12.77,0a1.1,1.1,0,0,0-1.1,1.1v5.67a1.1,1.1,0,1,0,2.2,0V72.7A1.1,1.1,0,0,0,52.84,71.6Zm0,11.35a1.1,1.1,0,0,0-1.1,1.1v5.67a1.1,1.1,0,1,0,2.2,0V84A1.1,1.1,0,0,0,52.84,82.94ZM50,80.11H44.33a1.1,1.1,0,1,0,0,2.2H50a1.1,1.1,0,1,0,0-2.2Zm11.35,0H55.67a1.1,1.1,0,1,0,0,2.2h5.67a1.1,1.1,0,1,0,0-2.2Z"/></svg>