<svg id="outline" xmlns="http://www.w3.org/2000/svg" viewBox="0 0 100 100"><defs><style>.cls-1{fill:#2892fc;}.cls-2{fill:#1a2530;}</style></defs><title></title><path id="_Path_" data-name="&lt;Path&gt;" class="cls-1" d="M53.61,68.46A16.84,16.84,0,0,1,34.79,44.23L21.31,31.78A34.88,34.88,0,0,0,62.23,84.65Z"/><g id="_Group_" data-name="&lt;Group&gt;"><g id="_Group_2" data-name="&lt;Group&gt;"><g id="_Group_3" data-name="&lt;Group&gt;"><path id="_Path_2" data-name="&lt;Path&gt;" class="cls-2" d="M82.62,83a1.1,1.1,0,0,1-.82-1.83c1-1.1,1.91-2.26,2.77-3.45A1.1,1.1,0,1,1,86.35,79c-.9,1.24-1.88,2.46-2.91,3.62A1.1,1.1,0,0,1,82.62,83Z"/></g><g id="_Group_4" data-name="&lt;Group&gt;"><path id="_Path_3" data-name="&lt;Path&gt;" class="cls-2" d="M87.47,76.45a1.1,1.1,0,0,1-.94-1.67,43.72,43.72,0,0,0,2.19-4.09,1.1,1.1,0,1,1,2,.93,45.87,45.87,0,0,1-2.3,4.3A1.1,1.1,0,0,1,87.47,76.45Z"/></g><g id="_Group_5" data-name="&lt;Group&gt;"><path id="_Path_4" data-name="&lt;Path&gt;" class="cls-2" d="M91,69.36a1.1,1.1,0,0,1-1-1.5c.52-1.35,1-2.75,1.37-4.15a1.1,1.1,0,0,1,2.12.58c-.41,1.47-.89,2.94-1.44,4.36A1.1,1.1,0,0,1,91,69.36Z"/></g><g id="_Group_6" data-name="&lt;Group&gt;"><path id="_Path_5" data-name="&lt;Path&gt;" class="cls-2" d="M93,62.27l-.22,0a1.1,1.1,0,0,1-.85-1.3,43.65,43.65,0,0,0-9.53-37.37,1.1,1.1,0,0,1,1.67-1.43,45.84,45.84,0,0,1,10,39.24A1.1,1.1,0,0,1,93,62.27Z"/></g><g id="_Group_7" data-name="&lt;Group&gt;"><path id="_Path_6" data-name="&lt;Path&gt;" class="cls-2" d="M15.57,25.39a1.1,1.1,0,0,1-.86-1.78,46.78,46.78,0,0,1,3.73-4.21A1.1,1.1,0,0,1,20,21a44.66,44.66,0,0,0-3.56,4A1.1,1.1,0,0,1,15.57,25.39Z"/></g><g id="_Group_8" data-name="&lt;Group&gt;"><path id="_Path_7" data-name="&lt;Path&gt;" class="cls-2" d="M11,32.48a1.1,1.1,0,0,1-1-1.6,46,46,0,0,1,2.56-4.36,1.1,1.1,0,0,1,1.83,1.22A43.79,43.79,0,0,0,12,31.89,1.1,1.1,0,0,1,11,32.48Z"/></g><g id="_Group_9" data-name="&lt;Group&gt;"><path id="_Path_8" data-name="&lt;Path&gt;" class="cls-2" d="M8.1,39.58a1.1,1.1,0,0,1-1-1.43,46.16,46.16,0,0,1,1.62-4.36,1.1,1.1,0,0,1,2,.87,44,44,0,0,0-1.54,4.15A1.1,1.1,0,0,1,8.1,39.58Z"/></g><g id="_Group_10" data-name="&lt;Group&gt;"><path id="_Path_9" data-name="&lt;Path&gt;" class="cls-2" d="M15.46,80.71a1.1,1.1,0,0,1-.87-.43A45.88,45.88,0,0,1,6.24,41.05a1.1,1.1,0,0,1,2.14.52,43.69,43.69,0,0,0,7.95,37.36,1.1,1.1,0,0,1-.87,1.77Z"/></g><g id="_Group_11" data-name="&lt;Group&gt;"><path id="_Compound_Path_" data-name="&lt;Compound Path&gt;" class="cls-2" d="M59.26,39.29a1.1,1.1,0,0,1-.62-.19,15.75,15.75,0,0,0-3.05-1.64,1.1,1.1,0,0,1-.68-1.17l2.51-18.13a1.1,1.1,0,0,1,1.37-.91A36.1,36.1,0,0,1,73.41,25a1.1,1.1,0,0,1,0,1.64L60,39A1.1,1.1,0,0,1,59.26,39.29ZM57.2,35.76a18,18,0,0,1,1.94,1L71,25.85a34,34,0,0,0-11.6-6.15Z"/></g><g id="_Group_12" data-name="&lt;Group&gt;"><path id="_Compound_Path_2" data-name="&lt;Compound Path&gt;" class="cls-2" d="M69.39,82a1.12,1.12,0,0,1-.26,0,1.1,1.1,0,0,1-.71-.55l-8.6-16.17a1.1,1.1,0,0,1,.25-1.34,15.76,15.76,0,0,0,5.4-11.85,15.57,15.57,0,0,0-1.81-7.32,1.1,1.1,0,0,1,.23-1.32L77.36,31a1.1,1.1,0,0,1,1.64.17,36,36,0,0,1-9,50.67A1.1,1.1,0,0,1,69.39,82ZM62.16,65,69.77,79.3a33.76,33.76,0,0,0,8.15-45.83L66,44.49A17.9,17.9,0,0,1,62.16,65Z"/></g><g id="_Group_13" data-name="&lt;Group&gt;"><path id="_Compound_Path_3" data-name="&lt;Compound Path&gt;" class="cls-2" d="M40.15,39.29A1.1,1.1,0,0,1,39.4,39L26,26.61A1.1,1.1,0,0,1,26,25,36,36,0,0,1,49.7,16l.52,0,.31,0a1.1,1.1,0,0,1,1.06,1.25l-2.5,18.12a1.1,1.1,0,0,1-1,.94,15.73,15.73,0,0,0-7.34,2.7A1.1,1.1,0,0,1,40.15,39.29ZM28.4,25.83l11.87,11A18,18,0,0,1,47,34.31l2.22-16.07A33.78,33.78,0,0,0,28.4,25.83Z"/></g><g id="_Group_14" data-name="&lt;Group&gt;"><path id="_Compound_Path_4" data-name="&lt;Compound Path&gt;" class="cls-2" d="M49.71,88.1h0a36,36,0,0,1-29.29-57A1.1,1.1,0,0,1,22.06,31L35.53,43.42a1.1,1.1,0,0,1,.23,1.32,15.57,15.57,0,0,0-1.82,7.33A15.78,15.78,0,0,0,49.7,67.83h0a15.8,15.8,0,0,0,3.65-.44,1.1,1.1,0,0,1,1.23.55L63.2,84.13a1.1,1.1,0,0,1-.58,1.54A35.84,35.84,0,0,1,49.71,88.1ZM21.49,33.45A33.79,33.79,0,0,0,49.7,85.9h0a33.53,33.53,0,0,0,11-1.85L53,69.71a17.68,17.68,0,0,1-3.32.32h0A17.95,17.95,0,0,1,33.43,44.48Z"/></g><g id="_Group_15" data-name="&lt;Group&gt;"><path id="_Path_10" data-name="&lt;Path&gt;" class="cls-2" d="M74.11,19.18a1.1,1.1,0,0,1-1.1-1.1V9.57a1.1,1.1,0,1,1,2.2,0v8.51A1.1,1.1,0,0,1,74.11,19.18Z"/></g><g id="_Group_16" data-name="&lt;Group&gt;"><path id="_Path_11" data-name="&lt;Path&gt;" class="cls-2" d="M78.37,14.93H69.86a1.1,1.1,0,1,1,0-2.2h8.51a1.1,1.1,0,0,1,0,2.2Z"/></g><g id="_Group_17" data-name="&lt;Group&gt;"><path id="_Path_12" data-name="&lt;Path&gt;" class="cls-2" d="M21.63,91.53a1.1,1.1,0,0,1-1.1-1.1V81.91a1.1,1.1,0,1,1,2.2,0v8.51A1.1,1.1,0,0,1,21.63,91.53Z"/></g><g id="_Group_18" data-name="&lt;Group&gt;"><path id="_Path_13" data-name="&lt;Path&gt;" class="cls-2" d="M25.89,87.27H17.38a1.1,1.1,0,0,1,0-2.2h8.51a1.1,1.1,0,0,1,0,2.2Z"/></g></g></g></svg>