<svg id="outline" xmlns="http://www.w3.org/2000/svg" viewBox="0 0 100 100"><defs><style>.cls-1{fill:#2892fc;}.cls-2{fill:#1a2530;}</style></defs><title></title><path id="_Path_" data-name="&lt;Path&gt;" class="cls-1" d="M66.56,44.16a12.77,12.77,0,1,0-22.07-1.1,35.77,35.77,0,0,1,9-1.17A39.47,39.47,0,0,1,66.56,44.16Z"/><path id="_Compound_Path_" data-name="&lt;Compound Path&gt;" class="cls-2" d="M68.17,43.56a13.81,13.81,0,0,0-5.55-18.41v-12a1.1,1.1,0,1,0-2.2,0v11A13.82,13.82,0,0,0,43,42.34a35.46,35.46,0,0,0-6.1,2.43,1.1,1.1,0,0,0-.56.69,18.18,18.18,0,0,0-9.87-4.1,3,3,0,0,0-2.59.84c-1.05,1.31,0,3.82,2.9,8.83a17.64,17.64,0,0,0-5.17,6.4,14,14,0,0,1-5.27.81H16.1a2.28,2.28,0,0,0-2,1.17c-1.42,2.35-.36,7.86,1.49,11.34,1.95,3.67,13,10.68,16.46,12.33V94a1.1,1.1,0,0,0,1.1,1.1h7.08a1.1,1.1,0,0,0,1-.67l2.38-5.55a41.17,41.17,0,0,0,10.81,2c3.76,0,8.08-1.07,12.25-2.3l2.22,5.85a1.1,1.1,0,0,0,1,.71h6.85a1.1,1.1,0,0,0,1.09-1l1.64-12.9a22,22,0,0,0,7-15.73C86.54,56.21,78.86,47.75,68.17,43.56ZM45.1,41.77a11.49,11.49,0,0,1-.93-4.54A11.66,11.66,0,0,1,60.42,26.5v9.31a1.1,1.1,0,1,0,2.2,0V27.75A11.62,11.62,0,0,1,66.09,42.8a40.55,40.55,0,0,0-12.61-2q-1.06,0-2.12.06l-.74.07c-.46,0-.92.07-1.37.12s-.86.12-1.29.19l-.79.12c-.62.11-1.24.24-1.85.38ZM77.72,79.88a1.1,1.1,0,0,0-.33.66L75.81,92.87H70.69l-2.32-6.09A1.1,1.1,0,0,0,67,86.12c-4.31,1.3-8.83,2.5-12.6,2.5a40.43,40.43,0,0,1-11.12-2.15,1.1,1.1,0,0,0-1.33.62L39.5,92.87H34.25V82.35a1.16,1.16,0,0,0-.85-1.07c-1.34-.38-14-8-15.86-11.56-2.11-4-2.18-8.87-1.43-9.29a15.4,15.4,0,0,0,6.75-1.17,1.1,1.1,0,0,0,.54-.55,15.39,15.39,0,0,1,5.42-6.47,1.1,1.1,0,0,0,.34-1.47c-1-1.64-3.42-5.87-3.5-7.2,1.52-.41,8.16,1.43,10.85,5.3a1.1,1.1,0,0,0,2-.64l0-1.81A33.9,33.9,0,0,1,45,44.07c.55-.14,1.1-.26,1.66-.38l.51-.1c.51-.1,1-.18,1.54-.25l.61-.09c.5-.06,1-.11,1.5-.15l.6-.05c.69,0,1.38-.07,2.06-.07a38.58,38.58,0,0,1,12.72,2.2,1.08,1.08,0,0,0,.27,0C76.83,49,84.34,56.83,84.34,65.48A19.92,19.92,0,0,1,77.72,79.88ZM50.49,18.79V11.7a1.1,1.1,0,1,1,2.2,0v7.09a1.1,1.1,0,1,1-2.2,0Zm0-9.93V6a1.1,1.1,0,1,1,2.2,0V8.87a1.1,1.1,0,1,1-2.2,0ZM34.21,56a5,5,0,0,0,0,10h0a5,5,0,0,0,0-10Zm2,7a2.78,2.78,0,0,1-2,.82h0a2.8,2.8,0,1,1,2-.82ZM80.1,67.6a1.1,1.1,0,0,1-2.2,0c0-9.09-8.71-16.49-19.42-16.49a1.1,1.1,0,0,1,0-2.2C70.4,48.91,80.1,57.29,80.1,67.6ZM30.63,23a1.1,1.1,0,0,1,1.1-1.1h3.16V18.79a1.1,1.1,0,1,1,2.2,0v3.16h3.16a1.1,1.1,0,0,1,0,2.2H37.09V27.3a1.1,1.1,0,1,1-2.2,0V24.15H31.73A1.1,1.1,0,0,1,30.63,23ZM82,33.77h3.16a1.1,1.1,0,1,1,0,2.2H82v3.16a1.1,1.1,0,1,1-2.2,0V36H76.65a1.1,1.1,0,0,1,0-2.2H79.8V30.62a1.1,1.1,0,1,1,2.2,0ZM78.54,19.89a5.36,5.36,0,1,0-5.36-5.36A5.36,5.36,0,0,0,78.54,19.89Zm0-8.51a3.16,3.16,0,1,1-3.16,3.16A3.16,3.16,0,0,1,78.54,11.38Z"/></svg>