<svg id="outline" xmlns="http://www.w3.org/2000/svg" viewBox="0 0 100 100"><defs><style>.cls-1{fill:#2892fc;}.cls-2{fill:#1a2530;}</style></defs><title></title><polygon id="_Path_" data-name="&lt;Path&gt;" class="cls-1" points="23.52 49.29 6.5 56.38 6.5 74.82 23.52 81.91 40.54 74.82 40.54 56.38 23.52 49.29"/><path id="_Compound_Path_" data-name="&lt;Compound Path&gt;" class="cls-2" d="M37.5,19.94a1.1,1.1,0,0,1,.57-1.45L60.91,8.56a1.1,1.1,0,0,1,.88,0l8.51,3.7a1.1,1.1,0,0,1-.88,2l-8.07-3.51-22.4,9.74a1.1,1.1,0,0,1-1.45-.57ZM95.07,30.85v38.3a1.1,1.1,0,0,1-.66,1L61.79,84.34h0l-.12,0a.78.78,0,0,1-.63,0l-.12,0h0L45.25,77.54a1.1,1.1,0,0,1,.88-2l14.12,6.14V45.76L29.82,32.53V45a1.1,1.1,0,1,1-2.2,0V30.85h0a1.08,1.08,0,0,1,.08-.38l0-.11a1.08,1.08,0,0,1,.15-.23L28,30a1.09,1.09,0,0,1,.31-.21h0L60.91,15.66a1.1,1.1,0,0,1,.88,0l32.6,14.18h0a1.09,1.09,0,0,1,.3.21l.08.09a1.08,1.08,0,0,1,.15.22l.05.11a1.09,1.09,0,0,1,.08.37Zm-63.59,0,29.87,13,29.87-13-29.87-13ZM92.87,68.43V32.53L62.45,45.76v35.9Zm-6.53,9.93-25,10.86L54.62,86.3a1.1,1.1,0,0,0-.88,2l7.16,3.11a1.1,1.1,0,0,0,.88,0L87.21,80.38a1.1,1.1,0,0,0-.88-2Zm-45.17-22V74.82a1.1,1.1,0,0,1-.68,1l-17,7.09h0a1.1,1.1,0,0,1-.85,0h0l-17-7.09a1.1,1.1,0,0,1-.68-1V56.39h0A1.09,1.09,0,0,1,5,56s0,0,0,0l0-.06a1.08,1.08,0,0,1,.17-.25l.07-.08a1.09,1.09,0,0,1,.32-.21l17-7.09a1.1,1.1,0,0,1,.85,0l17,7.09a1.09,1.09,0,0,1,.32.21l.07.08a1.08,1.08,0,0,1,.17.25l0,.06s0,0,0,0a1.09,1.09,0,0,1,.08.38h0Zm-32.28,0L23,62.28l14.16-5.9L23,50.48ZM7.13,74.09l14.82,6.18V64.21L7.13,58Zm31.84,0V58L24.15,64.21V80.26ZM18.79,22a1.1,1.1,0,0,0,.78-.32l2.84-2.84a1.1,1.1,0,1,0-1.56-1.56L18,20.14A1.1,1.1,0,0,0,18.79,22Zm7.09-7.09a1.1,1.1,0,0,0,.78-.32l2.84-2.84a1.1,1.1,0,0,0-1.56-1.56l-2.84,2.84a1.1,1.1,0,0,0,.78,1.88Zm2.06,6.77a1.1,1.1,0,1,0,1.56-1.56l-2.84-2.84a1.1,1.1,0,1,0-1.56,1.56Zm-7.09-7.09a1.1,1.1,0,0,0,1.56-1.56l-2.84-2.84A1.1,1.1,0,1,0,18,11.77Zm-12,17.34H12v3.16a1.1,1.1,0,0,0,2.2,0V31.95h3.16a1.1,1.1,0,0,0,0-2.2H14.22V26.59a1.1,1.1,0,0,0-2.2,0v3.16H8.86a1.1,1.1,0,0,0,0,2.2Z"/></svg>