<svg id="outline" xmlns="http://www.w3.org/2000/svg" viewBox="0 0 100 100"><defs><style>.cls-1{fill:#2892fc;}.cls-2{fill:#1a2530;}</style></defs><title></title><rect id="_Path_" data-name="&lt;Path&gt;" class="cls-1" x="68.86" y="59.8" width="8.46" height="33.19" rx="2.84" ry="2.84" transform="translate(-32.61 74.06) rotate(-45)"/><path id="_Compound_Path_" data-name="&lt;Compound Path&gt;" class="cls-2" d="M31.7,16.52A1.1,1.1,0,0,1,31,17.9,22.94,22.94,0,0,0,16.56,31.31a1.1,1.1,0,1,1-2-.82,25.13,25.13,0,0,1,15.8-14.7A1.1,1.1,0,0,1,31.7,16.52ZM14.29,35A1.1,1.1,0,0,0,13,35.9a25.51,25.51,0,0,0-.31,3.95,1.1,1.1,0,1,0,2.2,0,23.28,23.28,0,0,1,.28-3.6A1.1,1.1,0,0,0,14.29,35Zm72.3,47.37a3.94,3.94,0,0,1,0,5.57l-2,2a3.93,3.93,0,0,1-5.57,0L59.59,70.43a3.94,3.94,0,0,1,0-5.57l.2-.2L58.23,63.1a30.74,30.74,0,1,1,1.61-1.5l1.51,1.51.22-.22a4,4,0,0,1,5.57,0ZM37.94,68.53A28.69,28.69,0,1,0,9.26,39.84,28.72,28.72,0,0,0,37.94,68.53ZM85,83.91,65.58,64.45a1.74,1.74,0,0,0-2.46,0l-2,2a1.74,1.74,0,0,0,0,2.46h0L80.61,88.34a1.78,1.78,0,0,0,2.46,0l2-2A1.74,1.74,0,0,0,85,83.91ZM72.3,52.61a1.1,1.1,0,0,1,1.1-1.1h2.84a1.09,1.09,0,0,1,.4.08,1.09,1.09,0,0,1-.08-.4V48.35a1.1,1.1,0,1,1,2.2,0v2.84a1.09,1.09,0,0,1-.08.4,1.09,1.09,0,0,1,.4-.08h2.84a1.1,1.1,0,0,1,0,2.2H79.08a1.09,1.09,0,0,1-.4-.08,1.09,1.09,0,0,1,.08.4v2.84a1.1,1.1,0,1,1-2.2,0V54a1.09,1.09,0,0,1,.08-.4,1.09,1.09,0,0,1-.4.08H73.4A1.1,1.1,0,0,1,72.3,52.61Zm5.36-.32a1.09,1.09,0,0,1-.4-.08,1,1,0,0,1,0,.8,1,1,0,0,1,.8,0,1,1,0,0,1,0-.8A1.09,1.09,0,0,1,77.66,52.29ZM92.94,65.37a1.1,1.1,0,0,1-1.1,1.1H89a1.09,1.09,0,0,1-.4-.08,1.09,1.09,0,0,1,.08.4v2.84a1.1,1.1,0,1,1-2.2,0V66.79a1.09,1.09,0,0,1,.08-.4,1.09,1.09,0,0,1-.4.08H83.33a1.1,1.1,0,0,1,0-2.2h2.84a1.09,1.09,0,0,1,.4.08,1.09,1.09,0,0,1-.08-.4V61.12a1.1,1.1,0,1,1,2.2,0V64a1.09,1.09,0,0,1-.08.4,1.09,1.09,0,0,1,.4-.08h2.84A1.1,1.1,0,0,1,92.94,65.37Zm-5.36.32a1.09,1.09,0,0,1,.4.08,1,1,0,0,1,0-.8,1,1,0,0,1-.8,0,1,1,0,0,1,0,.8A1.09,1.09,0,0,1,87.59,65.69Zm-40,13.87a1.1,1.1,0,0,1-1.1,1.1H43.62a1.09,1.09,0,0,1-.4-.08,1.09,1.09,0,0,1,.08.4v2.84a1.1,1.1,0,1,1-2.2,0V81a1.09,1.09,0,0,1,.08-.4,1.09,1.09,0,0,1-.4.08H37.94a1.1,1.1,0,0,1,0-2.2h2.84a1.09,1.09,0,0,1,.4.08,1.09,1.09,0,0,1-.08-.4V75.3a1.1,1.1,0,1,1,2.2,0v2.84a1.09,1.09,0,0,1-.08.4,1.09,1.09,0,0,1,.4-.08h2.84A1.1,1.1,0,0,1,47.55,79.56Zm-5.36.32a1.09,1.09,0,0,1,.4.08,1,1,0,0,1,0-.8,1,1,0,0,1-.8,0,1,1,0,0,1,0,.8A1.09,1.09,0,0,1,42.2,79.88Z"/></svg>