<svg id="outline" xmlns="http://www.w3.org/2000/svg" viewBox="0 0 100 100"><defs><style>.cls-1{fill:#2892fc;}.cls-2{fill:#1a2530;}</style></defs><title></title><circle id="_Ellipse_" data-name="&lt;Ellipse&gt;" class="cls-1" cx="42.42" cy="87.59" r="5.67"/><circle id="_Ellipse_2" data-name="&lt;Ellipse&gt;" class="cls-1" cx="72.2" cy="87.59" r="5.67"/><path id="_Compound_Path_" data-name="&lt;Compound Path&gt;" class="cls-2" d="M92.6,32.1,83.7,61.22a4.71,4.71,0,0,1-4.53,3.35H38.06l2.32,8.29a3.45,3.45,0,0,0,3.46,2.28h34a1.1,1.1,0,0,1,0,2.2h-34a5.65,5.65,0,0,1-5.55-3.79L23.68,21.29a3,3,0,0,0-2.54-2.1H8.37a1.1,1.1,0,1,1,0-2.2H21.14a5.15,5.15,0,0,1,4.66,3.69l2.14,7.65h15.9a1.1,1.1,0,1,1,0,2.2H28.55l8.9,31.84H79.17a2.52,2.52,0,0,0,2.42-1.79l8.9-29.12a.72.72,0,0,0-.69-.93H75a1.1,1.1,0,1,1,0-2.2H89.81A2.92,2.92,0,0,1,92.6,32.1ZM49.19,87.59a6.77,6.77,0,1,1-6.77-6.77A6.78,6.78,0,0,1,49.19,87.59Zm-2.2,0a4.57,4.57,0,1,0-4.57,4.57A4.58,4.58,0,0,0,47,87.59Zm32,0a6.77,6.77,0,1,1-6.77-6.77A6.78,6.78,0,0,1,79,87.59Zm-2.2,0a4.57,4.57,0,1,0-4.57,4.57A4.58,4.58,0,0,0,76.78,87.59ZM54.86,28a1.1,1.1,0,1,0-2.2,0v4.57H48.09a1.1,1.1,0,0,0,0,2.2h4.57v4.57a1.1,1.1,0,1,0,2.2,0V34.79h4.57a1.1,1.1,0,1,0,0-2.2H54.86Zm8.83,23.8a1.1,1.1,0,0,0,1.1-1.1V46.14h4.57a1.1,1.1,0,1,0,0-2.2H64.79V39.36a1.1,1.1,0,1,0-2.2,0v4.57H58a1.1,1.1,0,0,0,0,2.2h4.57v4.57A1.1,1.1,0,0,0,63.69,51.81ZM62.27,23.44h4.57V28A1.1,1.1,0,0,0,69,28V23.44h4.57a1.1,1.1,0,1,0,0-2.2H69V16.67a1.1,1.1,0,0,0-2.2,0v4.57H62.27a1.1,1.1,0,1,0,0,2.2Zm-15.6-9.93h4.57v4.57a1.1,1.1,0,1,0,2.2,0V13.51H58a1.1,1.1,0,1,0,0-2.2H53.45V6.74a1.1,1.1,0,1,0-2.2,0v4.57H46.67a1.1,1.1,0,0,0,0,2.2Z"/></svg>