<svg id="outline" xmlns="http://www.w3.org/2000/svg" viewBox="0 0 100 100"><defs><style>.cls-1{fill:#2892fc;}.cls-2{fill:#1a2530;}</style></defs><title></title><rect id="_Path_" data-name="&lt;Path&gt;" class="cls-1" x="27.3" y="57.09" width="7.09" height="9.93"/><rect id="_Path_2" data-name="&lt;Path&gt;" class="cls-1" x="40.07" y="50" width="7.09" height="17.02"/><rect id="_Path_3" data-name="&lt;Path&gt;" class="cls-1" x="52.84" y="34.4" width="7.09" height="32.62"/><rect id="_Path_4" data-name="&lt;Path&gt;" class="cls-1" x="65.6" y="44.33" width="7.09" height="22.7"/><path id="_Compound_Path_" data-name="&lt;Compound Path&gt;" class="cls-2" d="M94,70.18H89.4V24.47a3.94,3.94,0,0,0-3.94-3.94H16A3.94,3.94,0,0,0,12,24.47V70.18H6a1.1,1.1,0,0,0-1.1,1.1v2.84a5.36,5.36,0,0,0,5.35,5.36H89.72a5.36,5.36,0,0,0,5.35-5.36V71.28A1.1,1.1,0,0,0,94,70.18ZM14.22,24.47A1.74,1.74,0,0,1,16,22.73h69.5a1.74,1.74,0,0,1,1.74,1.74V70.18H59.93a1.1,1.1,0,0,0-.78.32l-1.1,1.1H41.94l-1.1-1.1a1.1,1.1,0,0,0-.78-.32H14.22ZM92.87,74.11a3.16,3.16,0,0,1-3.16,3.16H10.28a3.16,3.16,0,0,1-3.16-3.16V72.38H39.62l1.1,1.1a1.1,1.1,0,0,0,.78.32h17a1.1,1.1,0,0,0,.78-.32l1.1-1.1H92.87Zm-57.38-17V67a1.1,1.1,0,1,1-2.2,0V58.19H28.4V67a1.1,1.1,0,1,1-2.2,0V57.09A1.1,1.1,0,0,1,27.3,56H34.4A1.1,1.1,0,0,1,35.5,57.09Zm4.57,11A1.1,1.1,0,0,1,39,67V50a1.1,1.1,0,0,1,1.1-1.1h7.09a1.1,1.1,0,0,1,1.1,1.1V67a1.1,1.1,0,1,1-2.2,0V51.1H41.17V67A1.1,1.1,0,0,1,40.07,68.12ZM51.74,67V34.4a1.1,1.1,0,0,1,1.1-1.1h7.09A1.1,1.1,0,0,1,61,34.4V67a1.1,1.1,0,1,1-2.2,0V35.5H53.94V67a1.1,1.1,0,1,1-2.2,0ZM64.5,67V44.33a1.1,1.1,0,0,1,1.1-1.1H72.7a1.1,1.1,0,0,1,1.1,1.1V67a1.1,1.1,0,1,1-2.2,0V45.43H66.7V67a1.1,1.1,0,1,1-2.2,0Z"/></svg>