<svg id="outline" xmlns="http://www.w3.org/2000/svg" viewBox="0 0 100 100"><defs><style>.cls-1{fill:#2892fc;}.cls-2{fill:#1a2530;}</style></defs><title></title><path id="_Path_" data-name="&lt;Path&gt;" class="cls-1" d="M36.53,81.92c-4.46,0-9.92,3.15-9.92,5v2.84c0,1.82,5.46,5,9.92,5s9.92-3.15,9.92-5V86.88C46.45,85.06,41,81.92,36.53,81.92Z"/><path id="_Path_2" data-name="&lt;Path&gt;" class="cls-1" d="M76.25,81.92c-4.46,0-9.92,3.15-9.92,5v2.84c0,1.82,5.46,5,9.92,5s9.92-3.15,9.92-5V86.88C86.17,85.06,80.71,81.92,76.25,81.92Z"/><path id="_Path_3" data-name="&lt;Path&gt;" class="cls-1" d="M56.39,79.08c-4.46,0-9.92,3.15-9.92,5v5.67c0,1.82,5.46,5,9.92,5s9.92-3.15,9.92-5V84C66.31,82.22,60.85,79.08,56.39,79.08Z"/><path id="_Compound_Path_" data-name="&lt;Compound Path&gt;" class="cls-2" d="M92.94,20.92v27a5.36,5.36,0,0,1-5.36,5.36H80.18v7.41A3.08,3.08,0,0,1,78,63.55a3.6,3.6,0,0,1-1.14.19,3.06,3.06,0,0,1-2.48-1.18l-7.17-9.33H53.55a5.36,5.36,0,0,1-5.36-5.36,1.1,1.1,0,1,1,2.2,0A3.16,3.16,0,0,0,53.55,51H67.73a1.1,1.1,0,0,1,.87.43l7.51,9.77a1.06,1.06,0,0,0,1.17.24.91.91,0,0,0,.69-.83V52.13a1.1,1.1,0,0,1,1.1-1.1h8.51a3.16,3.16,0,0,0,3.16-3.16v-27a3.16,3.16,0,0,0-3.16-3.16H76.24a1.1,1.1,0,0,1,0-2.2H87.59A5.36,5.36,0,0,1,92.94,20.92Zm-5.67,66v3.55a1.1,1.1,0,0,1-2.2,0V86.88c-.17-1-4.71-3.86-8.82-3.86s-8.66,2.85-8.83,3.88v3.53a1.1,1.1,0,0,1-1.1,1.1h0a1.1,1.1,0,0,1-1.1-1.1V84c-.17-1-4.71-3.86-8.82-3.86S47.73,83,47.56,84.06v6.37a1.1,1.1,0,0,1-1.1,1.1h0a1.1,1.1,0,0,1-1.1-1.1V86.88c-.17-1-4.71-3.86-8.82-3.86s-8.66,2.85-8.83,3.88v3.53a1.1,1.1,0,0,1-2.2,0V86.88c0-2,3.31-4.23,6.82-5.34a7.24,7.24,0,0,1-2.58-5.71v-2a6.79,6.79,0,1,1,13.55,0v2a7.24,7.24,0,0,1-2.57,5.7,16.47,16.47,0,0,1,4.67,2.28c.23-2,3.41-4,6.79-5.11A7.24,7.24,0,0,1,49.61,73V71a6.79,6.79,0,1,1,13.55,0v2a7.24,7.24,0,0,1-2.57,5.7c3.39,1.06,6.57,3.14,6.8,5.11A16.47,16.47,0,0,1,72,81.54a7.24,7.24,0,0,1-2.58-5.71v-2a6.79,6.79,0,1,1,13.55,0v2a7.24,7.24,0,0,1-2.57,5.7C84,82.65,87.27,84.84,87.27,86.88ZM32,75.84c0,2.88,1.92,5,4.57,5s4.57-2.09,4.57-5v-2c0-2.88-1.92-5-4.57-5S32,70.92,32,73.81ZM51.81,73c0,2.88,1.92,5,4.57,5S61,75.88,61,73V71c0-2.88-1.92-5-4.57-5s-4.57,2.09-4.57,5Zm19.86,2.84c0,2.88,1.92,5,4.57,5s4.57-2.09,4.57-5v-2c0-2.88-1.92-5-4.57-5s-4.57,2.09-4.57,5ZM17,37.94V9.57a5.36,5.36,0,0,1,5.36-5.36h44a5.36,5.36,0,0,1,5.36,5.36V37.94a5.36,5.36,0,0,1-5.36,5.36H42.74l-7.18,9.34a3.05,3.05,0,0,1-2.47,1.17,3.6,3.6,0,0,1-1.14-.19,3.08,3.08,0,0,1-2.2-2.91V43.3H22.34A5.36,5.36,0,0,1,17,37.94Zm2.2,0a3.16,3.16,0,0,0,3.16,3.16h8.51A1.1,1.1,0,0,1,32,42.2v8.51a.91.91,0,0,0,.69.83,1.06,1.06,0,0,0,1.16-.23l7.52-9.78a1.1,1.1,0,0,1,.87-.43H66.31a3.16,3.16,0,0,0,3.16-3.16V9.57a3.16,3.16,0,0,0-3.16-3.16h-44a3.16,3.16,0,0,0-3.16,3.16ZM17.31,69.79l-2.84,2.84A1.1,1.1,0,1,0,16,74.18l2.84-2.84a1.1,1.1,0,0,0-1.56-1.56Zm-7.09,7.09L7.38,79.72a1.1,1.1,0,1,0,1.56,1.56l2.84-2.84a1.1,1.1,0,0,0-1.56-1.56ZM8.93,69.79a1.1,1.1,0,1,0-1.56,1.56l2.84,2.84a1.1,1.1,0,0,0,1.56-1.56ZM16,76.88a1.1,1.1,0,0,0-1.56,1.56l2.84,2.84a1.1,1.1,0,0,0,1.56-1.56ZM28,61.74a1.1,1.1,0,0,0,0-2.2H24.86V56.38a1.1,1.1,0,1,0-2.2,0v3.16H19.5a1.1,1.1,0,1,0,0,2.2h3.16v3.16a1.1,1.1,0,1,0,2.2,0V61.74Z"/></svg>