<svg id="outline" xmlns="http://www.w3.org/2000/svg" viewBox="0 0 100 100"><defs><style>.cls-1{fill:#2892fc;}.cls-2{fill:#1a2530;}</style></defs><title></title><path id="_Path_" data-name="&lt;Path&gt;" class="cls-1" d="M86.94,75.37c-.7-3.24-2.59-5.85-8.28-5.85H57.38s1.1,7.09,7.09,7.09h8.61l4.64,12.77H91Z"/><path id="_Path_2" data-name="&lt;Path&gt;" class="cls-1" d="M55.91,52.78,45.23,62.43l-10.78,1.8c-3.48.65-5.73,2.22-6.5,5.26l-9.67,1.92c-3.59.67-5.89,2.32-6.58,5.56L9,89.38h30.8l3.57-17.86,4.42-1.35,7.71-7.63C59.46,58.83,55.91,52.78,55.91,52.78Z"/><path id="_Compound_Path_" data-name="&lt;Compound Path&gt;" class="cls-2" d="M92,89.07,88,75.14c-1-4.52-4-6.72-9.36-6.72H60.29l-2.75-6.65c2.42-4.14-.53-9.3-.68-9.54A1.1,1.1,0,0,0,55.18,52l-1.24,1.12L37.53,14.85s0,0,0-.06l0-.05-1.95-4.54a1.1,1.1,0,0,0-2,.87L35,14.65,11.23,24.84A1.1,1.1,0,0,0,11,26.72l7.69,5.95-1,9.58a1.1,1.1,0,0,0,1.53,1.13L43,33.18l9.21,21.47-7.48,6.75L34.25,63.14c-3.83.72-6.18,2.49-7.16,5.39l-9,1.79c-4.26.8-6.7,2.9-7.45,6.41L8,89.15a1.1,1.1,0,0,0,.85,1.31l.23,0a1.1,1.1,0,0,0,1.07-.87L12.77,77.2c.56-2.62,2.32-4.07,5.72-4.71l8-1.59L22.59,89.15a1.1,1.1,0,0,0,.85,1.31l.23,0a1.1,1.1,0,0,0,1.07-.87L28.94,70c.56-2.62,2.32-4.07,5.69-4.71l10.78-1.8a1.1,1.1,0,0,0,.56-.27l8.33-7.52,0,0,1.22-1.1c.7,1.76,1.5,5-.79,7.17l-7.51,7.44L35.72,72.72a1.1,1.1,0,1,0,.64,2.1L42,73.11,38.76,89.16a1.1,1.1,0,0,0,.86,1.29l.22,0a1.1,1.1,0,0,0,1.08-.88l3.44-17.22,3.79-1.16a1.1,1.1,0,0,0,.45-.27l7.35-7.27,2,4.74h-.53a1.1,1.1,0,0,0-1.09,1.27c.34,2.21,1.85,6,5.21,7.42L66.74,89.8a1.1,1.1,0,0,0,2-.84L64.12,77.69l.35,0h7.84l4.37,12A1.1,1.1,0,0,0,78.75,89l-4.1-11.29h4a1.1,1.1,0,0,0,0-2.2H64.47c-3.58,0-5.1-3.09-5.69-4.89H78.65c5.41,0,6.68,2.52,7.22,5.06l4,14A1.1,1.1,0,1,0,92,89.07ZM20,40.61l.91-8.32a1.1,1.1,0,0,0-.42-1l-6.7-5.18,22.1-9.46,6.22,14.49Zm48.3,18.27a7.48,7.48,0,1,0,7.48-7.48A7.49,7.49,0,0,0,68.33,58.88Zm12.77,0a5.28,5.28,0,1,1-5.28-5.28A5.29,5.29,0,0,1,81.1,58.88Zm-45,1.81a7.48,7.48,0,1,0-7.48-7.48A7.49,7.49,0,0,0,36.1,60.69Zm0-12.77a5.28,5.28,0,1,1-5.28,5.28A5.29,5.29,0,0,1,36.1,47.92ZM17.66,67.78a7.48,7.48,0,1,0-7.48-7.48A7.49,7.49,0,0,0,17.66,67.78Zm0-12.77a5.28,5.28,0,1,1-5.28,5.28A5.29,5.29,0,0,1,17.66,55ZM69.75,39.73a1.1,1.1,0,0,0,1.1,1.1h2.84a1.09,1.09,0,0,0,.4-.08,1.09,1.09,0,0,0-.08.4V44a1.1,1.1,0,0,0,2.2,0V41.15a1.09,1.09,0,0,0-.08-.4,1.09,1.09,0,0,0,.4.08h2.84a1.1,1.1,0,1,0,0-2.2H76.53a1.09,1.09,0,0,0-.4.08,1.09,1.09,0,0,0,.08-.4V35.47a1.1,1.1,0,1,0-2.2,0v2.84a1.09,1.09,0,0,0,.08.4,1.09,1.09,0,0,0-.4-.08H70.85A1.1,1.1,0,0,0,69.75,39.73Zm5.75-.4a1,1,0,0,0,0,.8,1,1,0,0,0-.8,0,1,1,0,0,0,0-.8,1,1,0,0,0,.8,0ZM65.82,29.16a1.1,1.1,0,0,1,1.56-1.56l2.84,2.84A1.1,1.1,0,1,1,68.66,32Zm-7.09-7.09a1.1,1.1,0,0,1,1.56-1.56l2.84,2.84a1.1,1.1,0,1,1-1.56,1.56Zm0,9.93a1.1,1.1,0,0,1,0-1.56l2.84-2.84a1.1,1.1,0,0,1,1.56,1.56L60.28,32a1.1,1.1,0,0,1-1.56,0Zm7.09-7.09a1.1,1.1,0,0,1,0-1.56l2.84-2.84a1.1,1.1,0,0,1,1.56,1.56l-2.84,2.84a1.1,1.1,0,0,1-1.56,0Z"/></svg>