<svg id="outline" xmlns="http://www.w3.org/2000/svg" viewBox="0 0 100 100"><defs><style>.cls-1{fill:#2892fc;}.cls-2{fill:#1a2530;}</style></defs><title></title><polygon id="_Path_" data-name="&lt;Path&gt;" class="cls-1" points="93.97 30.14 67.02 11.7 67.02 23.05 34.4 23.05 48.21 37.23 67.02 37.23 67.02 48.58 93.97 30.14"/><path id="_Compound_Path_" data-name="&lt;Compound Path&gt;" class="cls-2" d="M95.07,30.14a1.1,1.1,0,0,1-.48.91l-27,18.44a1.1,1.1,0,0,1-1.72-.91V38.33H47.16a1.1,1.1,0,0,1,0-2.2H67a1.1,1.1,0,0,1,1.1,1.1V46.5L92,30.14,68.12,13.79V23a1.1,1.1,0,0,1-1.1,1.1H28.72a1.1,1.1,0,0,1,0-2.2h37.2V11.7a1.1,1.1,0,0,1,1.72-.91l27,18.44A1.1,1.1,0,0,1,95.07,30.14Zm-72-6h2.84a1.1,1.1,0,0,0,0-2.2H23a1.1,1.1,0,0,0,0,2.2ZM48.58,58.83H33a1.1,1.1,0,0,0-1.1,1.1v9.26L8,52.84l23.9-16.35v9.26a1.1,1.1,0,0,0,1.1,1.1H54.26a1.1,1.1,0,0,0,0-2.2H34.08V34.4a1.1,1.1,0,0,0-1.72-.91l-27,18.44a1.1,1.1,0,0,0,0,1.82l27,18.44a1.1,1.1,0,0,0,1.72-.91V61h14.5a1.1,1.1,0,0,0,0-2.2Zm11.35-12a1.1,1.1,0,0,0,0-2.2H57.09a1.1,1.1,0,0,0,0,2.2ZM50.32,59.93a1.1,1.1,0,0,0,1.1,1.1H67a1.1,1.1,0,0,0,0-2.2H51.42A1.1,1.1,0,0,0,50.32,59.93ZM72.69,61a1.1,1.1,0,0,0,0-2.2H69.86a1.1,1.1,0,0,0,0,2.2Zm7.09,3.47H59.93a1.1,1.1,0,0,0,0,2.2H79.79a1.1,1.1,0,0,0,0-2.2ZM48.58,70.18a1.1,1.1,0,0,0-1.1,1.1V77a1.1,1.1,0,1,0,2.2,0V71.28A1.1,1.1,0,0,0,48.58,70.18Zm0,11.35a1.1,1.1,0,0,0-1.1,1.1V88.3a1.1,1.1,0,1,0,2.2,0V82.62A1.1,1.1,0,0,0,48.58,81.52Zm-2.84-2.84H40.07a1.1,1.1,0,0,0,0,2.2h5.67a1.1,1.1,0,0,0,0-2.2Zm11.35,0H51.42a1.1,1.1,0,0,0,0,2.2h5.67a1.1,1.1,0,0,0,0-2.2Zm19.54-4.57a1.1,1.1,0,0,1-1.1,1.1H72.69a1.09,1.09,0,0,1-.4-.08,1.09,1.09,0,0,1,.08.4v2.84a1.1,1.1,0,1,1-2.2,0V75.53a1.09,1.09,0,0,1,.08-.4,1.09,1.09,0,0,1-.4.08H67A1.1,1.1,0,0,1,67,73h2.84a1.09,1.09,0,0,1,.4.08,1.09,1.09,0,0,1-.08-.4V69.86a1.1,1.1,0,1,1,2.2,0V72.7a1.09,1.09,0,0,1-.08.4,1.09,1.09,0,0,1,.4-.08h2.84A1.1,1.1,0,0,1,76.63,74.11Zm-5.35.32a1.09,1.09,0,0,1,.4.08,1,1,0,0,1,0-.8,1,1,0,0,1-.8,0,1,1,0,0,1,0,.8A1.09,1.09,0,0,1,71.28,74.43ZM7.77,30.14A1.1,1.1,0,0,1,8.86,29H11.7a1.09,1.09,0,0,1,.4.08,1.09,1.09,0,0,1-.08-.4V25.89a1.1,1.1,0,1,1,2.2,0v2.84a1.09,1.09,0,0,1-.08.4,1.09,1.09,0,0,1,.4-.08h2.84a1.1,1.1,0,0,1,0,2.2H14.54a1.09,1.09,0,0,1-.4-.08,1.09,1.09,0,0,1,.08.4V34.4a1.1,1.1,0,1,1-2.2,0V31.56a1.09,1.09,0,0,1,.08-.4,1.09,1.09,0,0,1-.4.08H8.86A1.1,1.1,0,0,1,7.77,30.14Zm5.36-.32a1.09,1.09,0,0,1-.4-.08,1,1,0,0,1,0,.8,1,1,0,0,1,.8,0,1,1,0,0,1,0-.8A1.09,1.09,0,0,1,13.12,29.82Z"/></svg>